<?xml version="1.0" encoding="utf-8"?>
<!-- Generator: Adobe Illustrator 16.0.4, SVG Export Plug-In . SVG Version: 6.00 Build 0)  -->
<!DOCTYPE svg PUBLIC "-//W3C//DTD SVG 1.1//EN" "http://www.w3.org/Graphics/SVG/1.1/DTD/svg11.dtd">
<svg version="1.1" id="レイヤー_1" xmlns="http://www.w3.org/2000/svg" xmlns:xlink="http://www.w3.org/1999/xlink" x="0px"
	 y="0px" width="68px" height="66px" viewBox="104.25 0 68 66" enable-background="new 104.25 0 68 66" xml:space="preserve">
<rect x="104.25" fill="#F7F8F8" width="68" height="66"/>
<g>
	<polygon fill="#DACD66" points="114.34,54.5 124.678,36.594 135.016,54.5 	"/>
	<polygon fill="#DACD66" points="123.241,54.5 142.701,20.796 162.16,54.5 	"/>
	<circle fill="#DACD66" cx="121.115" cy="18.275" r="6.775"/>
</g>
<path d="M152.108,56.5h-28l19.746-24.819c3.284-4.114,5.453-6.832,5.784-9.606c0.313-2.637-0.329-4.941-1.858-6.663
	c-1.827-2.058-4.847-3.238-8.286-3.238c-6.219,0-11.278,5.059-11.278,11.277h-2.672c0-7.693,6.258-13.951,13.95-13.951
	c4.202,0,7.951,1.508,10.285,4.137c2.051,2.31,2.921,5.337,2.514,8.754c-0.42,3.531-2.779,6.485-6.349,10.958l-16.293,20.478h22.457
	V56.5z"/>
</svg>
