<?xml version="1.0" encoding="utf-8"?>
<!-- Generator: Adobe Illustrator 16.0.4, SVG Export Plug-In . SVG Version: 6.00 Build 0)  -->
<!DOCTYPE svg PUBLIC "-//W3C//DTD SVG 1.1//EN" "http://www.w3.org/Graphics/SVG/1.1/DTD/svg11.dtd">
<svg version="1.1" id="レイヤー_1" xmlns="http://www.w3.org/2000/svg" xmlns:xlink="http://www.w3.org/1999/xlink" x="0px"
	 y="0px" width="744.779px" height="220.77px" viewBox="0 0 744.779 220.77" enable-background="new 0 0 744.779 220.77"
	 xml:space="preserve">
<g>
	
		<text transform="matrix(1 0 0 1 297.6482 184.4124)" fill="#D2C666" font-family="'HelveticaNeue-Medium'" font-size="30.9047" letter-spacing="1">20ft Plan</text>
</g>
<g>
	<path fill="#D2C667" d="M297.943,52.812c0.121-0.06,12.65-5.648,26.439-5.789c-0.486,2.895-0.771,5.705-0.943,8.022
		c-13.891,0.02-25.949,2.321-27.771,2.688c0.598-1.915,1.299-3.688,2.1-5.311L297.943,52.812z"/>
	<path fill="#D2C667" d="M324.539,46.143c-12.56,0.092-24.086,4.655-26.478,5.669c0.941-1.84,2.013-3.479,3.146-4.96l0.237,0.349
		c0.104-0.067,10.396-6.885,24.541-7.069C325.384,42.048,324.908,44.094,324.539,46.143z"/>
	<path fill="#D2C667" d="M295.501,58.251l0.084,0.39c0.127-0.028,12.899-2.688,27.797-2.719c-0.17,2.625-0.189,4.455-0.193,4.692
		h0.082c-0.121,1.464-0.076,2.526-0.067,2.64v1.702l-28.871-1.745C294.646,61.458,295.037,59.807,295.501,58.251z"/>
	<polygon fill="#D2C667" points="356.083,73.838 357.869,74.642 357.869,76.904 356.083,77.713 352.923,76.853 352.923,74.698 
		353.591,74.515 353.591,74.515 355.818,73.913 355.818,73.913 	"/>
	<polygon fill="#D2C667" points="352.923,103.969 352.923,101.814 356.083,100.949 357.869,101.759 357.869,104.021 
		356.083,104.827 354.326,104.351 353.591,104.152 353.591,104.152 	"/>
	<path fill="#D2C667" d="M292.375,126.719c0,0,0.549-33.052,1.104-54.986c0.072-2.849,0.344-5.464,0.748-7.9l-0.014,0.255
		l28.988,1.751l-0.015,61.406h-27.539L292.375,126.719z"/>
	<path fill="#D2C667" d="M449.046,47.416c-0.142-2.184-0.351-4.293-0.642-6.229c16.392,0.17,32.068,7.94,32.23,8.023l0.182-0.363
		c0.803,1.396,1.523,2.84,2.162,4.319C480.613,52.182,468.327,47.484,449.046,47.416z"/>
	<path fill="#D2C667" d="M448.327,84.861V65.402c0.24-5.73,0.285-14.838-0.469-21.822h-30.537v41.281H448.327L448.327,84.861z
		 M446.288,60.615H419.93V48.16h26.356L446.288,60.615L446.288,60.615z"/>
	<polygon fill="#D2C667" points="354.943,100.355 354.464,100.484 354.464,78.181 354.943,78.313 	"/>
	<rect x="417.322" y="85.73" fill="#D2C667" width="31.006" height="20.761"/>
	<path fill="#D2C667" d="M449.337,55.792c-0.021-2.363-0.095-4.945-0.234-7.505c21.209,0.084,33.834,5.812,33.963,5.869l0.176-0.371
		c0.564,1.354,1.07,2.701,1.515,4.044C482.822,57.676,458.698,55.826,449.337,55.792z"/>
	<path fill="#D2C667" d="M449.222,64.966c0.041-1.166,0.137-4.359,0.117-8.302c9.672,0.034,35.27,2.026,35.528,2.045l0.031-0.398
		c0.551,1.718,1.012,3.369,1.389,4.904L449.222,64.966z"/>
	<path fill="#D2C667" d="M489.782,128.11l0.074,0.652c-8.119,1.714-18.932,1.156-18.932,1.156h-34.371c0,0-0.252-0.715-0.767-1.812
		L489.782,128.11v-0.868h-40.58V85.73h39.125v-0.434l1.304,36.93l0.151,5.017"/>
	<path fill="#D2C667" d="M449.202,84.861V65.84l37.226-1.756l-0.021-0.397c1.064,4.479,1.437,7.763,1.437,7.763l0.471,13.413
		L449.202,84.861L449.202,84.861z"/>
	<path fill="#D2C667" d="M448.281,40.315c-0.496-2.958-1.215-5.296-2.227-6.479c17.203,0.304,28.969,7.902,28.969,7.902
		c2.111,1.703,3.879,3.937,5.379,6.397C477.363,46.708,463.115,40.425,448.281,40.315z"/>
	<path fill="#D2C667" d="M323.187,128.11h2.16h28.242h2.238h45.217c-0.429,1.103-0.607,1.812-0.607,1.812h-88.838
		c0,0-7.266-0.364-14.045-1.812H323.187z"/>
	<path fill="#D2C667" d="M417.322,107.363h31.006v19.88h-12.729v0.458c-0.394-0.803-0.906-1.773-1.562-2.812
		c-4.438-6.588-8.36-9.446-17.146-9.446h0.432L417.322,107.363L417.322,107.363z"/>
	<path fill="#D2C667" d="M324.474,127.241h-0.41l0.006-64.006c-0.002-0.091-0.291-7.036,2.759-10.234
		c1.01-1.053,2.28-1.585,3.795-1.585h17.771c1.51,0,2.789,0.532,3.789,1.585c3.058,3.198,2.771,10.146,2.76,10.217V73.24
		l-0.396,0.106l-0.082,0.021v-9.717c0.012-0.252,0.289-6.77-2.756-9.964c-1.088-1.137-2.465-1.714-4.092-1.714h-16.293
		c-1.625,0-3,0.577-4.087,1.714c-3.045,3.194-2.771,9.708-2.764,9.985L324.474,127.241L324.474,127.241z"/>
	<path fill="#D2C667" d="M326.273,39.243c-11.932,0.084-21.225,4.825-24.25,6.587c10.041-12.016,25.326-12.021,25.326-12.021h1.611
		C327.877,35.273,326.992,37.156,326.273,39.243z"/>
	<path fill="#D2C667" d="M325.347,63.656c-0.006-0.084-0.268-6.438,2.523-9.359c0.912-0.958,2.071-1.442,3.45-1.442h16.293
		c1.378,0,2.544,0.484,3.455,1.442c2.789,2.926,2.525,9.275,2.521,9.341v9.972l-1.546,0.424v3.489l1.546,0.419v22.783l-1.546,0.419
		v3.494l1.546,0.421v22.186h-28.242V63.656L325.347,63.656z"/>
	<polygon fill="#D2C667" points="354.464,105.298 354.943,105.426 354.958,127.241 354.464,127.241 	"/>
	<path fill="#D2C667" d="M445.198,34.137c1.254,1.122,2.064,4.403,2.562,8.566h-30.439V33.81h27.701
		c0.156,0,0.305,0.006,0.459,0.006L445.198,34.137z"/>
	<path fill="#D2C667" d="M421.841,31.232v1.528h21.899v-1.528c0,0-6.883-1.195-10.951-1.195
		C428.724,30.035,421.841,31.232,421.841,31.232z"/>
	<circle fill="#D2C667" cx="418.689" cy="128.897" r="0.938"/>
	<path fill="#D2C667" d="M415.087,128.898c0,1.984,1.61,3.601,3.604,3.601c1.988,0,3.604-1.613,3.604-3.601
		c0-1.984-1.615-3.603-3.604-3.603C416.698,125.297,415.087,126.912,415.087,128.898z M416.872,128.898
		c0-0.998,0.816-1.812,1.816-1.812s1.809,0.813,1.809,1.812c0,1-0.809,1.812-1.809,1.812S416.872,129.898,416.872,128.898z"/>
	<path fill="#D2C667" d="M403.552,127.049c0.305-0.866,0.668-1.674,1.09-2.435c-0.285,1.126-0.479,2.284-0.479,3.501
		c0,8.009,6.517,14.52,14.525,14.52c8.004,0,14.52-6.511,14.52-14.52c0-0.678-0.106-1.315-0.194-1.968
		c0.549,0.964,1.016,1.974,1.272,2.972c0.058,0.212,0.105,0.427,0.146,0.646c0.692,4.021-1.857,8.345-4.74,10.928
		c-2.998,2.69-6.998,4.044-11,4.044c-0.967,0-1.938-0.076-2.895-0.229C407.941,143.211,400.708,135.276,403.552,127.049z"/>
	<path fill="#D2C667" d="M406.601,121.906c-0.965,1.865-1.566,3.959-1.566,6.209c0,7.523,6.129,13.645,13.654,13.645
		s13.65-6.118,13.65-13.645c0-1.416-0.283-2.758-0.688-4.037c-0.172-0.247-0.346-0.502-0.521-0.729
		c-3.045-4-7.521-6.494-12.604-6.494C413.775,116.856,409.532,118.646,406.601,121.906z M414.208,128.898
		c0-2.471,2.012-4.475,4.479-4.475s4.475,2.004,4.475,4.475s-2.006,4.477-4.475,4.477S414.208,131.367,414.208,128.898z"/>
	<polygon fill="#D2C667" points="291.164,127.582 291.437,121.035 254.923,122.815 254.923,127.959 	"/>
	<rect x="384.8" y="43.578" fill="#D2C667" width="31.647" height="41.281"/>
	<path fill="#D2C667" d="M325.968,43.578h57.816V84.86h-27.968v-6.314l0.343,0.097l2.579-1.173v-3.387l-2.579-1.169l-0.343,0.089
		v-9.767c0.015-0.279,0.312-7.361-2.996-10.835c-1.18-1.232-2.661-1.858-4.428-1.858h-17.771c-1.761,0-3.25,0.626-4.431,1.858
		c-0.858,0.903-1.467,2.058-1.907,3.268C324.517,52.344,324.998,47.821,325.968,43.578z"/>
	<rect x="384.8" y="85.73" fill="#D2C667" width="31.647" height="20.761"/>
	<polygon fill="#D2C667" points="355.818,106.49 355.818,105.661 356.16,105.756 358.74,104.584 358.74,101.195 356.16,100.027 
		355.818,100.119 355.818,85.73 383.785,85.73 383.785,106.49 	"/>
	<path fill="#D2C667" d="M416.448,107.363v8.08h0.441c-8.785,0-13.486,8.125-13.486,8.125c-1.024,1.533-1.729,2.997-2.199,4.143
		v-0.468h-16.403v-19.88H416.448z"/>
	<polygon fill="#D2C667" points="355.83,127.241 355.822,107.363 383.785,107.363 383.785,127.241 	"/>
	<rect x="384.8" y="33.811" fill="#D2C667" width="31.647" height="8.896"/>
	<path fill="#D2C667" d="M326.181,42.704c0.842-3.394,2.012-6.53,3.648-8.628l-0.347-0.268h54.3v8.896H326.181z"/>
</g>
</svg>
