<?xml version="1.0" encoding="utf-8"?>
<!-- Generator: Adobe Illustrator 16.0.4, SVG Export Plug-In . SVG Version: 6.00 Build 0)  -->
<!DOCTYPE svg PUBLIC "-//W3C//DTD SVG 1.1//EN" "http://www.w3.org/Graphics/SVG/1.1/DTD/svg11.dtd">
<svg version="1.1" id="レイヤー_1" xmlns="http://www.w3.org/2000/svg" xmlns:xlink="http://www.w3.org/1999/xlink" x="0px"
	 y="0px" width="744.779px" height="220.768px" viewBox="0 0 744.779 220.768" enable-background="new 0 0 744.779 220.768"
	 xml:space="preserve">
<text transform="matrix(1 0 0 1 297.6477 184.4114)" fill="#D2C666" font-family="'HelveticaNeue-Medium'" font-size="30.9047" letter-spacing="2">16ft Plan</text>
<g>
	<path fill="#D2C667" d="M315.71,52.812c0.123-0.059,12.653-5.649,26.442-5.789c-0.483,2.894-0.772,5.705-0.942,8.023
		c-13.896,0.018-25.949,2.32-27.773,2.688c0.597-1.914,1.303-3.688,2.103-5.309L315.71,52.812z"/>
	<path fill="#D2C667" d="M342.31,46.143c-12.561,0.092-24.088,4.656-26.477,5.668c0.944-1.84,2.008-3.479,3.146-4.959l0.234,0.347
		c0.104-0.066,10.396-6.884,24.541-7.068C343.154,42.047,342.679,44.094,342.31,46.143z"/>
	<path fill="#D2C667" d="M313.273,58.25l0.084,0.389c0.127-0.027,12.898-2.688,27.793-2.717c-0.172,2.625-0.19,4.455-0.192,4.69
		h0.084c-0.123,1.466-0.076,2.529-0.07,2.642v1.701L312.1,63.211C312.416,61.457,312.808,59.807,313.273,58.25z"/>
	<polygon fill="#D2C667" points="373.855,73.838 375.638,74.641 375.638,76.904 373.855,77.713 370.691,76.852 370.691,74.697 
		371.361,74.514 371.361,74.514 373.587,73.912 373.587,73.912 	"/>
	<polygon fill="#D2C667" points="370.691,103.969 370.691,101.814 373.855,100.949 375.638,101.758 375.638,104.021 
		373.855,104.826 372.099,104.35 371.361,104.152 371.361,104.152 	"/>
	<path fill="#D2C667" d="M310.144,126.719c0,0,0.547-33.053,1.101-54.988c0.075-2.848,0.348-5.463,0.75-7.901l-0.013,0.256
		l28.988,1.75l-0.014,61.406h-27.535L310.144,126.719z"/>
	<path fill="#D2C667" d="M431.275,47.416c-0.139-2.183-0.348-4.293-0.639-6.228c16.389,0.17,32.067,7.941,32.229,8.023l0.183-0.363
		c0.803,1.396,1.522,2.84,2.162,4.32C462.843,52.182,450.558,47.484,431.275,47.416z"/>
	<path fill="#D2C667" d="M430.558,84.861V65.402c0.24-5.731,0.285-14.838-0.469-21.823h-30.537v41.282H430.558L430.558,84.861z
		 M428.519,60.613h-26.359V48.16h26.359V60.613z"/>
	<polygon fill="#D2C667" points="372.712,100.355 372.236,100.484 372.236,78.18 372.712,78.312 	"/>
	<rect x="399.552" y="85.73" fill="#D2C667" width="31.006" height="20.758"/>
	<path fill="#D2C667" d="M431.566,55.791c-0.021-2.363-0.092-4.945-0.234-7.504c21.209,0.084,33.834,5.812,33.964,5.869l0.176-0.371
		c0.563,1.352,1.069,2.702,1.512,4.043C465.052,57.676,440.929,55.826,431.566,55.791z"/>
	<path fill="#D2C667" d="M431.452,64.965c0.041-1.166,0.138-4.359,0.117-8.301c9.672,0.032,35.271,2.026,35.531,2.045l0.031-0.4
		c0.551,1.719,1.012,3.369,1.389,4.906L431.452,64.965z"/>
	<path fill="#D2C667" d="M398.679,84.861h-25.092v-6.315l0.344,0.096l2.58-1.172v-3.387l-2.58-1.17l-0.344,0.09v-9.767
		c0.016-0.28,0.312-7.362-2.994-10.834c-1.18-1.233-2.666-1.86-4.428-1.86h-17.773c-1.76,0-3.248,0.627-4.428,1.86
		c-0.859,0.902-1.469,2.056-1.91,3.267c0.232-3.324,0.713-7.849,1.682-12.09h54.943V84.861L398.679,84.861z"/>
	<path fill="#D2C667" d="M472.013,128.109l0.074,0.652c-8.119,1.715-18.933,1.158-18.933,1.158h-34.371c0,0-0.252-0.715-0.764-1.812
		L472.013,128.109v-0.87h-40.58V85.73h39.125v-0.434l1.301,36.93l0.154,5.015"/>
	<polygon fill="#D2C667" points="373.587,105.66 373.931,105.756 376.511,104.584 376.511,101.195 373.931,100.027 373.587,100.119 
		373.587,85.73 398.679,85.73 398.679,106.488 373.587,106.488 	"/>
	<path fill="#D2C667" d="M431.433,84.861V65.84l37.223-1.756l-0.018-0.398c1.063,4.479,1.434,7.76,1.434,7.76l0.472,13.416
		L431.433,84.861L431.433,84.861z"/>
	<path fill="#D2C667" d="M383.435,127.24h-9.836l-0.006-19.878h25.086v8.08h0.44c-8.784,0-13.485,8.125-13.485,8.125
		c-1.027,1.533-1.729,2.996-2.199,4.142V127.24z"/>
	<path fill="#D2C667" d="M430.511,40.314c-0.496-2.957-1.215-5.295-2.228-6.479c17.203,0.303,28.97,7.903,28.97,7.903
		c2.11,1.703,3.879,3.935,5.379,6.398C459.593,46.707,445.345,40.424,430.511,40.314z"/>
	<path fill="#D2C667" d="M340.957,128.109h2.157h28.246h2.238h9.676c-0.426,1.103-0.606,1.812-0.606,1.812h-53.301
		c0,0-7.263-0.365-14.046-1.812H340.957z"/>
	<path fill="#D2C667" d="M399.552,107.363h31.006v19.878h-12.732v0.459c-0.391-0.802-0.905-1.773-1.559-2.812
		c-4.438-6.586-8.363-9.445-17.146-9.445h0.433L399.552,107.363L399.552,107.363z"/>
	<path fill="#D2C667" d="M342.244,127.24h-0.41l0.008-64.005c-0.002-0.09-0.293-7.036,2.758-10.235
		c1.008-1.054,2.281-1.584,3.793-1.584h17.773c1.512,0,2.787,0.53,3.787,1.584c3.057,3.199,2.768,10.146,2.76,10.217V73.24
		l-0.398,0.106l-0.078,0.023v-9.716c0.011-0.252,0.287-6.77-2.76-9.965c-1.084-1.137-2.461-1.713-4.09-1.713h-16.293
		c-1.623,0-3,0.576-4.084,1.713c-3.047,3.195-2.777,9.709-2.766,9.986V127.24L342.244,127.24z"/>
	<path fill="#D2C667" d="M344.042,39.242c-11.933,0.084-21.222,4.827-24.25,6.588c10.041-12.015,25.326-12.021,25.326-12.021h1.61
		C345.644,35.273,344.761,37.156,344.042,39.242z"/>
	<path fill="#D2C667" d="M343.115,63.656c-0.002-0.085-0.264-6.439,2.525-9.359c0.916-0.959,2.072-1.443,3.453-1.443h16.293
		c1.377,0,2.541,0.484,3.455,1.443c2.787,2.924,2.524,9.274,2.52,9.34v9.971l-1.545,0.422v3.492l1.545,0.418v22.783l-1.545,0.42
		v3.494l1.545,0.42v22.185h-28.246V63.656L343.115,63.656z"/>
	<path fill="#D2C667" d="M343.953,42.703c0.842-3.392,2.01-6.529,3.647-8.627l-0.344-0.267h51.422v8.894H343.953z"/>
	<polygon fill="#D2C667" points="372.236,105.297 372.712,105.426 372.726,127.24 372.236,127.24 	"/>
	<path fill="#D2C667" d="M427.429,34.137c1.254,1.123,2.063,4.404,2.562,8.566h-30.438V33.81h27.701
		c0.155,0,0.305,0.006,0.459,0.006L427.429,34.137z"/>
	<path fill="#D2C667" d="M404.07,31.232v1.529h21.902v-1.529c0,0-6.883-1.196-10.951-1.196
		C410.954,30.035,404.07,31.232,404.07,31.232z"/>
	<circle fill="#D2C667" cx="400.919" cy="128.896" r="0.938"/>
	<path fill="#D2C667" d="M397.316,128.898c0,1.984,1.613,3.599,3.604,3.599c1.987,0,3.604-1.613,3.604-3.599
		s-1.615-3.602-3.604-3.602C398.929,125.297,397.316,126.912,397.316,128.898z M399.103,128.898c0-0.998,0.816-1.813,1.816-1.813
		s1.809,0.815,1.809,1.813c0,1-0.809,1.81-1.809,1.81S399.103,129.898,399.103,128.898z"/>
	<path fill="#D2C667" d="M385.783,127.049c0.305-0.867,0.668-1.674,1.09-2.437c-0.285,1.128-0.479,2.287-0.479,3.503
		c0,8.008,6.515,14.52,14.525,14.52c8.006,0,14.52-6.512,14.52-14.52c0-0.677-0.109-1.316-0.197-1.968
		c0.549,0.965,1.017,1.974,1.275,2.972c0.055,0.211,0.104,0.426,0.143,0.645c0.695,4.021-1.856,8.344-4.739,10.928
		c-2.998,2.691-6.998,4.043-11,4.043c-0.968,0-1.939-0.077-2.896-0.229C390.171,143.211,382.939,135.275,385.783,127.049z"/>
	<path fill="#D2C667" d="M388.832,121.906c-0.965,1.866-1.566,3.959-1.566,6.209c0,7.524,6.129,13.645,13.654,13.645
		c7.524,0,13.649-6.119,13.649-13.645c0-1.416-0.283-2.757-0.686-4.037c-0.172-0.248-0.347-0.502-0.521-0.729
		c-3.045-4-7.52-6.494-12.604-6.494C396.005,116.855,391.763,118.645,388.832,121.906z M396.439,128.898
		c0-2.471,2.01-4.475,4.48-4.475c2.469,0,4.475,2.004,4.475,4.475c0,2.47-2.006,4.476-4.475,4.476
		C398.448,133.373,396.439,131.367,396.439,128.898z"/>
	<polygon fill="#D2C667" points="308.931,127.582 309.205,121.035 272.693,122.814 272.693,127.959 	"/>
</g>
</svg>
