<?xml version="1.0" encoding="utf-8"?>
<!-- Generator: Adobe Illustrator 16.0.4, SVG Export Plug-In . SVG Version: 6.00 Build 0)  -->
<!DOCTYPE svg PUBLIC "-//W3C//DTD SVG 1.1//EN" "http://www.w3.org/Graphics/SVG/1.1/DTD/svg11.dtd">
<svg version="1.1" id="レイヤー_1" xmlns="http://www.w3.org/2000/svg" xmlns:xlink="http://www.w3.org/1999/xlink" x="0px"
	 y="0px" width="66.197px" height="66.197px" viewBox="0 0 66.197 66.197" enable-background="new 0 0 66.197 66.197"
	 xml:space="preserve">
<g>
	<path d="M20.71,22.176h5.385v-2.761c0-3.082,0.326-5.383,0.982-6.901c0.655-1.519,1.863-2.755,3.623-3.71
		c1.76-0.954,3.985-1.432,6.678-1.432c2.762,0,5.463,0.414,8.109,1.242l-1.312,6.764c-1.542-0.368-3.024-0.552-4.45-0.552
		c-1.404,0-2.41,0.327-3.021,0.983c-0.609,0.655-0.915,1.915-0.915,3.778v2.588h7.247v7.627H35.79v29.021h-9.695V29.803H20.71
		V22.176z"/>
</g>
</svg>
