<?xml version="1.0" encoding="utf-8"?>
<!-- Generator: Adobe Illustrator 16.0.4, SVG Export Plug-In . SVG Version: 6.00 Build 0)  -->
<!DOCTYPE svg PUBLIC "-//W3C//DTD SVG 1.1//EN" "http://www.w3.org/Graphics/SVG/1.1/DTD/svg11.dtd">
<svg version="1.1" id="レイヤー_1" xmlns="http://www.w3.org/2000/svg" xmlns:xlink="http://www.w3.org/1999/xlink" x="0px"
	 y="0px" width="1201px" height="601px" viewBox="0 0 1201 601" enable-background="new 0 0 1201 601" xml:space="preserve">
<g>
	<g>
		<path fill="none" stroke="#000000" stroke-width="0.5" stroke-miterlimit="10" d="M249.507,435.9l178.46,0.03v6.184
			c0,0,1.092,3.635-5.455,3.635c-6.546,0-173.005-2.212-173.005-2.212V435.9z"/>
		
			<rect x="196.416" y="426.082" fill="none" stroke="#000000" stroke-width="0.5" stroke-miterlimit="10" width="53.091" height="17.455"/>
		<path fill="none" stroke="#000000" stroke-width="0.5" stroke-miterlimit="10" d="M445.899,397.143
			c-6.379,8.906-10.147,19.811-10.147,31.603c0,30.027,24.342,54.368,54.367,54.368c30.023,0,54.363-24.341,54.363-54.368
			c0-11.795-3.771-22.701-10.149-31.611c-11.297-11.357-26.933-18.389-44.213-18.389
			C472.834,378.746,457.196,385.781,445.899,397.143z M522.699,428.745c0,17.997-14.588,32.583-32.583,32.583
			c-17.992,0-32.579-14.586-32.579-32.583c0-17.992,14.587-32.579,32.579-32.579C508.111,396.167,522.699,410.753,522.699,428.745z"
			/>
		<path fill="none" stroke="#000000" stroke-width="0.5" stroke-miterlimit="10" d="M555.939,435.9
			c-2.793-33.899-31.195-61.518-65.819-61.518c-34.633,0-63.036,27.609-65.825,61.518"/>
		
			<rect x="386.42" y="75.258" fill="none" stroke="#000000" stroke-width="0.5" stroke-miterlimit="10" width="55.638" height="6.269"/>
		
			<rect x="383.692" y="70.622" fill="none" stroke="#000000" stroke-width="0.5" stroke-miterlimit="10" width="60.819" height="4.636"/>
		<path fill="none" stroke="#000000" stroke-width="0.5" stroke-miterlimit="10" d="M441.375,70.622"/>
		<path fill="none" stroke="#000000" stroke-width="0.5" stroke-miterlimit="10" d="M385.737,70.622"/>
		<path fill="none" stroke="#000000" stroke-width="0.5" stroke-miterlimit="10" d="M385.737,70.622c0,0,18.273-7.637,23.728-7.637
			h9.273c8.318,0.681,22.637,7.637,22.637,7.637"/>
		
			<rect x="363.676" y="152.407" fill="none" stroke="#000000" stroke-width="0.5" stroke-miterlimit="10" width="100.005" height="59.635"/>
		
			<rect x="358.587" y="150.664" fill="none" stroke="#000000" stroke-width="0.5" stroke-miterlimit="10" width="110.183" height="1.815"/>
		
			<rect x="372.632" y="162.86" fill="none" stroke="#000000" stroke-width="0.5" stroke-miterlimit="10" width="82.093" height="38.728"/>
		
			<rect x="366.495" y="155.36" fill="none" stroke="#000000" stroke-width="0.5" stroke-miterlimit="10" width="94.366" height="53.729"/>
		<g>
			
				<circle fill="none" stroke="#000000" stroke-width="0.3" stroke-linejoin="round" stroke-miterlimit="10" cx="241.599" cy="434.809" r="4.772"/>
			<path fill="none" stroke="#000000" stroke-width="0.3" stroke-linejoin="round" stroke-miterlimit="10" d="M247.326,434.809
				c0,3.166-2.564,5.728-5.728,5.728c-3.165,0-5.727-2.562-5.727-5.728c0-3.162,2.562-5.728,5.727-5.728
				C244.762,429.082,247.326,431.647,247.326,434.809z"/>
		</g>
		<g>
			
				<circle fill="none" stroke="#000000" stroke-width="0.3" stroke-linejoin="round" stroke-miterlimit="10" cx="565.286" cy="425.775" r="4.772"/>
			<path fill="none" stroke="#000000" stroke-width="0.3" stroke-linejoin="round" stroke-miterlimit="10" d="M571.013,425.775
				c0,3.162-2.563,5.728-5.727,5.728c-3.165,0-5.728-2.565-5.728-5.728c0-3.166,2.562-5.727,5.728-5.727
				C568.449,420.048,571.013,422.609,571.013,425.775z"/>
		</g>
		<path fill="none" stroke="#000000" stroke-width="0.5" stroke-miterlimit="10" d="M200.779,426.082V376.99
			c0,0,5.091-1.091,5.818,8.728c0.728,9.819,1.454,40.365,1.454,40.365"/>
		
			<rect x="197.508" y="379.539" fill="none" stroke="#000000" stroke-width="0.3" stroke-linejoin="round" stroke-miterlimit="10" width="3.271" height="13.636"/>
		
			<rect x="195.507" y="377.902" fill="none" stroke="#000000" stroke-width="0.3" stroke-linejoin="round" stroke-miterlimit="10" width="2.001" height="16.91"/>
		
			<rect x="197.508" y="403.901" fill="none" stroke="#000000" stroke-width="0.3" stroke-linejoin="round" stroke-miterlimit="10" width="3.271" height="7.82"/>
		
			<rect x="195.507" y="402.448" fill="none" stroke="#000000" stroke-width="0.3" stroke-linejoin="round" stroke-miterlimit="10" width="2.001" height="11.088"/>
		
			<line fill="none" stroke="#000000" stroke-width="0.75" stroke-miterlimit="10" stroke-dasharray="0.7,2,0,0" x1="216.234" y1="287.171" x2="351.166" y2="287.171"/>
		
			<line fill="none" stroke="#000000" stroke-width="0.75" stroke-miterlimit="10" stroke-dasharray="0.7,5,0,0" x1="256.533" y1="430.628" x2="421.805" y2="430.628"/>
		<path fill="none" stroke="#000000" stroke-width="0.75" stroke-miterlimit="10" stroke-dasharray="0.7,5,0,0" d="M468.239,361.355
			"/>
		<path fill="none" stroke="#000000" stroke-width="0.75" stroke-miterlimit="10" stroke-dasharray="0.7,5,0,0" d="M468.239,287.171
			"/>
		<path fill="none" stroke="#000000" stroke-width="0.75" stroke-miterlimit="10" stroke-dasharray="0.7,5,0,0" d="M467.148,143.896
			"/>
		
			<line fill="none" stroke="#000000" stroke-width="0.75" stroke-miterlimit="10" stroke-dasharray="0.7,5,0,0" x1="363.679" y1="143.027" x2="475.406" y2="143.027"/>
		
			<line fill="none" stroke="#000000" stroke-width="0.75" stroke-miterlimit="10" stroke-dasharray="0.7,5,0,0" x1="363.679" y1="287.171" x2="475.406" y2="287.171"/>
		
			<line fill="none" stroke="#000000" stroke-width="0.75" stroke-miterlimit="10" stroke-dasharray="0.7,5,0,0" x1="363.679" y1="361.355" x2="475.406" y2="361.355"/>
		
			<line fill="none" stroke="#000000" stroke-width="0.75" stroke-miterlimit="10" stroke-dasharray="0.7,2,0,0" x1="473.389" y1="85.711" x2="473.389" y2="372"/>
		
			<line fill="none" stroke="#000000" stroke-width="0.75" stroke-miterlimit="10" stroke-dasharray="0.7,2,0,0" x1="592.517" y1="85.711" x2="592.517" y2="427.241"/>
		
			<line fill="none" stroke="#000000" stroke-width="0.75" stroke-miterlimit="10" stroke-dasharray="0.7,2,0,0" x1="352.908" y1="85.711" x2="352.908" y2="427.241"/>
		<polyline fill="none" stroke="#000000" stroke-width="0.5" stroke-miterlimit="10" points="973.707,430.628 1080.314,430.628 
			1101.995,435.905 		"/>
		<polyline fill="none" stroke="#000000" stroke-width="0.5" stroke-miterlimit="10" points="960.857,446.72 1010.101,446.725 
			1080.314,446.725 1098.11,442.902 		"/>
		<path fill="none" stroke="#000000" stroke-width="0.5" stroke-miterlimit="10" d="M925.493,435.905l-238.502,0.012H554.38h-2.11
			c-2.639-32.012-29.455-57.171-62.149-57.171c-32.7,0-59.52,25.164-62.153,57.185"/>
		<path fill="none" stroke="#000000" stroke-width="0.5" stroke-miterlimit="10" d="M552.27,435.917
			c0,11.349,6.066,10.803,6.066,10.803h128.655c0,0,208.702,0.005,238.502,0.005"/>
		<path fill="none" stroke="#000000" stroke-width="0.5" stroke-miterlimit="10" d="M211.325,426.082V278.443l12.545-99.82
			c0,0,13.093-97.093,139.64-97.093h323.481c87.092,0,149.228,0,149.228,0s117.821-2.181,128.185,106.366
			c10.363,108.548,9.272,93.274,9.272,93.274v152.096"/>
		<path fill="none" stroke="#000000" stroke-width="0.5" stroke-miterlimit="10" d="M1100.224,440.583
			c0-3.767,2.899-6.818,6.479-6.818c3.577,0,6.476,3.051,6.476,6.818h2.319v3.137h-17.387v-3.171L1100.224,440.583z"/>
		<polygon fill="none" stroke="#000000" stroke-width="0.3" stroke-linejoin="round" stroke-miterlimit="10" points="
			1087.814,431.72 1087.814,430.628 1082.088,428.993 1088.633,428.993 1101.995,432.265 1100.905,433.267 1100.243,435.479 
			1099.679,433.267 1088.77,430.628 		"/>
		
			<rect x="1062.588" y="390.081" fill="none" stroke="#000000" stroke-width="0.5" stroke-miterlimit="10" width="11.635" height="40.547"/>
		
			<rect x="1062.588" y="446.725" fill="none" stroke="#000000" stroke-width="0.5" stroke-miterlimit="10" width="11.635" height="6.813"/>
		
			<rect x="1063.132" y="453.538" fill="none" stroke="#000000" stroke-width="0.5" stroke-miterlimit="10" width="10.546" height="29.575"/>
		<polyline fill="none" stroke="#000000" stroke-width="0.3" stroke-linejoin="round" stroke-miterlimit="10" points="
			1070.496,390.081 1064.769,386.855 1066.678,383.855 1075.951,388.901 1086.86,386.173 1083.314,371.855 1086.86,370.764 
			1091.087,385.628 1091.087,386.037 1089.859,387.673 1074.223,391.765 		"/>
		
			<rect x="711.671" y="151.768" fill="none" stroke="#000000" stroke-width="0.5" stroke-miterlimit="10" width="118.183" height="2.617"/>
		<g>
			<path fill="none" stroke="#000000" stroke-width="0.3" stroke-linejoin="round" stroke-miterlimit="10" d="M952.544,170.443
				c-0.026,0.154-0.175,0.257-0.328,0.23l-13.944-2.466c-0.153-0.027-0.257-0.175-0.229-0.329l0.753-4.261
				c0.027-0.154,0.176-0.257,0.329-0.23l13.942,2.466c0.153,0.027,0.257,0.175,0.23,0.329L952.544,170.443z"/>
		</g>
		<g>
			<path fill="none" stroke="#000000" stroke-width="0.3" stroke-linejoin="round" stroke-miterlimit="10" d="M984.209,440.093
				c0,2.638-2.136,4.773-4.773,4.773c-2.634,0-4.773-2.135-4.773-4.773c0-2.633,2.14-4.772,4.773-4.772
				C982.073,435.321,984.209,437.46,984.209,440.093z"/>
			<path fill="none" stroke="#000000" stroke-width="0.3" stroke-linejoin="round" stroke-miterlimit="10" d="M985.163,440.093
				c0,3.167-2.563,5.728-5.728,5.728c-3.163,0-5.729-2.561-5.729-5.728c0-3.162,2.565-5.727,5.729-5.727
				C982.6,434.366,985.163,436.932,985.163,440.093z"/>
		</g>
		
			<rect x="925.493" y="433.467" fill="none" stroke="#000000" stroke-width="0.5" stroke-miterlimit="10" width="62.184" height="13.257"/>
		
			<rect x="987.677" y="435.321" fill="none" stroke="#000000" stroke-width="0.3" stroke-linejoin="round" stroke-miterlimit="10" width="1.998" height="10.172"/>
		
			<rect x="989.675" y="434.366" fill="none" stroke="#000000" stroke-width="0.3" stroke-linejoin="round" stroke-miterlimit="10" width="1.456" height="12.358"/>
		<g>
			<path fill="none" stroke="#000000" stroke-width="0.5" stroke-miterlimit="10" d="M708.578,249.534c0,0-3.954-0.137-3.954,3.955
				c0,4.091,0,8.046,0,8.046s-0.544,3.682,3.683,3.682c4.228,0,13.637,0,13.637,0l4.5-4.5v-6.273l-4.772-4.772L708.578,249.534z"/>
			<path fill="none" stroke="#000000" stroke-width="0.5" stroke-miterlimit="10" d="M704.624,254.443h3.954v-2.59
				c0,0,0.27-2.272,4.364-2.272"/>
			<path fill="none" stroke="#000000" stroke-width="0.3" stroke-miterlimit="10" d="M720.906,252.01c0,0.644-0.52,1.159-1.16,1.159
				s-1.159-0.516-1.159-1.159c0-0.639,0.519-1.159,1.159-1.159S720.906,251.371,720.906,252.01z"/>
			<path fill="none" stroke="#000000" stroke-width="0.5" stroke-miterlimit="10" d="M704.624,260.354h3.954v2.591
				c0,0,0.27,2.271,4.364,2.271"/>
			<circle fill="none" stroke="#000000" stroke-width="0.3" stroke-miterlimit="10" cx="719.747" cy="262.783" r="1.16"/>
			<circle fill="none" stroke="#000000" stroke-width="0.3" stroke-miterlimit="10" cx="723.92" cy="257.396" r="1.159"/>
			
				<rect x="706.217" y="252.01" fill="none" stroke="#000000" stroke-width="0.3" stroke-miterlimit="10" width="0.999" height="2.433"/>
			
				<rect x="706.217" y="260.354" fill="none" stroke="#000000" stroke-width="0.3" stroke-miterlimit="10" width="0.999" height="2.429"/>
		</g>
		<g>
			<path fill="none" stroke="#000000" stroke-width="0.5" stroke-miterlimit="10" d="M708.578,324.126c0,0-3.954-0.136-3.954,3.955
				c0,4.091,0,8.046,0,8.046s-0.544,3.682,3.683,3.682c4.228,0,13.637,0,13.637,0l4.5-4.5v-6.273l-4.772-4.773L708.578,324.126z"/>
			<path fill="none" stroke="#000000" stroke-width="0.5" stroke-miterlimit="10" d="M704.624,329.036h3.954v-2.591
				c0,0,0.27-2.271,4.364-2.271"/>
			<path fill="none" stroke="#000000" stroke-width="0.3" stroke-miterlimit="10" d="M720.906,326.603
				c0,0.644-0.52,1.159-1.16,1.159s-1.159-0.515-1.159-1.159c0-0.64,0.519-1.159,1.159-1.159S720.906,325.963,720.906,326.603z"/>
			<path fill="none" stroke="#000000" stroke-width="0.5" stroke-miterlimit="10" d="M704.624,334.946h3.954v2.591
				c0,0,0.27,2.271,4.364,2.271"/>
			<circle fill="none" stroke="#000000" stroke-width="0.3" stroke-miterlimit="10" cx="719.747" cy="337.375" r="1.16"/>
			<circle fill="none" stroke="#000000" stroke-width="0.3" stroke-miterlimit="10" cx="723.92" cy="331.989" r="1.159"/>
			
				<rect x="706.217" y="326.603" fill="none" stroke="#000000" stroke-width="0.3" stroke-miterlimit="10" width="0.999" height="2.433"/>
			
				<rect x="706.217" y="334.946" fill="none" stroke="#000000" stroke-width="0.3" stroke-miterlimit="10" width="0.999" height="2.429"/>
		</g>
		
			<line fill="none" stroke="#000000" stroke-width="0.5" stroke-miterlimit="10" x1="712.942" y1="324.126" x2="712.942" y2="265.216"/>
		<path fill="none" stroke="#000000" stroke-width="0.5" stroke-miterlimit="10" d="M712.942,339.809v49.932v39.005h115.64V191.169
			h-0.014c0,0,2.183-34.94-50.455-34.94h-14.715c-52.638,0-50.456,34.94-50.456,34.94v58.365"/>
		<g>
			<path fill="none" stroke="#000000" stroke-width="0.5" stroke-miterlimit="10" d="M819.326,303.758
				c0,0.468-0.383,0.851-0.851,0.851h-23.968c-0.468,0-0.851-0.383-0.851-0.851v-13.005c0-0.468,0.383-0.851,0.851-0.851h23.968
				c0.468,0,0.851,0.383,0.851,0.851V303.758z"/>
		</g>
		<path fill="none" stroke="#000000" stroke-width="0.3" stroke-miterlimit="10" d="M810.49,295.898l4.363-0.089
			c2.548,0,2.058,1.449,2.058,1.449s0,3.366,0,4.64c0,1.275-1.603,1.275-1.603,1.275h-16.162c-3.073-1.44-2.747-2.728-2.747-2.728
			v-6.912c0,0-0.003-2.088,2.001-2.088c1.998,0,10.909,0,10.909,0s1.181-0.004,1.181,2.088s0,3.725,0,3.725s0.938,0.46-1.939,1.095
			c-2.879,0.635-10.15,1.636-10.15,1.636s-1.661,0.648-1.132,2.021"/>
		<circle fill="none" stroke="#000000" stroke-width="0.3" stroke-miterlimit="10" cx="813.717" cy="293.035" r="1.5"/>
		
			<line fill="none" stroke="#000000" stroke-width="0.75" stroke-miterlimit="10" stroke-dasharray="0.7,2,0,0" x1="832.399" y1="287.171" x2="970.06" y2="287.171"/>
		
			<line fill="none" stroke="#000000" stroke-width="0.75" stroke-miterlimit="10" stroke-dasharray="0.7,5,0,0" x1="832.399" y1="430.628" x2="970.06" y2="430.628"/>
		
			<line fill="none" stroke="#000000" stroke-width="0.75" stroke-miterlimit="10" stroke-dasharray="0.7,5,0,0" x1="573.487" y1="430.628" x2="698.802" y2="430.628"/>
		
			<line fill="none" stroke="#000000" stroke-width="0.75" stroke-miterlimit="10" stroke-dasharray="0.7,5,0,0" x1="600.352" y1="361.355" x2="710.941" y2="361.355"/>
		
			<line fill="none" stroke="#000000" stroke-width="0.75" stroke-miterlimit="10" stroke-dasharray="0.7,5,0,0" x1="600.352" y1="287.171" x2="710.941" y2="287.171"/>
		
			<line fill="none" stroke="#000000" stroke-width="0.75" stroke-miterlimit="10" stroke-dasharray="0.7,5,0,0" x1="600.352" y1="217.88" x2="710.941" y2="217.88"/>
		
			<line fill="none" stroke="#000000" stroke-width="0.75" stroke-miterlimit="10" stroke-dasharray="0.7,5,0,0" x1="600.352" y1="144.123" x2="710.941" y2="144.123"/>
		
			<line fill="none" stroke="#000000" stroke-width="0.75" stroke-miterlimit="10" stroke-dasharray="0.7,5,0,0" x1="482.516" y1="361.355" x2="593.107" y2="361.355"/>
		
			<line fill="none" stroke="#000000" stroke-width="0.75" stroke-miterlimit="10" stroke-dasharray="0.7,5,0,0" x1="482.516" y1="287.171" x2="593.107" y2="287.171"/>
		
			<line fill="none" stroke="#000000" stroke-width="0.75" stroke-miterlimit="10" stroke-dasharray="0.7,5,0,0" x1="482.516" y1="217.88" x2="593.107" y2="217.88"/>
		
			<line fill="none" stroke="#000000" stroke-width="0.75" stroke-miterlimit="10" stroke-dasharray="0.7,5,0,0" x1="482.516" y1="144.123" x2="593.107" y2="144.123"/>
		
			<line fill="none" stroke="#000000" stroke-width="0.75" stroke-miterlimit="10" stroke-dasharray="0.7,5,0,0" x1="726.443" y1="361.355" x2="816.951" y2="361.355"/>
		
			<line fill="none" stroke="#000000" stroke-width="0.75" stroke-miterlimit="10" stroke-dasharray="0.7,5,0,0" x1="726.443" y1="287.171" x2="816.951" y2="287.171"/>
		
			<line fill="none" stroke="#000000" stroke-width="0.75" stroke-miterlimit="10" stroke-dasharray="0.7,5,0,0" x1="726.443" y1="217.714" x2="816.951" y2="217.714"/>
		
			<line fill="none" stroke="#000000" stroke-width="0.75" stroke-miterlimit="10" stroke-dasharray="0.7,5,0,0" x1="719.807" y1="143.896" x2="826.4" y2="143.896"/>
		
			<line fill="none" stroke="#000000" stroke-width="0.75" stroke-miterlimit="10" stroke-dasharray="0.7,2,0,0" x1="712.942" y1="84.62" x2="712.942" y2="176.638"/>
		
			<line fill="none" stroke="#000000" stroke-width="0.75" stroke-miterlimit="10" stroke-dasharray="0.7,2,0,0" x1="828.582" y1="84.62" x2="828.582" y2="176.638"/>
		<path fill="none" stroke="#000000" stroke-width="0.75" stroke-miterlimit="10" stroke-dasharray="0.7,5,0,0" d="M718.579,187.167
			c0,0,9.094-26.544,40.002-26.544c30.909,0,26.545,0,26.545,0s37.091,5.276,37.091,26.544"/>
		<g>
			<g>
				
					<line fill="none" stroke="#000000" stroke-width="0.75" stroke-miterlimit="10" x1="832.399" y1="223.897" x2="832.748" y2="223.866"/>
				
					<line fill="none" stroke="#000000" stroke-width="0.75" stroke-miterlimit="10" stroke-dasharray="0,0" x1="834.728" y1="223.689" x2="834.737" y2="223.688"/>
				
					<line fill="none" stroke="#000000" stroke-width="0.75" stroke-miterlimit="10" stroke-dasharray="0.6991,1.9876,0,0" x1="834.737" y1="223.688" x2="966.349" y2="211.894"/>
				
					<line fill="none" stroke="#000000" stroke-width="0.75" stroke-miterlimit="10" x1="966.349" y1="211.894" x2="966.697" y2="211.863"/>
			</g>
		</g>
		<g>
			<g>
				
					<line fill="none" stroke="#000000" stroke-width="0.75" stroke-miterlimit="10" x1="832.399" y1="208.625" x2="832.749" y2="208.61"/>
				
					<line fill="none" stroke="#000000" stroke-width="0.75" stroke-miterlimit="10" stroke-dasharray="0.0101,0" x1="834.757" y1="208.528" x2="834.767" y2="208.528"/>
				
					<line fill="none" stroke="#000000" stroke-width="0.75" stroke-miterlimit="10" stroke-dasharray="0.7068,2.0093,0.0101,0" x1="834.767" y1="208.528" x2="965.514" y2="203.184"/>
				
					<line fill="none" stroke="#000000" stroke-width="0.75" stroke-miterlimit="10" x1="965.514" y1="203.184" x2="965.863" y2="203.169"/>
			</g>
		</g>
		<g>
			<g>
				
					<line fill="none" stroke="#000000" stroke-width="0.75" stroke-miterlimit="10" x1="832.399" y1="192.26" x2="832.749" y2="192.265"/>
				
					<line fill="none" stroke="#000000" stroke-width="0.75" stroke-miterlimit="10" stroke-dasharray="0.01,0" x1="834.744" y1="192.292" x2="834.754" y2="192.293"/>
				
					<line fill="none" stroke="#000000" stroke-width="0.75" stroke-miterlimit="10" stroke-dasharray="0.7016,1.9947,0.01,0" x1="834.754" y1="192.293" x2="964.646" y2="194.087"/>
				
					<line fill="none" stroke="#000000" stroke-width="0.75" stroke-miterlimit="10" x1="964.646" y1="194.087" x2="964.995" y2="194.092"/>
			</g>
		</g>
		<g>
			<g>
				
					<line fill="none" stroke="#000000" stroke-width="0.75" stroke-miterlimit="10" x1="963.731" y1="184.645" x2="963.382" y2="184.624"/>
				
					<line fill="none" stroke="#000000" stroke-width="0.75" stroke-miterlimit="10" stroke-dasharray="0,0" x1="961.406" y1="184.503" x2="961.396" y2="184.502"/>
				
					<line fill="none" stroke="#000000" stroke-width="0.75" stroke-miterlimit="10" stroke-dasharray="0.6961,1.979,0,0" x1="961.396" y1="184.502" x2="832.749" y2="176.659"/>
				
					<line fill="none" stroke="#000000" stroke-width="0.75" stroke-miterlimit="10" x1="832.749" y1="176.659" x2="832.399" y2="176.638"/>
			</g>
		</g>
		<g>
			<g>
				
					<line fill="none" stroke="#000000" stroke-width="0.75" stroke-miterlimit="10" x1="832.399" y1="162.076" x2="832.748" y2="162.11"/>
				
					<line fill="none" stroke="#000000" stroke-width="0.75" stroke-miterlimit="10" stroke-dasharray="0.0101,0" x1="834.739" y1="162.304" x2="834.749" y2="162.305"/>
				
					<line fill="none" stroke="#000000" stroke-width="0.75" stroke-miterlimit="10" stroke-dasharray="0.7038,2.0007,0.0101,0" x1="834.749" y1="162.305" x2="961.731" y2="174.681"/>
				
					<line fill="none" stroke="#000000" stroke-width="0.75" stroke-miterlimit="10" x1="961.731" y1="174.681" x2="962.08" y2="174.715"/>
			</g>
		</g>
		<g>
			<g>
				<path fill="none" stroke="#000000" stroke-width="0.75" stroke-miterlimit="10" d="M832.399,88.622c0,0,0.116-0.011,0.345-0.025
					"/>
				
					<line fill="none" stroke="#000000" stroke-width="0.75" stroke-miterlimit="10" stroke-dasharray="0,0" x1="834.707" y1="88.528" x2="834.715" y2="88.528"/>
				<path fill="none" stroke="#000000" stroke-width="0.75" stroke-miterlimit="10" stroke-dasharray="0.692,1.9673,0,0" d="
					M834.715,88.528c9.841-0.139,50.274,1.819,106.535,38.688"/>
				<path fill="none" stroke="#000000" stroke-width="0.75" stroke-miterlimit="10" d="M941.258,127.222
					c0.098,0.064,0.195,0.128,0.293,0.192"/>
			</g>
		</g>
		<g>
			<g>
				<path fill="none" stroke="#000000" stroke-width="0.75" stroke-miterlimit="10" d="M946.6,136.26c0,0-0.103-0.056-0.305-0.163"
					/>
				
					<line fill="none" stroke="#000000" stroke-width="0.75" stroke-miterlimit="10" stroke-dasharray="0.0101,0" x1="944.515" y1="135.166" x2="944.508" y2="135.162"/>
				<path fill="none" stroke="#000000" stroke-width="0.75" stroke-miterlimit="10" stroke-dasharray="0.7076,2.0116,0.0101,0" d="
					M944.508,135.162c-10.979-5.66-63.297-31.341-111.748-33.075"/>
				<path fill="none" stroke="#000000" stroke-width="0.75" stroke-miterlimit="10" d="M832.749,102.087
					c-0.116-0.004-0.233-0.008-0.35-0.012"/>
			</g>
		</g>
		<g>
			<g>
				<path fill="none" stroke="#000000" stroke-width="0.75" stroke-miterlimit="10" d="M953.775,147.276
					c0,0-0.104-0.055-0.306-0.161"/>
				
					<line fill="none" stroke="#000000" stroke-width="0.75" stroke-miterlimit="10" stroke-dasharray="0,0" x1="951.709" y1="146.22" x2="951.702" y2="146.216"/>
				<path fill="none" stroke="#000000" stroke-width="0.75" stroke-miterlimit="10" stroke-dasharray="0.6958,1.9781,0,0" d="
					M951.702,146.216c-10.727-5.349-61.628-29.131-118.944-29.23"/>
				<path fill="none" stroke="#000000" stroke-width="0.75" stroke-miterlimit="10" d="M832.749,116.986c-0.116,0-0.233,0-0.35,0"/>
			</g>
		</g>
		<g>
			<g>
				<path fill="none" stroke="#000000" stroke-width="0.75" stroke-miterlimit="10" d="M957.444,156.114c0,0-0.11-0.039-0.326-0.113
					"/>
				
					<line fill="none" stroke="#000000" stroke-width="0.75" stroke-miterlimit="10" stroke-dasharray="0.0101,0" x1="955.222" y1="155.361" x2="955.213" y2="155.359"/>
				<path fill="none" stroke="#000000" stroke-width="0.75" stroke-miterlimit="10" stroke-dasharray="0.705,2.0042,0.0101,0" d="
					M955.213,155.359c-12.202-4.063-72.154-23.137-122.454-23.228"/>
				<path fill="none" stroke="#000000" stroke-width="0.75" stroke-miterlimit="10" d="M832.749,132.131c-0.116,0-0.233,0-0.35,0"/>
			</g>
		</g>
		<g>
			<g>
				<path fill="none" stroke="#000000" stroke-width="0.75" stroke-miterlimit="10" d="M960.115,164.437
					c0,0-0.115-0.022-0.339-0.066"/>
				
					<line fill="none" stroke="#000000" stroke-width="0.75" stroke-miterlimit="10" stroke-dasharray="0,0" x1="957.834" y1="163.996" x2="957.826" y2="163.994"/>
				<path fill="none" stroke="#000000" stroke-width="0.75" stroke-miterlimit="10" stroke-dasharray="0.6967,1.9807,0,0" d="
					M957.826,163.994c-13.979-2.681-88.442-16.627-125.068-16.718"/>
				<path fill="none" stroke="#000000" stroke-width="0.75" stroke-miterlimit="10" d="M832.748,147.276c-0.116,0-0.232,0-0.349,0"
					/>
			</g>
		</g>
		<g>
			<path fill="none" stroke="#000000" stroke-width="0.3" stroke-linejoin="round" stroke-miterlimit="10" d="M231.941,170.443
				c0.027,0.154,0.175,0.257,0.329,0.23l13.944-2.466c0.154-0.027,0.257-0.175,0.23-0.329l-0.754-4.261
				c-0.027-0.154-0.175-0.257-0.329-0.23l-13.943,2.466c-0.154,0.027-0.257,0.175-0.23,0.329L231.941,170.443z"/>
		</g>
		<g>
			<g>
				
					<line fill="none" stroke="#000000" stroke-width="0.75" stroke-miterlimit="10" x1="349.501" y1="223.897" x2="349.152" y2="223.865"/>
				
					<line fill="none" stroke="#000000" stroke-width="0.75" stroke-miterlimit="10" stroke-dasharray="0.0101,0" x1="347.159" y1="223.68" x2="347.149" y2="223.679"/>
				
					<line fill="none" stroke="#000000" stroke-width="0.75" stroke-miterlimit="10" stroke-dasharray="0.7042,2.0018,0.0101,0" x1="347.149" y1="223.679" x2="220.041" y2="211.895"/>
				
					<line fill="none" stroke="#000000" stroke-width="0.75" stroke-miterlimit="10" x1="220.041" y1="211.895" x2="219.692" y2="211.863"/>
			</g>
		</g>
		<g>
			<g>
				
					<line fill="none" stroke="#000000" stroke-width="0.75" stroke-miterlimit="10" x1="349.501" y1="208.625" x2="349.151" y2="208.61"/>
				
					<line fill="none" stroke="#000000" stroke-width="0.75" stroke-miterlimit="10" stroke-dasharray="0,0" x1="347.174" y1="208.529" x2="347.165" y2="208.529"/>
				
					<line fill="none" stroke="#000000" stroke-width="0.75" stroke-miterlimit="10" stroke-dasharray="0.6959,1.9784,0,0" x1="347.165" y1="208.529" x2="221.111" y2="203.375"/>
				
					<line fill="none" stroke="#000000" stroke-width="0.75" stroke-miterlimit="10" x1="221.111" y1="203.375" x2="220.762" y2="203.361"/>
			</g>
		</g>
		<g>
			<g>
				
					<line fill="none" stroke="#000000" stroke-width="0.75" stroke-miterlimit="10" x1="349.501" y1="192.26" x2="349.151" y2="192.266"/>
				
					<line fill="none" stroke="#000000" stroke-width="0.75" stroke-miterlimit="10" stroke-dasharray="0.01,0" x1="347.152" y1="192.3" x2="347.142" y2="192.301"/>
				
					<line fill="none" stroke="#000000" stroke-width="0.75" stroke-miterlimit="10" stroke-dasharray="0.7032,1.9991,0.01,0" x1="347.142" y1="192.301" x2="222.391" y2="194.436"/>
				
					<line fill="none" stroke="#000000" stroke-width="0.75" stroke-miterlimit="10" x1="222.391" y1="194.436" x2="222.041" y2="194.442"/>
			</g>
		</g>
		<g>
			<g>
				
					<line fill="none" stroke="#000000" stroke-width="0.75" stroke-miterlimit="10" x1="223.152" y1="184.342" x2="223.501" y2="184.321"/>
				
					<line fill="none" stroke="#000000" stroke-width="0.75" stroke-miterlimit="10" stroke-dasharray="0,0" x1="225.483" y1="184.2" x2="225.493" y2="184.2"/>
				
					<line fill="none" stroke="#000000" stroke-width="0.75" stroke-miterlimit="10" stroke-dasharray="0.6982,1.985,0,0" x1="225.493" y1="184.2" x2="349.152" y2="176.659"/>
				
					<line fill="none" stroke="#000000" stroke-width="0.75" stroke-miterlimit="10" x1="349.152" y1="176.659" x2="349.501" y2="176.638"/>
			</g>
		</g>
		<g>
			<g>
				
					<line fill="none" stroke="#000000" stroke-width="0.75" stroke-miterlimit="10" x1="349.501" y1="162.076" x2="349.153" y2="162.11"/>
				
					<line fill="none" stroke="#000000" stroke-width="0.75" stroke-miterlimit="10" stroke-dasharray="0.0101,0" x1="347.153" y1="162.305" x2="347.144" y2="162.306"/>
				
					<line fill="none" stroke="#000000" stroke-width="0.75" stroke-miterlimit="10" stroke-dasharray="0.7066,2.0087,0.0101,0" x1="347.144" y1="162.306" x2="225.078" y2="174.204"/>
				
					<line fill="none" stroke="#000000" stroke-width="0.75" stroke-miterlimit="10" x1="225.078" y1="174.204" x2="224.729" y2="174.238"/>
			</g>
		</g>
		<g>
			<g>
				<path fill="none" stroke="#000000" stroke-width="0.75" stroke-miterlimit="10" d="M349.501,88.894c0,0-0.116-0.001-0.345,0.002
					"/>
				
					<line fill="none" stroke="#000000" stroke-width="0.75" stroke-miterlimit="10" stroke-dasharray="0.0101,0" x1="347.152" y1="88.979" x2="347.144" y2="88.979"/>
				<path fill="none" stroke="#000000" stroke-width="0.75" stroke-miterlimit="10" stroke-dasharray="0.7063,2.0079,0.0101,0" d="
					M347.144,88.979c-9.316,0.556-45.545,4.713-96.241,35.699"/>
				<path fill="none" stroke="#000000" stroke-width="0.75" stroke-miterlimit="10" d="M250.896,124.683
					c-0.1,0.061-0.199,0.122-0.299,0.183"/>
			</g>
		</g>
		<g>
			<g>
				<path fill="none" stroke="#000000" stroke-width="0.75" stroke-miterlimit="10" d="M244.658,132.131
					c0,0,0.102-0.058,0.302-0.167"/>
				
					<line fill="none" stroke="#000000" stroke-width="0.75" stroke-miterlimit="10" stroke-dasharray="0,0" x1="246.7" y1="131.032" x2="246.707" y2="131.028"/>
				<path fill="none" stroke="#000000" stroke-width="0.75" stroke-miterlimit="10" stroke-dasharray="0.6951,1.976,0,0" d="
					M246.707,131.028c9.923-5.217,54.473-27.239,102.432-28.941"/>
				<path fill="none" stroke="#000000" stroke-width="0.75" stroke-miterlimit="10" d="M349.151,102.087
					c0.116-0.004,0.233-0.008,0.35-0.012"/>
			</g>
		</g>
		<g>
			<g>
				<path fill="none" stroke="#000000" stroke-width="0.75" stroke-miterlimit="10" d="M236.23,145.068c0,0,0.103-0.055,0.306-0.161
					"/>
				<path fill="none" stroke="#000000" stroke-width="0.75" stroke-miterlimit="10" stroke-dasharray="0.6933,1.971,0,0" d="
					M238.298,144.014c10.254-5.096,57.303-26.931,110.843-27.028"/>
				<path fill="none" stroke="#000000" stroke-width="0.75" stroke-miterlimit="10" d="M349.151,116.986c0.117,0,0.233,0,0.35,0"/>
			</g>
		</g>
		<g>
			<g>
				<path fill="none" stroke="#000000" stroke-width="0.75" stroke-miterlimit="10" d="M231.139,155.266c0,0,0.11-0.04,0.325-0.117"
					/>
				
					<line fill="none" stroke="#000000" stroke-width="0.75" stroke-miterlimit="10" stroke-dasharray="0,0" x1="233.333" y1="154.494" x2="233.342" y2="154.491"/>
				<path fill="none" stroke="#000000" stroke-width="0.75" stroke-miterlimit="10" stroke-dasharray="0.6977,1.9834,0,0" d="
					M233.342,154.491c11.627-4.02,67.171-22.3,115.801-22.36"/>
				<path fill="none" stroke="#000000" stroke-width="0.75" stroke-miterlimit="10" d="M349.151,132.131c0.117,0,0.233,0,0.35,0"/>
			</g>
		</g>
		<g>
			<g>
				<path fill="none" stroke="#000000" stroke-width="0.75" stroke-miterlimit="10" d="M227.965,163.257
					c0,0,0.115-0.022,0.339-0.066"/>
				
					<line fill="none" stroke="#000000" stroke-width="0.75" stroke-miterlimit="10" stroke-dasharray="0.0101,0" x1="230.274" y1="162.81" x2="230.284" y2="162.808"/>
				<path fill="none" stroke="#000000" stroke-width="0.75" stroke-miterlimit="10" stroke-dasharray="0.707,2.01,0.0101,0" d="
					M230.284,162.808c13.483-2.583,82.444-15.448,118.862-15.532"/>
				<path fill="none" stroke="#000000" stroke-width="0.75" stroke-miterlimit="10" d="M349.155,147.276c0.116,0,0.231,0,0.346,0"/>
			</g>
		</g>
		<g>
			<path fill="none" stroke="#000000" stroke-width="0.3" stroke-linejoin="round" stroke-miterlimit="10" d="M504.026,428.72
				c0,7.679-6.228,13.91-13.907,13.91c-7.683,0-13.911-6.23-13.911-13.91c0-7.684,6.229-13.909,13.911-13.909
				C497.799,414.811,504.026,421.036,504.026,428.72z"/>
			
				<circle fill="none" stroke="#000000" stroke-width="0.5" stroke-linejoin="round" stroke-miterlimit="10" cx="490.118" cy="428.72" r="4.159"/>
			
				<circle fill="none" stroke="#000000" stroke-width="0.3" stroke-linejoin="round" stroke-miterlimit="10" cx="490.118" cy="428.72" r="7.773"/>
			<g>
				<polygon fill="none" stroke="#000000" stroke-width="0.25" stroke-linejoin="round" stroke-miterlimit="10" points="
					489.169,419.737 488.22,418.091 489.169,416.447 491.066,416.447 492.016,418.091 491.066,419.737 				"/>
				
					<circle fill="none" stroke="#000000" stroke-width="0.25" stroke-linejoin="round" stroke-miterlimit="10" cx="490.118" cy="418.091" r="0.613"/>
			</g>
			<g>
				<polygon fill="none" stroke="#000000" stroke-width="0.25" stroke-linejoin="round" stroke-miterlimit="10" points="
					498.366,425.038 499.638,423.627 501.494,424.023 502.082,425.826 500.812,427.241 498.954,426.845 				"/>
				<path fill="none" stroke="#000000" stroke-width="0.25" stroke-linejoin="round" stroke-miterlimit="10" d="M500.414,426.018
					c-0.322,0.103-0.668-0.072-0.773-0.396c-0.105-0.319,0.071-0.669,0.394-0.771c0.322-0.107,0.669,0.073,0.774,0.392
					C500.914,425.566,500.734,425.912,500.414,426.018z"/>
			</g>
			<g>
				<polygon fill="none" stroke="#000000" stroke-width="0.25" stroke-linejoin="round" stroke-miterlimit="10" points="
					496.166,435.427 497.901,436.199 498.102,438.086 496.566,439.203 494.83,438.432 494.628,436.543 				"/>
				
					<circle fill="none" stroke="#000000" stroke-width="0.25" stroke-linejoin="round" stroke-miterlimit="10" cx="496.365" cy="437.313" r="0.613"/>
			</g>
			<g>
				<polygon fill="none" stroke="#000000" stroke-width="0.25" stroke-linejoin="round" stroke-miterlimit="10" points="
					485.609,436.543 485.409,438.432 483.674,439.208 482.139,438.09 482.336,436.199 484.07,435.427 				"/>
				<path fill="none" stroke="#000000" stroke-width="0.25" stroke-linejoin="round" stroke-miterlimit="10" d="M483.378,436.953
					c0.199-0.272,0.581-0.333,0.856-0.132c0.273,0.197,0.335,0.584,0.137,0.857c-0.199,0.272-0.583,0.332-0.856,0.136
					C483.238,437.613,483.178,437.229,483.378,436.953z"/>
			</g>
			<g>
				<polygon fill="none" stroke="#000000" stroke-width="0.25" stroke-linejoin="round" stroke-miterlimit="10" points="
					481.282,426.849 479.424,427.241 478.151,425.831 478.738,424.023 480.597,423.627 481.87,425.038 				"/>
				<path fill="none" stroke="#000000" stroke-width="0.25" stroke-linejoin="round" stroke-miterlimit="10" d="M480.204,424.854
					c0.319,0.103,0.494,0.452,0.392,0.772c-0.104,0.319-0.451,0.498-0.775,0.396c-0.32-0.107-0.496-0.452-0.394-0.776
					C479.53,424.923,479.88,424.749,480.204,424.854z"/>
			</g>
			<path fill="none" stroke="#000000" stroke-width="0.5" stroke-linejoin="round" stroke-miterlimit="10" d="M506.847,428.72
				c0,9.239-7.492,16.726-16.728,16.726c-9.238,0-16.73-7.487-16.73-16.726s7.492-16.727,16.73-16.727
				C499.354,411.993,506.847,419.481,506.847,428.72z"/>
			
				<circle fill="none" stroke="#000000" stroke-width="0.3" stroke-linejoin="round" stroke-miterlimit="10" cx="490.118" cy="404.677" r="3.364"/>
			<path fill="none" stroke="#000000" stroke-width="0.3" stroke-linejoin="round" stroke-miterlimit="10" d="M506.973,411.248
				c-1.094,1.504-3.195,1.837-4.699,0.746c-1.502-1.095-1.834-3.196-0.741-4.7c1.091-1.5,3.196-1.833,4.698-0.742
				C507.732,407.642,508.064,409.748,506.973,411.248z"/>
			<path fill="none" stroke="#000000" stroke-width="0.3" stroke-linejoin="round" stroke-miterlimit="10" d="M514.022,424.497
				c-1.768,0.571-3.663-0.397-4.236-2.161c-0.574-1.769,0.394-3.665,2.161-4.236c1.765-0.576,3.663,0.392,4.238,2.16
				C516.759,422.029,515.791,423.925,514.022,424.497z"/>
			<path fill="none" stroke="#000000" stroke-width="0.3" stroke-linejoin="round" stroke-miterlimit="10" d="M511.939,439.356
				c-1.77-0.575-2.733-2.471-2.159-4.24c0.575-1.764,2.475-2.732,4.238-2.152c1.766,0.571,2.731,2.472,2.159,4.24
				C515.599,438.968,513.703,439.936,511.939,439.356z"/>
			<path fill="none" stroke="#000000" stroke-width="0.3" stroke-linejoin="round" stroke-miterlimit="10" d="M501.516,450.15
				c-1.091-1.504-0.759-3.604,0.746-4.696c1.503-1.091,3.604-0.754,4.695,0.75c1.091,1.5,0.754,3.605-0.748,4.696
				C504.702,451.991,502.602,451.659,501.516,450.15z"/>
			<path fill="none" stroke="#000000" stroke-width="0.3" stroke-linejoin="round" stroke-miterlimit="10" d="M486.736,452.754
				c0-1.858,1.509-3.362,3.366-3.358c1.858,0,3.358,1.508,3.354,3.367c0,1.858-1.507,3.358-3.367,3.362
				C488.232,456.121,486.728,454.613,486.736,452.754z"/>
			<path fill="none" stroke="#000000" stroke-width="0.3" stroke-linejoin="round" stroke-miterlimit="10" d="M473.252,446.17
				c1.092-1.5,3.194-1.828,4.697-0.737c1.501,1.094,1.828,3.195,0.733,4.696c-1.092,1.504-3.194,1.833-4.7,0.741
				C472.481,449.776,472.154,447.674,473.252,446.17z"/>
			<path fill="none" stroke="#000000" stroke-width="0.3" stroke-linejoin="round" stroke-miterlimit="10" d="M466.213,432.921
				c1.769-0.575,3.66,0.396,4.231,2.165c0.573,1.764-0.396,3.656-2.164,4.231c-1.767,0.571-3.662-0.396-4.24-2.165
				C463.474,435.385,464.441,433.488,466.213,432.921z"/>
			<path fill="none" stroke="#000000" stroke-width="0.3" stroke-linejoin="round" stroke-miterlimit="10" d="M468.311,418.062
				c1.768,0.575,2.73,2.476,2.152,4.24c-0.576,1.769-2.473,2.728-4.241,2.152c-1.764-0.579-2.729-2.475-2.156-4.244
				C464.646,418.445,466.541,417.478,468.311,418.062z"/>
			<path fill="none" stroke="#000000" stroke-width="0.3" stroke-linejoin="round" stroke-miterlimit="10" d="M478.742,407.276
				c1.09,1.504,0.754,3.609-0.751,4.696c-1.503,1.091-3.604,0.75-4.695-0.754c-1.087-1.504-0.75-3.605,0.752-4.701
				C475.555,405.431,477.655,405.767,478.742,407.276z"/>
			
				<circle fill="none" stroke="#000000" stroke-width="0.25" stroke-linejoin="round" stroke-miterlimit="10" cx="490.117" cy="428.72" r="30.273"/>
		</g>
	</g>
	<g>
		<g>
			<polygon fill="#666666" points="124.819,483.352 107.638,483.352 107.638,62.678 124.819,62.678 124.819,63.223 108.183,63.223 
				108.183,482.806 124.819,482.806 			"/>
			<polygon fill="#666666" points="169.002,483.352 151.82,483.352 151.82,62.678 169.002,62.678 169.002,63.223 152.365,63.223 
				152.365,482.806 169.002,482.806 			"/>
			<polygon fill="#666666" points="1115.497,515.067 195.871,515.067 195.871,497.885 196.536,497.885 196.536,514.522 
				1114.832,514.522 1114.832,497.885 1115.497,497.885 			"/>
			<rect x="152.093" y="81.219" fill="#666666" width="16.909" height="0.545"/>
			<rect x="152.093" y="445.517" fill="#666666" width="16.909" height="0.545"/>
			<rect x="973.436" y="497.885" fill="#666666" width="0.546" height="16.91"/>
			<rect x="489.824" y="497.885" fill="#666666" width="0.546" height="16.91"/>
			<rect x="712.936" y="383.082" fill="#666666" width="115.64" height="0.545"/>
			<rect x="782.276" y="156.195" fill="#666666" width="0.546" height="272.49"/>
			<polygon fill="#666666" points="494.804,213.149 484.349,213.149 484.349,212.604 494.258,212.604 494.258,153.587 
				484.349,153.587 484.349,153.042 494.804,153.042 			"/>
			<polygon fill="#666666" points="463.681,238.303 363.133,238.303 363.133,227.848 363.679,227.848 363.679,237.757 
				463.135,237.757 463.135,227.848 463.681,227.848 			"/>
			<polygon fill="#666666" points="1115.497,542.068 195.871,542.068 195.871,524.886 196.536,524.886 196.536,541.522 
				1114.832,541.522 1114.832,524.886 1115.497,524.886 			"/>
		</g>
		<g>
			<text transform="matrix(0 -1 1 0 146.7568 88.0278)"><tspan x="0" y="0" fill="#666666" font-family="'mplus-1m-light'" font-size="19.6368">12</tspan><tspan x="18.733" y="0" fill="#666666" font-family="'mplus-1m-light'" font-size="19.6368" letter-spacing="1">0</tspan></text>
			
				<text transform="matrix(0 -1 1 0 146.7568 290.937)" fill="#666666" font-family="'mplus-1m-light'" font-size="19.6368" letter-spacing="1">2340</text>
			
				<text transform="matrix(1 0 0 1 708.9863 509.1157)" fill="#666666" font-family="'mplus-1m-light'" font-size="19.6368" letter-spacing="1">3000</text>
			
				<text transform="matrix(1 0 0 1 730.7988 378.7485)" fill="#666666" font-family="'mplus-1m-light'" font-size="19.6368" letter-spacing="1">735</text>
			
				<text transform="matrix(1 0 0 1 318.0781 509.1157)" fill="#666666" font-family="'mplus-1m-light'" font-size="19.6368" letter-spacing="1">2050</text>
			
				<text transform="matrix(1 0 0 1 1027.3008 509.1157)" fill="#666666" font-family="'mplus-1m-light'" font-size="19.6368" letter-spacing="1">900</text>
			
				<text transform="matrix(1 0 0 1 633.0244 536.7529)" fill="#666666" font-family="'mplus-1m-light'" font-size="19.6368" letter-spacing="1">5950</text>
			
				<text transform="matrix(0 -1 1 0 102.3906 290.937)" fill="#666666" font-family="'mplus-1m-light'" font-size="19.6368" letter-spacing="1">2740</text>
			
				<text transform="matrix(0 -1 1 0 146.7568 481.4976)" fill="#666666" font-family="'mplus-1m-light'" font-size="19.6368" letter-spacing="1">280</text>
			
				<text transform="matrix(0 -1 1 0 777.2402 282.3521)" fill="#666666" font-family="'mplus-1m-light'" font-size="19.6368" letter-spacing="1">1765</text>
			
				<text transform="matrix(0 -1 1 0 490.5352 200.0884)" fill="#666666" font-family="'mplus-1m-light'" font-size="19.6368" letter-spacing="1">380</text>
			
				<text transform="matrix(1 0 0 1 396.4102 233.1362)" fill="#666666" font-family="'mplus-1m-light'" font-size="19.6368" letter-spacing="1">630</text>
		</g>
	</g>
</g>
</svg>
