<?xml version="1.0" encoding="utf-8"?>
<!-- Generator: Adobe Illustrator 16.0.4, SVG Export Plug-In . SVG Version: 6.00 Build 0)  -->
<!DOCTYPE svg PUBLIC "-//W3C//DTD SVG 1.1//EN" "http://www.w3.org/Graphics/SVG/1.1/DTD/svg11.dtd">
<svg version="1.1" id="レイヤー_1" xmlns="http://www.w3.org/2000/svg" xmlns:xlink="http://www.w3.org/1999/xlink" x="0px"
	 y="0px" width="1201px" height="601px" viewBox="0 0 1201 601" enable-background="new 0 0 1201 601" xml:space="preserve">
<g>
	<g>
		<path fill="none" stroke="#231815" stroke-width="0.5" stroke-miterlimit="10" d="M332.358,435.871h142.913v6.182
			c0,0,1.092,3.637-5.455,3.637c-6.545,0-137.458-2.183-137.458-2.183V435.871z"/>
		
			<rect x="279.266" y="426.052" fill="none" stroke="#231815" stroke-width="0.5" stroke-miterlimit="10" width="53.092" height="17.455"/>
		<polyline fill="none" stroke="#231815" stroke-width="0.5" stroke-miterlimit="10" points="891.494,430.598 998.102,430.598 
			1019.781,435.873 		"/>
		<polyline fill="none" stroke="#231815" stroke-width="0.5" stroke-miterlimit="10" points="878.645,446.688 927.887,446.692 
			998.102,446.692 1015.896,442.87 		"/>
		<path fill="none" stroke="#231815" stroke-width="0.5" stroke-miterlimit="10" d="M843.277,435.873l-241.594,0.013h-2.111
			c-2.641-32.012-29.457-57.172-62.152-57.172c-32.697,0-59.52,25.166-62.152,57.187"/>
		<path fill="none" stroke="#231815" stroke-width="0.5" stroke-miterlimit="10" d="M493.199,397.11
			c-6.377,8.906-10.145,19.814-10.145,31.605c0,30.024,24.34,54.365,54.365,54.365c30.021,0,54.363-24.341,54.363-54.365
			c0-11.796-3.768-22.703-10.15-31.613c-11.295-11.355-26.932-18.389-44.213-18.389C520.137,378.714,504.496,385.75,493.199,397.11z
			 M570,428.716c0,17.994-14.588,32.581-32.582,32.581s-32.58-14.587-32.58-32.581s14.586-32.581,32.58-32.581
			S570,410.722,570,428.716z"/>
		<path fill="none" stroke="#231815" stroke-width="0.5" stroke-miterlimit="10" d="M599.572,435.886
			c0,11.349,6.066,10.803,6.066,10.803s162.947,0.004,237.639,0.004"/>
		<path fill="none" stroke="#231815" stroke-width="0.5" stroke-miterlimit="10" d="M603.242,435.871
			c-2.795-33.902-31.197-61.521-65.822-61.521c-34.631,0-63.035,27.609-65.822,61.521"/>
		<path fill="none" stroke="#231815" stroke-width="0.5" stroke-miterlimit="10" d="M294.176,426.052V278.413l12.546-99.82
			c0,0,13.091-97.094,139.639-97.094c126.549,0,307.643,0,307.643,0s117.822-2.182,128.186,106.366s9.273,93.274,9.273,93.274
			v152.096"/>
		<path fill="none" stroke="#231815" stroke-width="0.5" stroke-miterlimit="10" d="M1018.01,440.552
			c0-3.767,2.898-6.818,6.479-6.818c3.574,0,6.477,3.052,6.477,6.818h2.318v3.137h-17.387v-3.17L1018.01,440.552z"/>
		<polygon fill="none" stroke="#231815" stroke-width="0.3" stroke-linejoin="round" stroke-miterlimit="10" points="
			1005.602,431.688 1005.602,430.598 999.873,428.961 1006.42,428.961 1019.781,432.233 1018.691,433.235 1018.027,435.446 
			1017.465,433.235 1006.555,430.598 		"/>
		
			<rect x="980.373" y="390.052" fill="none" stroke="#231815" stroke-width="0.5" stroke-miterlimit="10" width="11.637" height="40.546"/>
		
			<rect x="980.373" y="446.692" fill="none" stroke="#231815" stroke-width="0.5" stroke-miterlimit="10" width="11.637" height="6.814"/>
		
			<rect x="980.918" y="453.507" fill="none" stroke="#231815" stroke-width="0.5" stroke-miterlimit="10" width="10.545" height="29.574"/>
		<polyline fill="none" stroke="#231815" stroke-width="0.3" stroke-linejoin="round" stroke-miterlimit="10" points="
			988.283,390.052 982.555,386.823 984.465,383.823 993.736,388.869 1004.646,386.142 1001.102,371.823 1004.646,370.731 
			1008.873,385.597 1008.873,386.006 1007.646,387.642 992.01,391.733 		"/>
		
			<rect x="469.271" y="75.226" fill="none" stroke="#231815" stroke-width="0.5" stroke-miterlimit="10" width="55.639" height="6.27"/>
		
			<rect x="466.545" y="70.59" fill="none" stroke="#231815" stroke-width="0.5" stroke-miterlimit="10" width="60.818" height="4.636"/>
		<path fill="none" stroke="#231815" stroke-width="0.5" stroke-miterlimit="10" d="M524.227,70.59"/>
		<path fill="none" stroke="#231815" stroke-width="0.5" stroke-miterlimit="10" d="M468.59,70.59"/>
		<path fill="none" stroke="#231815" stroke-width="0.5" stroke-miterlimit="10" d="M468.59,70.59c0,0,18.273-7.637,23.729-7.637
			h9.271c8.318,0.683,22.637,7.637,22.637,7.637"/>
		
			<rect x="440.85" y="153.243" fill="none" stroke="#231815" stroke-width="0.5" stroke-miterlimit="10" width="100.002" height="59.637"/>
		
			<rect x="435.76" y="151.5" fill="none" stroke="#231815" stroke-width="0.5" stroke-miterlimit="10" width="110.184" height="1.817"/>
		
			<rect x="629.455" y="151.738" fill="none" stroke="#231815" stroke-width="0.5" stroke-miterlimit="10" width="118.186" height="2.614"/>
		
			<rect x="449.805" y="163.698" fill="none" stroke="#231815" stroke-width="0.5" stroke-miterlimit="10" width="82.094" height="38.729"/>
		
			<rect x="443.668" y="156.198" fill="none" stroke="#231815" stroke-width="0.5" stroke-miterlimit="10" width="94.365" height="53.729"/>
		<g>
			<path fill="none" stroke="#231815" stroke-width="0.3" stroke-linejoin="round" stroke-miterlimit="10" d="M870.329,170.411
				c-0.027,0.153-0.176,0.257-0.329,0.229l-13.943-2.465c-0.153-0.027-0.257-0.176-0.23-0.329l0.754-4.262
				c0.026-0.153,0.175-0.257,0.328-0.229l13.945,2.466c0.153,0.027,0.257,0.176,0.229,0.329L870.329,170.411z"/>
		</g>
		<g>
			
				<circle fill="none" stroke="#231815" stroke-width="0.3" stroke-linejoin="round" stroke-miterlimit="10" cx="611.706" cy="426.438" r="4.772"/>
			
				<circle fill="none" stroke="#231815" stroke-width="0.3" stroke-linejoin="round" stroke-miterlimit="10" cx="611.706" cy="426.438" r="5.728"/>
		</g>
		<g>
			
				<circle fill="none" stroke="#231815" stroke-width="0.3" stroke-linejoin="round" stroke-miterlimit="10" cx="897.222" cy="440.064" r="4.772"/>
			
				<circle fill="none" stroke="#231815" stroke-width="0.3" stroke-linejoin="round" stroke-miterlimit="10" cx="897.222" cy="440.064" r="5.728"/>
		</g>
		<g>
			
				<circle fill="none" stroke="#231815" stroke-width="0.3" stroke-linejoin="round" stroke-miterlimit="10" cx="324.449" cy="434.78" r="4.772"/>
			
				<circle fill="none" stroke="#231815" stroke-width="0.3" stroke-linejoin="round" stroke-miterlimit="10" cx="324.449" cy="434.78" r="5.727"/>
		</g>
		<path fill="none" stroke="#231815" stroke-width="0.5" stroke-miterlimit="10" d="M283.631,426.052v-49.094
			c0,0,5.09-1.091,5.818,8.728c0.728,9.819,1.454,40.366,1.454,40.366"/>
		
			<rect x="280.358" y="379.507" fill="none" stroke="#231815" stroke-width="0.3" stroke-linejoin="round" stroke-miterlimit="10" width="3.273" height="13.637"/>
		
			<rect x="278.357" y="377.87" fill="none" stroke="#231815" stroke-width="0.3" stroke-linejoin="round" stroke-miterlimit="10" width="2" height="16.91"/>
		
			<rect x="280.358" y="403.869" fill="none" stroke="#231815" stroke-width="0.3" stroke-linejoin="round" stroke-miterlimit="10" width="3.273" height="7.82"/>
		
			<rect x="278.357" y="402.417" fill="none" stroke="#231815" stroke-width="0.3" stroke-linejoin="round" stroke-miterlimit="10" width="2" height="11.088"/>
		
			<rect x="843.277" y="433.436" fill="none" stroke="#231815" stroke-width="0.5" stroke-miterlimit="10" width="62.184" height="13.257"/>
		
			<rect x="905.461" y="435.292" fill="none" stroke="#231815" stroke-width="0.3" stroke-linejoin="round" stroke-miterlimit="10" width="2.002" height="10.17"/>
		
			<rect x="907.463" y="434.337" fill="none" stroke="#231815" stroke-width="0.3" stroke-linejoin="round" stroke-miterlimit="10" width="1.455" height="12.355"/>
		<g>
			<path fill="none" stroke="#231815" stroke-width="0.5" stroke-miterlimit="10" d="M626.365,249.503c0,0-3.953-0.137-3.953,3.954
				s0,8.046,0,8.046s-0.547,3.682,3.682,3.682c4.227,0,13.635,0,13.635,0l4.502-4.5v-6.273l-4.773-4.772L626.365,249.503z"/>
			<path fill="none" stroke="#231815" stroke-width="0.5" stroke-miterlimit="10" d="M622.412,254.411h3.953v-2.59
				c0,0,0.27-2.271,4.365-2.271"/>
			<circle fill="none" stroke="#231815" stroke-width="0.3" stroke-miterlimit="10" cx="637.53" cy="251.98" r="1.159"/>
			<path fill="none" stroke="#231815" stroke-width="0.5" stroke-miterlimit="10" d="M622.412,260.322h3.953v2.591
				c0,0,0.27,2.271,4.365,2.271"/>
			<path fill="none" stroke="#231815" stroke-width="0.3" stroke-miterlimit="10" d="M638.689,262.751
				c0-0.639-0.52-1.158-1.158-1.158c-0.641,0-1.16,0.52-1.16,1.158c0,0.643,0.52,1.16,1.16,1.16
				C638.17,263.911,638.689,263.394,638.689,262.751z"/>
			<circle fill="none" stroke="#231815" stroke-width="0.3" stroke-miterlimit="10" cx="641.706" cy="257.367" r="1.159"/>
			
				<rect x="624" y="251.98" fill="none" stroke="#231815" stroke-width="0.3" stroke-miterlimit="10" width="1.002" height="2.431"/>
			
				<rect x="624" y="260.322" fill="none" stroke="#231815" stroke-width="0.3" stroke-miterlimit="10" width="1.002" height="2.429"/>
		</g>
		<g>
			<path fill="none" stroke="#231815" stroke-width="0.5" stroke-miterlimit="10" d="M626.365,324.095c0,0-3.953-0.136-3.953,3.955
				s0,8.045,0,8.045s-0.547,3.683,3.682,3.683c4.227,0,13.635,0,13.635,0l4.502-4.501v-6.271l-4.773-4.773L626.365,324.095z"/>
			<path fill="none" stroke="#231815" stroke-width="0.5" stroke-miterlimit="10" d="M622.412,329.005h3.953v-2.592
				c0,0,0.27-2.271,4.365-2.271"/>
			<circle fill="none" stroke="#231815" stroke-width="0.3" stroke-miterlimit="10" cx="637.53" cy="326.573" r="1.159"/>
			<path fill="none" stroke="#231815" stroke-width="0.5" stroke-miterlimit="10" d="M622.412,334.915h3.953v2.591
				c0,0,0.27,2.271,4.365,2.271"/>
			<circle fill="none" stroke="#231815" stroke-width="0.3" stroke-miterlimit="10" cx="637.53" cy="337.344" r="1.159"/>
			<circle fill="none" stroke="#231815" stroke-width="0.3" stroke-miterlimit="10" cx="641.706" cy="331.96" r="1.159"/>
			
				<rect x="624" y="326.573" fill="none" stroke="#231815" stroke-width="0.3" stroke-miterlimit="10" width="1.002" height="2.432"/>
			
				<rect x="624" y="334.915" fill="none" stroke="#231815" stroke-width="0.3" stroke-miterlimit="10" width="1.002" height="2.429"/>
		</g>
		
			<line fill="none" stroke="#231815" stroke-width="0.5" stroke-miterlimit="10" x1="630.73" y1="324.095" x2="630.73" y2="265.185"/>
		<path fill="none" stroke="#231815" stroke-width="0.5" stroke-miterlimit="10" d="M630.73,339.777v49.933v39.006h115.637V191.138
			h-0.012c0,0,2.182-34.939-50.455-34.939h-14.715c-52.639,0-50.455,34.939-50.455,34.939v58.365"/>
		<g>
			<path fill="none" stroke="#231815" stroke-width="0.5" stroke-miterlimit="10" d="M737.111,303.729
				c0,0.468-0.383,0.851-0.851,0.851h-23.969c-0.468,0-0.851-0.383-0.851-0.851v-13.006c0-0.468,0.383-0.851,0.851-0.851h23.969
				c0.468,0,0.851,0.383,0.851,0.851V303.729z"/>
		</g>
		<path fill="none" stroke="#231815" stroke-width="0.3" stroke-miterlimit="10" d="M728.275,295.867l4.365-0.089
			c2.545,0,2.059,1.448,2.059,1.448s0,3.366,0,4.642c0,1.273-1.605,1.273-1.605,1.273H716.93c-3.072-1.44-2.744-2.728-2.744-2.728
			v-6.912c0,0-0.002-2.089,1.998-2.089c2.002,0,10.91,0,10.91,0s1.182-0.002,1.182,2.089c0,2.093,0,3.725,0,3.725
			s0.936,0.46-1.939,1.095c-2.877,0.636-10.152,1.637-10.152,1.637s-1.656,0.648-1.129,2.02"/>
		<circle fill="none" stroke="#231815" stroke-width="0.3" stroke-miterlimit="10" cx="731.504" cy="293.003" r="1.5"/>
		
			<line fill="none" stroke="#231815" stroke-width="0.75" stroke-miterlimit="10" stroke-dasharray="0.7,2,0,0" x1="750.186" y1="287.14" x2="887.844" y2="287.14"/>
		
			<line fill="none" stroke="#231815" stroke-width="0.75" stroke-miterlimit="10" stroke-dasharray="0.7,2,0,0" x1="299.085" y1="287.14" x2="434.016" y2="287.14"/>
		
			<line fill="none" stroke="#231815" stroke-width="0.75" stroke-miterlimit="10" stroke-dasharray="0.7,5,0,0" x1="750.186" y1="430.598" x2="887.844" y2="430.598"/>
		
			<line fill="none" stroke="#231815" stroke-width="0.75" stroke-miterlimit="10" stroke-dasharray="0.7,5,0,0" x1="339.382" y1="430.598" x2="466.545" y2="430.598"/>
		
			<line fill="none" stroke="#231815" stroke-width="0.75" stroke-miterlimit="10" stroke-dasharray="0.7,5,0,0" x1="551.092" y1="361.323" x2="628.729" y2="361.323"/>
		
			<line fill="none" stroke="#231815" stroke-width="0.75" stroke-miterlimit="10" stroke-dasharray="0.7,5,0,0" x1="551.092" y1="287.14" x2="628.729" y2="287.14"/>
		
			<line fill="none" stroke="#231815" stroke-width="0.75" stroke-miterlimit="10" stroke-dasharray="0.7,5,0,0" x1="644.23" y1="361.323" x2="734.734" y2="361.323"/>
		
			<line fill="none" stroke="#231815" stroke-width="0.75" stroke-miterlimit="10" stroke-dasharray="0.7,5,0,0" x1="644.23" y1="287.14" x2="734.734" y2="287.14"/>
		
			<line fill="none" stroke="#231815" stroke-width="0.75" stroke-miterlimit="10" stroke-dasharray="0.7,5,0,0" x1="644.23" y1="217.685" x2="734.734" y2="217.685"/>
		
			<line fill="none" stroke="#231815" stroke-width="0.75" stroke-miterlimit="10" stroke-dasharray="0.7,5,0,0" x1="637.592" y1="143.866" x2="744.186" y2="143.866"/>
		
			<line fill="none" stroke="#231815" stroke-width="0.75" stroke-miterlimit="10" stroke-dasharray="0.7,5,0,0" x1="550" y1="143.866" x2="628.275" y2="143.866"/>
		
			<line fill="none" stroke="#231815" stroke-width="0.75" stroke-miterlimit="10" stroke-dasharray="0.7,5,0,0" x1="441.453" y1="143.866" x2="543.033" y2="143.866"/>
		
			<line fill="none" stroke="#231815" stroke-width="0.75" stroke-miterlimit="10" stroke-dasharray="0.7,5,0,0" x1="441.453" y1="287.14" x2="543.033" y2="287.14"/>
		
			<line fill="none" stroke="#231815" stroke-width="0.75" stroke-miterlimit="10" stroke-dasharray="0.7,5,0,0" x1="441.453" y1="361.323" x2="543.033" y2="361.323"/>
		
			<line fill="none" stroke="#231815" stroke-width="0.75" stroke-miterlimit="10" stroke-dasharray="0.7,2,0,0" x1="545.943" y1="85.682" x2="545.943" y2="371.968"/>
		
			<line fill="none" stroke="#231815" stroke-width="0.75" stroke-miterlimit="10" stroke-dasharray="0.7,2,0,0" x1="435.76" y1="85.682" x2="435.76" y2="432.204"/>
		
			<line fill="none" stroke="#231815" stroke-width="0.75" stroke-miterlimit="10" stroke-dasharray="0.7,2,0,0" x1="630.73" y1="84.591" x2="630.73" y2="176.606"/>
		
			<line fill="none" stroke="#231815" stroke-width="0.75" stroke-miterlimit="10" stroke-dasharray="0.7,2,0,0" x1="746.367" y1="84.591" x2="746.367" y2="176.606"/>
		<path fill="none" stroke="#231815" stroke-width="0.75" stroke-miterlimit="10" stroke-dasharray="0.7,5,0,0" d="M636.365,187.138
			c0,0,9.092-26.547,40-26.547c30.91,0,26.547,0,26.547,0s37.092,5.276,37.092,26.547"/>
		<g>
			<g>
				
					<line fill="none" stroke="#231815" stroke-width="0.75" stroke-miterlimit="10" x1="750.186" y1="223.866" x2="750.534" y2="223.835"/>
				
					<line fill="none" stroke="#231815" stroke-width="0.75" stroke-miterlimit="10" stroke-dasharray="0,0" x1="752.514" y1="223.657" x2="752.523" y2="223.656"/>
				
					<line fill="none" stroke="#231815" stroke-width="0.75" stroke-miterlimit="10" stroke-dasharray="0.6991,1.9875,0,0" x1="752.523" y1="223.656" x2="884.134" y2="211.864"/>
				
					<line fill="none" stroke="#231815" stroke-width="0.75" stroke-miterlimit="10" x1="884.134" y1="211.864" x2="884.482" y2="211.833"/>
			</g>
		</g>
		<g>
			<g>
				
					<line fill="none" stroke="#231815" stroke-width="0.75" stroke-miterlimit="10" x1="750.186" y1="208.593" x2="750.535" y2="208.578"/>
				
					<line fill="none" stroke="#231815" stroke-width="0.75" stroke-miterlimit="10" stroke-dasharray="0.0101,0" x1="752.543" y1="208.496" x2="752.553" y2="208.496"/>
				
					<line fill="none" stroke="#231815" stroke-width="0.75" stroke-miterlimit="10" stroke-dasharray="0.7068,2.0093,0.0101,0" x1="752.553" y1="208.496" x2="883.299" y2="203.152"/>
				
					<line fill="none" stroke="#231815" stroke-width="0.75" stroke-miterlimit="10" x1="883.299" y1="203.152" x2="883.648" y2="203.138"/>
			</g>
		</g>
		<g>
			<g>
				
					<line fill="none" stroke="#231815" stroke-width="0.75" stroke-miterlimit="10" x1="750.186" y1="192.229" x2="750.535" y2="192.233"/>
				
					<line fill="none" stroke="#231815" stroke-width="0.75" stroke-miterlimit="10" stroke-dasharray="0.01,0" x1="752.53" y1="192.261" x2="752.54" y2="192.261"/>
				
					<line fill="none" stroke="#231815" stroke-width="0.75" stroke-miterlimit="10" stroke-dasharray="0.7016,1.9947,0.01,0" x1="752.54" y1="192.261" x2="882.432" y2="194.057"/>
				
					<line fill="none" stroke="#231815" stroke-width="0.75" stroke-miterlimit="10" x1="882.432" y1="194.057" x2="882.781" y2="194.062"/>
			</g>
		</g>
		<g>
			<g>
				
					<line fill="none" stroke="#231815" stroke-width="0.75" stroke-miterlimit="10" x1="881.516" y1="184.615" x2="881.166" y2="184.594"/>
				
					<line fill="none" stroke="#231815" stroke-width="0.75" stroke-miterlimit="10" stroke-dasharray="0,0" x1="879.191" y1="184.474" x2="879.181" y2="184.473"/>
				
					<line fill="none" stroke="#231815" stroke-width="0.75" stroke-miterlimit="10" stroke-dasharray="0.6961,1.979,0,0" x1="879.181" y1="184.473" x2="750.535" y2="176.628"/>
				
					<line fill="none" stroke="#231815" stroke-width="0.75" stroke-miterlimit="10" x1="750.535" y1="176.628" x2="750.186" y2="176.606"/>
			</g>
		</g>
		<g>
			<g>
				
					<line fill="none" stroke="#231815" stroke-width="0.75" stroke-miterlimit="10" x1="750.186" y1="162.047" x2="750.534" y2="162.081"/>
				
					<line fill="none" stroke="#231815" stroke-width="0.75" stroke-miterlimit="10" stroke-dasharray="0.0101,0" x1="752.525" y1="162.275" x2="752.535" y2="162.275"/>
				
					<line fill="none" stroke="#231815" stroke-width="0.75" stroke-miterlimit="10" stroke-dasharray="0.7038,2.0008,0.0101,0" x1="752.535" y1="162.275" x2="879.519" y2="174.652"/>
				
					<line fill="none" stroke="#231815" stroke-width="0.75" stroke-miterlimit="10" x1="879.519" y1="174.652" x2="879.867" y2="174.687"/>
			</g>
		</g>
		<g>
			<g>
				<path fill="none" stroke="#231815" stroke-width="0.75" stroke-miterlimit="10" d="M750.186,88.591c0,0,0.116-0.011,0.345-0.024
					"/>
				
					<line fill="none" stroke="#231815" stroke-width="0.75" stroke-miterlimit="10" stroke-dasharray="0,0" x1="752.493" y1="88.498" x2="752.501" y2="88.498"/>
				<path fill="none" stroke="#231815" stroke-width="0.75" stroke-miterlimit="10" stroke-dasharray="0.692,1.9673,0,0" d="
					M752.501,88.498c9.841-0.139,50.271,1.82,106.532,38.687"/>
				<path fill="none" stroke="#231815" stroke-width="0.75" stroke-miterlimit="10" d="M859.041,127.189
					c0.098,0.064,0.195,0.128,0.293,0.192"/>
			</g>
		</g>
		<g>
			<g>
				<path fill="none" stroke="#231815" stroke-width="0.75" stroke-miterlimit="10" d="M864.385,136.229
					c0,0-0.103-0.056-0.305-0.163"/>
				
					<line fill="none" stroke="#231815" stroke-width="0.75" stroke-miterlimit="10" stroke-dasharray="0.0101,0" x1="862.3" y1="135.135" x2="862.293" y2="135.132"/>
				<path fill="none" stroke="#231815" stroke-width="0.75" stroke-miterlimit="10" stroke-dasharray="0.7076,2.0116,0.0101,0" d="
					M862.293,135.132c-10.979-5.66-63.298-31.342-111.747-33.073"/>
				<path fill="none" stroke="#231815" stroke-width="0.75" stroke-miterlimit="10" d="M750.535,102.058
					c-0.116-0.004-0.233-0.008-0.35-0.012"/>
			</g>
		</g>
		<g>
			<g>
				<path fill="none" stroke="#231815" stroke-width="0.75" stroke-miterlimit="10" d="M871.561,147.247c0,0-0.104-0.055-0.306-0.16
					"/>
				
					<line fill="none" stroke="#231815" stroke-width="0.75" stroke-miterlimit="10" stroke-dasharray="0,0" x1="869.494" y1="146.19" x2="869.487" y2="146.188"/>
				<path fill="none" stroke="#231815" stroke-width="0.75" stroke-miterlimit="10" stroke-dasharray="0.6958,1.9781,0,0" d="
					M869.487,146.188c-10.727-5.35-61.628-29.134-118.942-29.233"/>
				<path fill="none" stroke="#231815" stroke-width="0.75" stroke-miterlimit="10" d="M750.535,116.954c-0.116,0-0.232,0-0.35,0"/>
			</g>
		</g>
		<g>
			<g>
				<path fill="none" stroke="#231815" stroke-width="0.75" stroke-miterlimit="10" d="M875.23,156.085c0,0-0.11-0.038-0.326-0.112"
					/>
				
					<line fill="none" stroke="#231815" stroke-width="0.75" stroke-miterlimit="10" stroke-dasharray="0.0101,0" x1="873.008" y1="155.332" x2="872.999" y2="155.329"/>
				<path fill="none" stroke="#231815" stroke-width="0.75" stroke-miterlimit="10" stroke-dasharray="0.705,2.0043,0.0101,0" d="
					M872.999,155.329c-12.202-4.063-72.156-23.14-122.454-23.23"/>
				<path fill="none" stroke="#231815" stroke-width="0.75" stroke-miterlimit="10" d="M750.535,132.099c-0.116,0-0.233,0-0.35,0"/>
			</g>
		</g>
		<g>
			<g>
				<path fill="none" stroke="#231815" stroke-width="0.75" stroke-miterlimit="10" d="M877.902,164.407
					c0,0-0.115-0.022-0.339-0.066"/>
				
					<line fill="none" stroke="#231815" stroke-width="0.75" stroke-miterlimit="10" stroke-dasharray="0,0" x1="875.621" y1="163.966" x2="875.613" y2="163.965"/>
				<path fill="none" stroke="#231815" stroke-width="0.75" stroke-miterlimit="10" stroke-dasharray="0.6967,1.9807,0,0" d="
					M875.613,163.965c-13.979-2.681-88.443-16.626-125.069-16.718"/>
				<path fill="none" stroke="#231815" stroke-width="0.75" stroke-miterlimit="10" d="M750.534,147.247c-0.116,0-0.232,0-0.349,0"
					/>
			</g>
		</g>
		<g>
			<path fill="none" stroke="#231815" stroke-width="0.3" stroke-linejoin="round" stroke-miterlimit="10" d="M314.792,170.411
				c0.027,0.153,0.175,0.257,0.329,0.229l13.944-2.465c0.154-0.027,0.257-0.176,0.23-0.329l-0.755-4.262
				c-0.027-0.153-0.175-0.257-0.329-0.229l-13.944,2.466c-0.154,0.027-0.257,0.176-0.23,0.329L314.792,170.411z"/>
		</g>
		<g>
			<g>
				
					<line fill="none" stroke="#231815" stroke-width="0.75" stroke-miterlimit="10" x1="432.35" y1="223.866" x2="432.001" y2="223.834"/>
				
					<line fill="none" stroke="#231815" stroke-width="0.75" stroke-miterlimit="10" stroke-dasharray="0.0101,0" x1="430.008" y1="223.649" x2="429.998" y2="223.648"/>
				
					<line fill="none" stroke="#231815" stroke-width="0.75" stroke-miterlimit="10" stroke-dasharray="0.7041,2.0018,0.0101,0" x1="429.998" y1="223.648" x2="302.892" y2="211.865"/>
				
					<line fill="none" stroke="#231815" stroke-width="0.75" stroke-miterlimit="10" x1="302.892" y1="211.865" x2="302.543" y2="211.833"/>
			</g>
		</g>
		<g>
			<g>
				
					<line fill="none" stroke="#231815" stroke-width="0.75" stroke-miterlimit="10" x1="432.35" y1="208.593" x2="432" y2="208.578"/>
				
					<line fill="none" stroke="#231815" stroke-width="0.75" stroke-miterlimit="10" stroke-dasharray="0,0" x1="430.023" y1="208.498" x2="430.014" y2="208.497"/>
				
					<line fill="none" stroke="#231815" stroke-width="0.75" stroke-miterlimit="10" stroke-dasharray="0.6959,1.9783,0,0" x1="430.014" y1="208.497" x2="303.961" y2="203.344"/>
				
					<line fill="none" stroke="#231815" stroke-width="0.75" stroke-miterlimit="10" x1="303.961" y1="203.344" x2="303.612" y2="203.329"/>
			</g>
		</g>
		<g>
			<g>
				
					<line fill="none" stroke="#231815" stroke-width="0.75" stroke-miterlimit="10" x1="432.35" y1="192.229" x2="432" y2="192.234"/>
				
					<line fill="none" stroke="#231815" stroke-width="0.75" stroke-miterlimit="10" stroke-dasharray="0.01,0" x1="430.001" y1="192.269" x2="429.991" y2="192.269"/>
				
					<line fill="none" stroke="#231815" stroke-width="0.75" stroke-miterlimit="10" stroke-dasharray="0.7032,1.9991,0.01,0" x1="429.991" y1="192.269" x2="305.242" y2="194.405"/>
				
					<line fill="none" stroke="#231815" stroke-width="0.75" stroke-miterlimit="10" x1="305.242" y1="194.405" x2="304.892" y2="194.411"/>
			</g>
		</g>
		<g>
			<g>
				
					<line fill="none" stroke="#231815" stroke-width="0.75" stroke-miterlimit="10" x1="306.002" y1="184.312" x2="306.352" y2="184.29"/>
				
					<line fill="none" stroke="#231815" stroke-width="0.75" stroke-miterlimit="10" stroke-dasharray="0,0" x1="308.333" y1="184.169" x2="308.343" y2="184.169"/>
				
					<line fill="none" stroke="#231815" stroke-width="0.75" stroke-miterlimit="10" stroke-dasharray="0.6982,1.985,0,0" x1="308.343" y1="184.169" x2="432" y2="176.628"/>
				
					<line fill="none" stroke="#231815" stroke-width="0.75" stroke-miterlimit="10" x1="432" y1="176.628" x2="432.35" y2="176.606"/>
			</g>
		</g>
		<g>
			<g>
				
					<line fill="none" stroke="#231815" stroke-width="0.75" stroke-miterlimit="10" x1="432.35" y1="162.047" x2="432.001" y2="162.081"/>
				
					<line fill="none" stroke="#231815" stroke-width="0.75" stroke-miterlimit="10" stroke-dasharray="0.0101,0" x1="430.002" y1="162.275" x2="429.992" y2="162.276"/>
				
					<line fill="none" stroke="#231815" stroke-width="0.75" stroke-miterlimit="10" stroke-dasharray="0.7066,2.0087,0.0101,0" x1="429.992" y1="162.276" x2="307.93" y2="174.173"/>
				
					<line fill="none" stroke="#231815" stroke-width="0.75" stroke-miterlimit="10" x1="307.93" y1="174.173" x2="307.582" y2="174.207"/>
			</g>
		</g>
		<g>
			<g>
				<path fill="none" stroke="#231815" stroke-width="0.75" stroke-miterlimit="10" d="M432.35,88.862c0,0-0.116-0.001-0.346,0.003"
					/>
				
					<line fill="none" stroke="#231815" stroke-width="0.75" stroke-miterlimit="10" stroke-dasharray="0.0101,0" x1="430.001" y1="88.947" x2="429.992" y2="88.947"/>
				<path fill="none" stroke="#231815" stroke-width="0.75" stroke-miterlimit="10" stroke-dasharray="0.7063,2.0078,0.0101,0" d="
					M429.992,88.947c-9.315,0.556-45.542,4.715-96.238,35.698"/>
				<path fill="none" stroke="#231815" stroke-width="0.75" stroke-miterlimit="10" d="M333.747,124.65
					c-0.1,0.061-0.199,0.121-0.299,0.183"/>
			</g>
		</g>
		<g>
			<g>
				<path fill="none" stroke="#231815" stroke-width="0.75" stroke-miterlimit="10" d="M327.509,132.099
					c0,0,0.102-0.058,0.302-0.167"/>
				
					<line fill="none" stroke="#231815" stroke-width="0.75" stroke-miterlimit="10" stroke-dasharray="0,0" x1="329.551" y1="131" x2="329.558" y2="130.996"/>
				<path fill="none" stroke="#231815" stroke-width="0.75" stroke-miterlimit="10" stroke-dasharray="0.6951,1.976,0,0" d="
					M329.558,130.996c9.922-5.217,54.473-27.238,102.43-28.938"/>
				<path fill="none" stroke="#231815" stroke-width="0.75" stroke-miterlimit="10" d="M432,102.058
					c0.116-0.004,0.233-0.008,0.35-0.012"/>
			</g>
		</g>
		<g>
			<g>
				<path fill="none" stroke="#231815" stroke-width="0.75" stroke-miterlimit="10" d="M319.081,145.038
					c0,0,0.103-0.056,0.306-0.161"/>
				<path fill="none" stroke="#231815" stroke-width="0.75" stroke-miterlimit="10" stroke-dasharray="0.6933,1.971,0,0" d="
					M321.149,143.983c10.254-5.097,57.302-26.932,110.841-27.029"/>
				<path fill="none" stroke="#231815" stroke-width="0.75" stroke-miterlimit="10" d="M432,116.954c0.116,0,0.232,0,0.35,0"/>
			</g>
		</g>
		<g>
			<g>
				<path fill="none" stroke="#231815" stroke-width="0.75" stroke-miterlimit="10" d="M313.988,155.237c0,0,0.11-0.04,0.325-0.117"
					/>
				
					<line fill="none" stroke="#231815" stroke-width="0.75" stroke-miterlimit="10" stroke-dasharray="0,0" x1="316.183" y1="154.465" x2="316.191" y2="154.462"/>
				<path fill="none" stroke="#231815" stroke-width="0.75" stroke-miterlimit="10" stroke-dasharray="0.6977,1.9834,0,0" d="
					M316.191,154.462c11.628-4.021,67.173-22.303,115.8-22.363"/>
				<path fill="none" stroke="#231815" stroke-width="0.75" stroke-miterlimit="10" d="M432,132.099c0.116,0,0.233,0,0.35,0"/>
			</g>
		</g>
		<g>
			<g>
				<path fill="none" stroke="#231815" stroke-width="0.75" stroke-miterlimit="10" d="M310.815,163.226
					c0,0,0.115-0.022,0.339-0.066"/>
				
					<line fill="none" stroke="#231815" stroke-width="0.75" stroke-miterlimit="10" stroke-dasharray="0.0101,0" x1="313.125" y1="162.779" x2="313.134" y2="162.777"/>
				<path fill="none" stroke="#231815" stroke-width="0.75" stroke-miterlimit="10" stroke-dasharray="0.707,2.0099,0.0101,0" d="
					M313.134,162.777c13.483-2.583,82.442-15.446,118.86-15.53"/>
				<path fill="none" stroke="#231815" stroke-width="0.75" stroke-miterlimit="10" d="M432.003,147.247c0.116,0,0.231,0,0.347,0"/>
			</g>
		</g>
		<g>
			
				<circle fill="none" stroke="#231815" stroke-width="0.3" stroke-linejoin="round" stroke-miterlimit="10" cx="537.421" cy="428.688" r="13.909"/>
			
				<circle fill="none" stroke="#231815" stroke-width="0.5" stroke-linejoin="round" stroke-miterlimit="10" cx="537.421" cy="428.688" r="4.159"/>
			
				<circle fill="none" stroke="#231815" stroke-width="0.3" stroke-linejoin="round" stroke-miterlimit="10" cx="537.421" cy="428.688" r="7.772"/>
			<g>
				<polygon fill="none" stroke="#231815" stroke-width="0.25" stroke-linejoin="round" stroke-miterlimit="10" points="
					536.471,419.705 535.52,418.06 536.471,416.415 538.369,416.415 539.318,418.06 538.369,419.705 				"/>
				<path fill="none" stroke="#231815" stroke-width="0.25" stroke-linejoin="round" stroke-miterlimit="10" d="M538.033,418.06
					c0,0.342-0.275,0.614-0.613,0.614c-0.34,0-0.613-0.272-0.613-0.614c0-0.336,0.273-0.613,0.613-0.613
					C537.758,417.446,538.033,417.724,538.033,418.06z"/>
			</g>
			<g>
				<polygon fill="none" stroke="#231815" stroke-width="0.25" stroke-linejoin="round" stroke-miterlimit="10" points="
					545.668,425.009 546.939,423.598 548.797,423.992 549.383,425.797 548.111,427.21 546.254,426.815 				"/>
				<path fill="none" stroke="#231815" stroke-width="0.25" stroke-linejoin="round" stroke-miterlimit="10" d="M547.717,425.987
					c-0.324,0.104-0.67-0.071-0.777-0.396c-0.102-0.321,0.074-0.669,0.398-0.771c0.318-0.106,0.668,0.07,0.77,0.392
					C548.215,425.537,548.035,425.882,547.717,425.987z"/>
			</g>
			<g>
				<polygon fill="none" stroke="#231815" stroke-width="0.25" stroke-linejoin="round" stroke-miterlimit="10" points="
					543.467,435.396 545.203,436.169 545.402,438.058 543.867,439.173 542.129,438.401 541.932,436.512 				"/>
				<path fill="none" stroke="#231815" stroke-width="0.25" stroke-linejoin="round" stroke-miterlimit="10" d="M543.17,437.644
					c-0.197-0.272-0.137-0.656,0.135-0.856c0.275-0.198,0.662-0.138,0.857,0.137c0.199,0.272,0.141,0.657-0.131,0.856
					C543.754,437.98,543.369,437.919,543.17,437.644z"/>
			</g>
			<g>
				<polygon fill="none" stroke="#231815" stroke-width="0.25" stroke-linejoin="round" stroke-miterlimit="10" points="
					532.912,436.515 532.711,438.401 530.977,439.176 529.439,438.062 529.639,436.169 531.373,435.396 				"/>
				
					<circle fill="none" stroke="#231815" stroke-width="0.25" stroke-linejoin="round" stroke-miterlimit="10" cx="531.176" cy="437.286" r="0.614"/>
			</g>
			<g>
				<polygon fill="none" stroke="#231815" stroke-width="0.25" stroke-linejoin="round" stroke-miterlimit="10" points="
					528.582,426.819 526.725,427.212 525.455,425.801 526.037,423.994 527.9,423.598 529.17,425.009 				"/>
				<path fill="none" stroke="#231815" stroke-width="0.25" stroke-linejoin="round" stroke-miterlimit="10" d="M527.504,424.823
					c0.32,0.104,0.496,0.451,0.393,0.773c-0.104,0.319-0.451,0.498-0.775,0.395c-0.32-0.104-0.494-0.452-0.393-0.773
					C526.83,424.894,527.18,424.719,527.504,424.823z"/>
			</g>
			
				<circle fill="none" stroke="#231815" stroke-width="0.5" stroke-linejoin="round" stroke-miterlimit="10" cx="537.42" cy="428.688" r="16.727"/>
			
				<circle fill="none" stroke="#231815" stroke-width="0.3" stroke-linejoin="round" stroke-miterlimit="10" cx="537.42" cy="404.647" r="3.363"/>
			<path fill="none" stroke="#231815" stroke-width="0.3" stroke-linejoin="round" stroke-miterlimit="10" d="M554.275,411.219
				c-1.094,1.501-3.197,1.834-4.699,0.743c-1.502-1.093-1.834-3.195-0.744-4.698c1.094-1.502,3.197-1.835,4.701-0.743
				C555.033,407.613,555.365,409.716,554.275,411.219z"/>
			<path fill="none" stroke="#231815" stroke-width="0.3" stroke-linejoin="round" stroke-miterlimit="10" d="M561.322,424.466
				c-1.766,0.572-3.66-0.395-4.234-2.161s0.393-3.665,2.16-4.236c1.766-0.573,3.664,0.394,4.24,2.161
				C564.059,421.998,563.092,423.895,561.322,424.466z"/>
			<path fill="none" stroke="#231815" stroke-width="0.3" stroke-linejoin="round" stroke-miterlimit="10" d="M559.238,439.325
				c-1.768-0.576-2.73-2.473-2.156-4.238c0.576-1.767,2.473-2.731,4.236-2.154c1.77,0.573,2.732,2.472,2.16,4.24
				C562.9,438.937,561.004,439.904,559.238,439.325z"/>
			
				<circle fill="none" stroke="#231815" stroke-width="0.3" stroke-linejoin="round" stroke-miterlimit="10" cx="551.536" cy="448.146" r="3.362"/>
			<path fill="none" stroke="#231815" stroke-width="0.3" stroke-linejoin="round" stroke-miterlimit="10" d="M534.037,452.724
				c0.002-1.858,1.508-3.361,3.367-3.359c1.857,0,3.357,1.51,3.355,3.367c0,1.857-1.506,3.359-3.367,3.362
				C535.535,456.089,534.031,454.583,534.037,452.724z"/>
			<path fill="none" stroke="#231815" stroke-width="0.3" stroke-linejoin="round" stroke-miterlimit="10" d="M520.553,446.142
				c1.094-1.502,3.197-1.831,4.697-0.738c1.502,1.094,1.83,3.194,0.734,4.696c-1.092,1.503-3.193,1.833-4.699,0.741
				C519.785,449.744,519.455,447.644,520.553,446.142z"/>
			<path fill="none" stroke="#231815" stroke-width="0.3" stroke-linejoin="round" stroke-miterlimit="10" d="M513.514,432.89
				c1.768-0.572,3.662,0.396,4.234,2.165c0.572,1.767-0.398,3.659-2.168,4.231c-1.764,0.571-3.66-0.396-4.238-2.164
				C510.773,435.353,511.74,433.456,513.514,432.89z"/>
			<path fill="none" stroke="#231815" stroke-width="0.3" stroke-linejoin="round" stroke-miterlimit="10" d="M515.609,418.032
				c1.77,0.576,2.732,2.475,2.154,4.238c-0.576,1.769-2.473,2.727-4.242,2.152c-1.764-0.578-2.727-2.477-2.156-4.245
				C511.947,418.414,513.844,417.448,515.609,418.032z"/>
			<path fill="none" stroke="#231815" stroke-width="0.3" stroke-linejoin="round" stroke-miterlimit="10" d="M526.043,407.247
				c1.09,1.504,0.754,3.607-0.75,4.693c-1.504,1.091-3.602,0.752-4.697-0.754c-1.086-1.504-0.75-3.605,0.754-4.701
				C522.855,405.399,524.955,405.736,526.043,407.247z"/>
			
				<circle fill="none" stroke="#231815" stroke-width="0.25" stroke-linejoin="round" stroke-miterlimit="10" cx="537.42" cy="428.688" r="30.273"/>
		</g>
	</g>
	<g>
		<g>
			<g>
				<polygon fill="#666666" points="207.033,483.354 189.851,483.354 189.851,62.681 207.033,62.681 207.033,63.226 190.396,63.226 
					190.396,482.809 207.033,482.809 				"/>
				<polygon fill="#666666" points="251.216,483.354 234.034,483.354 234.034,62.681 251.216,62.681 251.216,63.226 234.58,63.226 
					234.58,482.809 251.216,482.809 				"/>
				<polygon fill="#666666" points="1031.518,542.071 278.084,542.071 278.084,524.889 278.629,524.889 278.629,541.525 
					1030.973,541.525 1030.973,524.889 1031.518,524.889 				"/>
				<polygon fill="#666666" points="1031.518,515.069 278.084,515.069 278.084,497.888 278.629,497.888 278.629,514.525 
					1030.973,514.525 1030.973,497.888 1031.518,497.888 				"/>
				<rect x="234.307" y="81.222" fill="#666666" width="16.909" height="0.546"/>
				<rect x="234.307" y="445.519" fill="#666666" width="16.909" height="0.546"/>
				<rect x="891.221" y="497.888" fill="#666666" width="0.547" height="16.909"/>
				<rect x="537.148" y="497.888" fill="#666666" width="0.545" height="16.909"/>
				<rect x="630.73" y="383.085" fill="#666666" width="115.637" height="0.545"/>
				<rect x="700.07" y="156.198" fill="#666666" width="0.545" height="272.49"/>
				<polygon fill="#666666" points="573.111,213.152 562.656,213.152 562.656,212.607 572.566,212.607 572.566,153.591 
					562.656,153.591 562.656,153.045 573.111,153.045 				"/>
				<polygon fill="#666666" points="541.123,238.306 440.576,238.306 440.576,227.851 441.123,227.851 441.123,237.76 
					540.578,237.76 540.578,227.851 541.123,227.851 				"/>
			</g>
		</g>
		<g>
			<text transform="matrix(0 -1 1 0 228.9702 88.0264)"><tspan x="0" y="0" fill="#666666" font-family="'mplus-1m-light'" font-size="19.6368">12</tspan><tspan x="18.733" y="0" fill="#666666" font-family="'mplus-1m-light'" font-size="19.6368" letter-spacing="1">0</tspan></text>
			
				<text transform="matrix(0 -1 1 0 228.9702 290.9473)" fill="#666666" font-family="'mplus-1m-light'" font-size="19.6368" letter-spacing="1">2340</text>
			
				<text transform="matrix(1 0 0 1 691.6631 509.1172)" fill="#666666" font-family="'mplus-1m-light'" font-size="19.6368" letter-spacing="1">2300</text>
			
				<text transform="matrix(1 0 0 1 648.5928 378.752)" fill="#666666" font-family="'mplus-1m-light'" font-size="19.6368" letter-spacing="1">735</text>
			
				<text transform="matrix(1 0 0 1 384.2939 509.1172)" fill="#666666" font-family="'mplus-1m-light'" font-size="19.6368" letter-spacing="1">1700</text>
			
				<text transform="matrix(1 0 0 1 944.7598 509.1172)" fill="#666666" font-family="'mplus-1m-light'" font-size="19.6368" letter-spacing="1">900</text>
			
				<text transform="matrix(1 0 0 1 632.1396 536.7539)" fill="#666666" font-family="'mplus-1m-light'" font-size="19.6368" letter-spacing="1">4900</text>
			
				<text transform="matrix(0 -1 1 0 184.604 290.9473)" fill="#666666" font-family="'mplus-1m-light'" font-size="19.6368" letter-spacing="1">2740</text>
			
				<text transform="matrix(0 -1 1 0 228.9702 481.499)" fill="#666666" font-family="'mplus-1m-light'" font-size="19.6368" letter-spacing="1">280</text>
			
				<text transform="matrix(0 -1 1 0 695.0332 282.3535)" fill="#666666" font-family="'mplus-1m-light'" font-size="19.6368" letter-spacing="1">1765</text>
			
				<text transform="matrix(0 -1 1 0 568.8438 200.0898)" fill="#666666" font-family="'mplus-1m-light'" font-size="19.6368" letter-spacing="1">380</text>
			
				<text transform="matrix(1 0 0 1 473.8545 233.1377)" fill="#666666" font-family="'mplus-1m-light'" font-size="19.6368" letter-spacing="1">630</text>
		</g>
	</g>
</g>
</svg>
