<?xml version="1.0" encoding="utf-8"?>
<!-- Generator: Adobe Illustrator 16.0.4, SVG Export Plug-In . SVG Version: 6.00 Build 0)  -->
<!DOCTYPE svg PUBLIC "-//W3C//DTD SVG 1.1//EN" "http://www.w3.org/Graphics/SVG/1.1/DTD/svg11.dtd">
<svg version="1.1" id="レイヤー_1" xmlns="http://www.w3.org/2000/svg" xmlns:xlink="http://www.w3.org/1999/xlink" x="0px"
	 y="0px" width="1201px" height="601px" viewBox="0 0 1201 601" enable-background="new 0 0 1201 601" xml:space="preserve">
<g>
	<g>
		<g>
			<g>
				<polyline fill="#FFFFFF" stroke="#231815" stroke-width="0.5" stroke-miterlimit="10" points="224.015,205.828 234.3,201.907 
					234.55,197.47 230.57,194.89 				"/>
				<g>
					
						<rect x="274.731" y="391.175" fill="none" stroke="#231815" stroke-width="0.5" stroke-miterlimit="10" width="195.516" height="14.27"/>
					<rect x="267.594" y="391.175" fill="none" stroke="#231815" stroke-miterlimit="10" width="7.138" height="14.27"/>
					
						<rect x="267.594" y="405.594" fill="none" stroke="#231815" stroke-width="0.5" stroke-miterlimit="10" width="7.138" height="12.263"/>
					
						<rect x="258.317" y="391.175" fill="none" stroke="#231815" stroke-width="0.5" stroke-miterlimit="10" width="9.276" height="14.27"/>
					<g>
						<path fill="none" stroke="#231815" stroke-width="0.5" stroke-miterlimit="10" d="M258.317,461.199
							c0,1.559-1.275,2.834-2.835,2.834h-26.439c-1.559,0-2.834-1.275-2.834-2.834v-96.937c0-1.559,1.275-2.834,2.834-2.834h26.439
							c1.56,0,2.835,1.275,2.835,2.834V461.199z"/>
					</g>
					
						<rect x="258.317" y="409.162" fill="none" stroke="#231815" stroke-width="0.5" stroke-miterlimit="10" width="9.276" height="7.138"/>
					
						<rect x="274.731" y="409.162" fill="none" stroke="#231815" stroke-width="0.5" stroke-miterlimit="10" width="195.516" height="7.138"/>
					
						<rect x="220.499" y="391.175" fill="none" stroke="#231815" stroke-width="0.5" stroke-miterlimit="10" width="5.71" height="25.125"/>
					<rect x="470.247" y="391.175" fill="none" stroke="#231815" stroke-miterlimit="10" width="7.135" height="14.27"/>
					
						<rect x="470.247" y="405.594" fill="none" stroke="#231815" stroke-width="0.5" stroke-miterlimit="10" width="7.135" height="12.263"/>
					
						<rect x="477.382" y="391.175" fill="none" stroke="#231815" stroke-width="0.5" stroke-miterlimit="10" width="9.277" height="14.27"/>
					<g>
						<path fill="none" stroke="#231815" stroke-width="0.5" stroke-miterlimit="10" d="M486.659,461.199
							c0,1.559,1.275,2.834,2.835,2.834h26.438c1.56,0,2.835-1.275,2.835-2.834v-96.937c0-1.559-1.275-2.834-2.835-2.834h-26.438
							c-1.56,0-2.835,1.275-2.835,2.834V461.199z"/>
					</g>
					
						<rect x="477.382" y="409.162" fill="none" stroke="#231815" stroke-width="0.5" stroke-miterlimit="10" width="9.277" height="7.138"/>
					
						<rect x="518.767" y="391.175" fill="none" stroke="#231815" stroke-width="0.5" stroke-miterlimit="10" width="5.711" height="25.125"/>
					<rect x="267.594" y="387.053" fill="none" stroke="#231815" stroke-miterlimit="10" width="209.788" height="4.122"/>
					<polyline fill="none" stroke="#231815" stroke-miterlimit="10" points="267.594,387.053 267.594,352.315 220.499,352.315 					
						"/>
					<rect x="213.364" y="349.46" fill="none" stroke="#231815" stroke-miterlimit="10" width="7.135" height="2.854"/>
					<rect x="209.798" y="280.823" fill="none" stroke="#231815" stroke-miterlimit="10" width="7.133" height="2.856"/>
					
						<rect x="260.541" y="116.069" transform="matrix(0.707 0.7072 -0.7072 0.707 160.4902 -152.3594)" fill="none" stroke="#231815" stroke-miterlimit="10" width="7.136" height="2.854"/>
					<rect x="347.139" y="91.438" fill="none" stroke="#231815" stroke-miterlimit="10" width="2.854" height="7.135"/>
					<line fill="none" stroke="#231815" stroke-miterlimit="10" x1="220.499" y1="416.3" x2="213.364" y2="352.315"/>
					<path fill="none" stroke="#231815" stroke-miterlimit="10" d="M213.364,350.37c0,0-3.566-39.838-3.566-66.69"/>
					<path fill="none" stroke="#231815" stroke-miterlimit="10" d="M220.499,350.37c0,0-3.568-33.463-3.568-66.69"/>
					<path fill="none" stroke="#231815" stroke-miterlimit="10" d="M262.05,114.528c0,0,20.309-23.09,85.089-23.09"/>
					<path fill="none" stroke="#231815" stroke-miterlimit="10" d="M209.798,280.823"/>
					<path fill="none" stroke="#231815" stroke-miterlimit="10" d="M267.641,119.01c0,0,17.575-20.437,82.353-20.437"/>
					<path fill="none" stroke="#231815" stroke-miterlimit="10" d="M216.931,280.823"/>
					<path fill="none" stroke="#231815" stroke-width="0.5" stroke-miterlimit="10" d="M209.798,280.823
						c0,0,4.766-64.965,9.146-94.365c0,0,1.662-33.764,43.105-71.93"/>
					<path fill="none" stroke="#231815" stroke-width="0.5" stroke-miterlimit="10" d="M216.931,280.823
						c0,0,5.582-62.932,9.15-94.365c0,0,0.115-29.279,41.56-67.448"/>
					<g>
						
							<rect x="91.704" y="60.128" transform="matrix(-0.0189 0.9998 -0.9998 -0.0189 158.6165 -32.5344)" fill="none" stroke="#231815" stroke-miterlimit="10" width="7.135" height="2.857"/>
						
							<rect x="184.303" y="70.678" transform="matrix(-0.1213 0.9926 -0.9926 -0.1213 282.2325 -105.6285)" fill="none" stroke="#231815" stroke-miterlimit="10" width="7.133" height="2.857"/>
						
							<rect x="255.467" y="113.983" transform="matrix(-0.7204 0.6936 -0.6936 -0.7204 525.6864 18.8915)" fill="none" stroke="#231815" stroke-miterlimit="10" width="7.137" height="2.855"/>
						<path fill="none" stroke="#231815" stroke-miterlimit="10" d="M96.767,58.017c0,0,64.861,5.997,94.175,10.935
							c0,0,33.724,2.297,71.1,44.454"/>
						<path fill="none" stroke="#231815" stroke-miterlimit="10" d="M96.63,65.152c0,0,62.813,6.769,94.176,10.932
							c0,0,29.271,0.67,66.648,42.829"/>
					</g>
					<polyline fill="none" stroke="#231815" stroke-miterlimit="10" points="477.382,387.053 477.382,352.315 524.476,352.315 					
						"/>
					<rect x="524.476" y="349.46" fill="none" stroke="#231815" stroke-miterlimit="10" width="7.135" height="2.854"/>
					<rect x="520.119" y="388.318" fill="none" stroke="#231815" stroke-miterlimit="10" width="7.135" height="2.856"/>
					<rect x="528.044" y="280.823" fill="none" stroke="#231815" stroke-miterlimit="10" width="7.135" height="2.856"/>
					
						<rect x="519.249" y="188.044" transform="matrix(-0.9947 0.1029 -0.1029 -0.9947 1062.3483 324.1584)" fill="none" stroke="#231815" stroke-miterlimit="10" width="7.135" height="2.855"/>
					
						<rect x="477.297" y="116.069" transform="matrix(-0.707 0.7072 -0.7072 -0.707 903.9465 -139.486)" fill="none" stroke="#231815" stroke-miterlimit="10" width="7.137" height="2.853"/>
					<rect x="394.981" y="91.438" fill="none" stroke="#231815" stroke-miterlimit="10" width="2.854" height="7.135"/>
					<line fill="none" stroke="#231815" stroke-miterlimit="10" x1="524.476" y1="416.3" x2="531.61" y2="352.315"/>
					<path fill="none" stroke="#231815" stroke-miterlimit="10" d="M531.61,350.37c0,0,3.568-39.838,3.568-66.69"/>
					<path fill="none" stroke="#231815" stroke-miterlimit="10" d="M524.476,350.37c0,0,3.568-33.463,3.568-66.69"/>
					<path fill="none" stroke="#231815" stroke-miterlimit="10" d="M535.179,280.823c0,0-4.767-64.965-9.15-94.365
						c0,0-1.66-33.764-43.102-71.93c0,0-20.31-23.09-85.091-23.09"/>
					<path fill="none" stroke="#231815" stroke-miterlimit="10" d="M528.044,280.823c0,0-5.581-62.932-9.149-94.365
						c0,0-0.118-29.279-41.562-67.448c0,0-17.573-20.437-82.351-20.437"/>
					<rect x="349.993" y="91.438" fill="none" stroke="#231815" stroke-miterlimit="10" width="44.988" height="7.135"/>
					
						<rect x="344.454" y="84.304" fill="none" stroke="#231815" stroke-width="0.5" stroke-miterlimit="10" width="56.135" height="7.134"/>
					
						<rect x="342.944" y="80.736" fill="none" stroke="#231815" stroke-width="0.5" stroke-miterlimit="10" width="59.408" height="3.568"/>
					<path fill="none" stroke="#231815" stroke-width="0.5" stroke-miterlimit="10" d="M397.836,80.736c0,0-22.167-16.146-50.697,0"
						/>
					
						<rect x="293.354" y="191.445" fill="none" stroke="#231815" stroke-width="0.3" stroke-miterlimit="10" width="158.588" height="89.567"/>
					
						<rect x="289.579" y="188.231" fill="none" stroke="#231815" stroke-width="0.5" stroke-miterlimit="10" width="166.139" height="95.995"/>
					
						<rect x="298.139" y="195.221" fill="none" stroke="#231815" stroke-width="0.3" stroke-miterlimit="10" width="149.021" height="82.016"/>
					
						<line fill="none" stroke="#231815" stroke-width="0.75" stroke-miterlimit="10" stroke-dasharray="0.7,5,0,0" x1="222.837" y1="284.226" x2="289.579" y2="284.226"/>
					
						<line fill="none" stroke="#231815" stroke-width="0.75" stroke-miterlimit="10" stroke-dasharray="0.7,5,0,0" x1="462.479" y1="284.226" x2="529.221" y2="284.226"/>
					
						<line fill="none" stroke="#231815" stroke-width="0.75" stroke-miterlimit="10" stroke-dasharray="0.7,5,0,0" x1="451.942" y1="287.562" x2="451.942" y2="387.053"/>
					
						<line fill="none" stroke="#231815" stroke-width="0.75" stroke-miterlimit="10" stroke-dasharray="0.7,5,0,0" x1="293.354" y1="287.562" x2="293.354" y2="387.053"/>
					
						<line fill="none" stroke="#231815" stroke-width="0.75" stroke-miterlimit="10" stroke-dasharray="0.7,2,0,0" x1="455.718" y1="198.092" x2="519.12" y2="188.418"/>
					
						<line fill="none" stroke="#231815" stroke-width="0.75" stroke-miterlimit="10" stroke-dasharray="0.7,2,0,0" x1="449.647" y1="188.418" x2="507.628" y2="155.294"/>
					
						<line fill="none" stroke="#231815" stroke-width="0.75" stroke-miterlimit="10" stroke-dasharray="0.7,2,0,0" x1="432.058" y1="187.685" x2="487.243" y2="128.765"/>
					
						<line fill="none" stroke="#231815" stroke-width="0.75" stroke-miterlimit="10" stroke-dasharray="0.7,2,0,0" x1="414.435" y1="187.685" x2="462.479" y2="109.655"/>
					
						<line fill="none" stroke="#231815" stroke-width="0.75" stroke-miterlimit="10" stroke-dasharray="0.7,2,0,0" x1="398.173" y1="188.418" x2="426.308" y2="100.417"/>
					
						<line fill="none" stroke="#231815" stroke-width="0.75" stroke-miterlimit="10" stroke-dasharray="0.7,2,0,0" x1="382.215" y1="187.685" x2="390.024" y2="98.573"/>
					
						<line fill="none" stroke="#231815" stroke-width="0.75" stroke-miterlimit="10" stroke-dasharray="0.7,2,0,0" x1="289.257" y1="198.092" x2="225.855" y2="188.418"/>
					
						<line fill="none" stroke="#231815" stroke-width="0.75" stroke-miterlimit="10" stroke-dasharray="0.7,2,0,0" x1="295.327" y1="188.418" x2="237.348" y2="155.294"/>
					
						<line fill="none" stroke="#231815" stroke-width="0.75" stroke-miterlimit="10" stroke-dasharray="0.7,2,0,0" x1="312.919" y1="187.685" x2="257.733" y2="128.765"/>
					
						<line fill="none" stroke="#231815" stroke-width="0.75" stroke-miterlimit="10" stroke-dasharray="0.7,2,0,0" x1="330.54" y1="187.685" x2="282.495" y2="109.655"/>
					
						<line fill="none" stroke="#231815" stroke-width="0.75" stroke-miterlimit="10" stroke-dasharray="0.7,2,0,0" x1="346.802" y1="188.418" x2="318.666" y2="100.417"/>
					
						<line fill="none" stroke="#231815" stroke-width="0.75" stroke-miterlimit="10" stroke-dasharray="0.7,2,0,0" x1="362.761" y1="187.685" x2="354.951" y2="98.573"/>
					<line fill="none" stroke="#231815" stroke-miterlimit="10" x1="524.476" y1="352.315" x2="520.119" y2="388.318"/>
					<rect x="218.042" y="388.318" fill="none" stroke="#231815" stroke-miterlimit="10" width="7.136" height="2.856"/>
					<line fill="none" stroke="#231815" stroke-miterlimit="10" x1="220.821" y1="352.315" x2="225.178" y2="388.318"/>
				</g>
				<g>
					
						<rect x="219.501" y="136.034" transform="matrix(0.9662 -0.2577 0.2577 0.9662 -35.5748 62.6686)" fill="#FFFFFF" stroke="#231815" stroke-width="0.5" stroke-miterlimit="10" width="3.568" height="62.028"/>
					
						<rect x="204.524" y="76.109" transform="matrix(0.9664 -0.2571 0.2571 0.9664 -20.6406 56.375)" fill="#FFFFFF" stroke="#231815" stroke-width="0.5" stroke-miterlimit="10" width="1.497" height="62.026"/>
					<path fill="#FFFFFF" stroke="#231815" stroke-width="0.5" stroke-miterlimit="10" d="M232.116,198.643
						c0.328,1.23-0.404,2.493-1.633,2.824c-1.23,0.331-2.497-0.401-2.828-1.633c-0.326-1.231,0.406-2.496,1.637-2.825
						C230.521,196.679,231.786,197.411,232.116,198.643z"/>
				</g>
			</g>
			<polygon fill="none" stroke="#666666" stroke-width="1.4173" stroke-miterlimit="10" points="189.72,387.304 173.861,387.304 
				173.861,120.776 189.72,120.776 189.72,121.28 174.364,121.28 174.364,386.8 189.72,386.8 			"/>
			<g>
				
					<text transform="matrix(0 -1 1 0 167.3359 216.1123)" fill="#666666" font-family="'mplus-1m-light'" font-size="19.9178" letter-spacing="1">970</text>
			</g>
			<g>
				
					<text transform="matrix(0 -1 1 0 167.3359 350.8867)" fill="#666666" font-family="'mplus-1m-light'" font-size="19.9178" letter-spacing="1">830</text>
			</g>
			
				<rect x="174.112" y="280.305" fill="none" stroke="#666666" stroke-width="1.4173" stroke-miterlimit="10" width="15.607" height="0.503"/>
		</g>
		<g>
			<text transform="matrix(1 0 0 1 276.8867 504.4502)"><tspan x="0" y="0" fill="#231815" font-family="'HiraKakuPro-W3-83pv-RKSJ-H'" font-size="19.9178" letter-spacing="1">ハーフガルウィング</tspan><tspan x="19.858" y="34.856" fill="#231815" font-family="'HiraKakuPro-W3-83pv-RKSJ-H'" font-size="19.9178" letter-spacing="1">開口</tspan><tspan x="62.762" y="34.856" fill="#231815" font-family="'HiraKakuPro-W3-83pv-RKSJ-H'" font-size="19.9178" letter-spacing="6">部</tspan><tspan x="89.192" y="34.856" fill="#231815" font-family="'HiraKakuPro-W3-83pv-RKSJ-H'" font-size="19.9178" letter-spacing="1">970mm</tspan></text>
		</g>
	</g>
	<g>
		<g>
			<g>
				
					<rect x="846.777" y="385.906" fill="none" stroke="#231815" stroke-width="0.5" stroke-miterlimit="10" width="195.514" height="14.269"/>
				<rect x="839.641" y="385.906" fill="none" stroke="#231815" stroke-miterlimit="10" width="7.137" height="14.269"/>
				
					<rect x="839.641" y="400.326" fill="none" stroke="#231815" stroke-width="0.5" stroke-miterlimit="10" width="7.137" height="12.264"/>
				
					<rect x="830.363" y="385.906" fill="none" stroke="#231815" stroke-width="0.5" stroke-miterlimit="10" width="9.277" height="14.269"/>
				<g>
					<path fill="none" stroke="#231815" stroke-width="0.5" stroke-miterlimit="10" d="M830.363,455.932
						c0,1.559-1.275,2.834-2.834,2.834h-26.441c-1.559,0-2.834-1.275-2.834-2.834v-96.938c0-1.559,1.275-2.834,2.834-2.834h26.441
						c1.559,0,2.834,1.275,2.834,2.834V455.932z"/>
				</g>
				
					<rect x="830.363" y="403.893" fill="none" stroke="#231815" stroke-width="0.5" stroke-miterlimit="10" width="9.277" height="7.138"/>
				
					<rect x="846.777" y="403.893" fill="none" stroke="#231815" stroke-width="0.5" stroke-miterlimit="10" width="195.514" height="7.138"/>
				
					<rect x="792.546" y="385.906" fill="none" stroke="#231815" stroke-width="0.5" stroke-miterlimit="10" width="5.708" height="25.125"/>
				<rect x="1042.291" y="385.906" fill="none" stroke="#231815" stroke-miterlimit="10" width="7.135" height="14.269"/>
				
					<rect x="1042.291" y="400.326" fill="none" stroke="#231815" stroke-width="0.5" stroke-miterlimit="10" width="7.135" height="12.264"/>
				
					<rect x="1049.426" y="385.906" fill="none" stroke="#231815" stroke-width="0.5" stroke-miterlimit="10" width="9.278" height="14.269"/>
				<g>
					<path fill="none" stroke="#231815" stroke-width="0.5" stroke-miterlimit="10" d="M1058.704,455.932
						c0,1.559,1.275,2.834,2.835,2.834h26.438c1.56,0,2.835-1.275,2.835-2.834v-96.938c0-1.559-1.275-2.834-2.835-2.834h-26.438
						c-1.56,0-2.835,1.275-2.835,2.834V455.932z"/>
				</g>
				
					<rect x="1049.426" y="403.893" fill="none" stroke="#231815" stroke-width="0.5" stroke-miterlimit="10" width="9.278" height="7.138"/>
				
					<rect x="1090.812" y="385.906" fill="none" stroke="#231815" stroke-width="0.5" stroke-miterlimit="10" width="5.71" height="25.125"/>
				<rect x="839.641" y="381.784" fill="none" stroke="#231815" stroke-miterlimit="10" width="209.785" height="4.123"/>
				<polyline fill="none" stroke="#231815" stroke-miterlimit="10" points="839.641,381.784 839.641,347.045 792.546,347.045 				
					"/>
				
					<rect x="832.588" y="110.801" transform="matrix(0.7068 0.7074 -0.7074 0.7068 324.5531 -558.6036)" fill="none" stroke="#231815" stroke-miterlimit="10" width="7.135" height="2.853"/>
				<rect x="919.184" y="86.169" fill="none" stroke="#231815" stroke-miterlimit="10" width="2.855" height="7.135"/>
				<path fill="none" stroke="#231815" stroke-miterlimit="10" d="M834.093,109.257c0,0,20.312-23.088,85.091-23.088"/>
				<polyline fill="none" stroke="#231815" stroke-miterlimit="10" points="1049.428,381.784 1049.428,347.045 1096.521,347.045 
									"/>
				<rect x="1096.521" y="344.19" fill="none" stroke="#231815" stroke-miterlimit="10" width="7.136" height="2.855"/>
				<rect x="1100.089" y="275.554" fill="none" stroke="#231815" stroke-miterlimit="10" width="7.136" height="2.856"/>
				
					<rect x="1091.296" y="182.774" transform="matrix(-0.9947 0.1025 -0.1025 -0.9947 2202.8413 255.1802)" fill="none" stroke="#231815" stroke-miterlimit="10" width="7.134" height="2.855"/>
				
					<rect x="1049.344" y="110.801" transform="matrix(-0.7069 0.7073 -0.7073 -0.7069 1876.6292 -553.1367)" fill="none" stroke="#231815" stroke-miterlimit="10" width="7.136" height="2.853"/>
				<rect x="967.03" y="86.169" fill="none" stroke="#231815" stroke-miterlimit="10" width="2.854" height="7.135"/>
				<line fill="none" stroke="#231815" stroke-miterlimit="10" x1="1096.521" y1="411.031" x2="1103.657" y2="347.045"/>
				<path fill="none" stroke="#231815" stroke-miterlimit="10" d="M1103.657,345.098c0,0,3.567-39.835,3.567-66.688"/>
				<path fill="none" stroke="#231815" stroke-miterlimit="10" d="M1096.521,345.098c0,0,3.567-33.46,3.567-66.688"/>
				<path fill="none" stroke="#231815" stroke-miterlimit="10" d="M1107.225,275.554c0,0-4.768-64.965-9.15-94.366
					c0,0-1.659-33.763-43.101-71.931c0,0-20.312-23.088-85.089-23.088"/>
				<path fill="none" stroke="#231815" stroke-miterlimit="10" d="M1100.089,275.554c0,0-5.581-62.931-9.147-94.366
					c0,0-0.119-29.279-41.562-67.447c0,0-17.571-20.437-82.35-20.437"/>
				<rect x="922.039" y="86.169" fill="none" stroke="#231815" stroke-miterlimit="10" width="44.991" height="7.135"/>
				
					<rect x="916.502" y="79.034" fill="none" stroke="#231815" stroke-width="0.5" stroke-miterlimit="10" width="56.135" height="7.135"/>
				
					<rect x="914.991" y="75.467" fill="none" stroke="#231815" stroke-width="0.5" stroke-miterlimit="10" width="59.406" height="3.567"/>
				<path fill="none" stroke="#231815" stroke-width="0.5" stroke-miterlimit="10" d="M969.885,75.467c0,0-22.17-16.146-50.701,0"/>
				
					<rect x="865.4" y="186.175" fill="none" stroke="#231815" stroke-width="0.3" stroke-miterlimit="10" width="158.589" height="89.568"/>
				
					<rect x="861.625" y="182.962" fill="none" stroke="#231815" stroke-width="0.5" stroke-miterlimit="10" width="166.141" height="95.995"/>
				
					<rect x="870.184" y="189.952" fill="none" stroke="#231815" stroke-width="0.3" stroke-miterlimit="10" width="149.021" height="82.016"/>
				
					<line fill="none" stroke="#231815" stroke-width="0.75" stroke-miterlimit="10" stroke-dasharray="0.7,5,0,0" x1="794.883" y1="278.957" x2="861.625" y2="278.957"/>
				
					<line fill="none" stroke="#231815" stroke-width="0.75" stroke-miterlimit="10" stroke-dasharray="0.7,5,0,0" x1="1034.527" y1="278.957" x2="1101.271" y2="278.957"/>
				
					<line fill="none" stroke="#231815" stroke-width="0.75" stroke-miterlimit="10" stroke-dasharray="0.7,5,0,0" x1="1023.989" y1="282.292" x2="1023.989" y2="381.784"/>
				
					<line fill="none" stroke="#231815" stroke-width="0.75" stroke-miterlimit="10" stroke-dasharray="0.7,5,0,0" x1="865.4" y1="282.292" x2="865.4" y2="381.784"/>
				
					<line fill="none" stroke="#231815" stroke-width="0.75" stroke-miterlimit="10" stroke-dasharray="0.7,2,0,0" x1="1027.766" y1="192.823" x2="1091.168" y2="183.147"/>
				
					<line fill="none" stroke="#231815" stroke-width="0.75" stroke-miterlimit="10" stroke-dasharray="0.7,2,0,0" x1="1021.697" y1="183.147" x2="1079.676" y2="150.025"/>
				
					<line fill="none" stroke="#231815" stroke-width="0.75" stroke-miterlimit="10" stroke-dasharray="0.7,2,0,0" x1="1004.104" y1="182.416" x2="1059.287" y2="123.495"/>
				
					<line fill="none" stroke="#231815" stroke-width="0.75" stroke-miterlimit="10" stroke-dasharray="0.7,2,0,0" x1="986.482" y1="182.416" x2="1034.527" y2="104.383"/>
				
					<line fill="none" stroke="#231815" stroke-width="0.75" stroke-miterlimit="10" stroke-dasharray="0.7,2,0,0" x1="970.218" y1="183.147" x2="998.354" y2="95.149"/>
				
					<line fill="none" stroke="#231815" stroke-width="0.75" stroke-miterlimit="10" stroke-dasharray="0.7,2,0,0" x1="954.26" y1="182.416" x2="962.074" y2="93.304"/>
				
					<line fill="none" stroke="#231815" stroke-width="0.75" stroke-miterlimit="10" stroke-dasharray="0.7,2,0,0" x1="861.301" y1="192.823" x2="797.898" y2="183.147"/>
				
					<line fill="none" stroke="#231815" stroke-width="0.75" stroke-miterlimit="10" stroke-dasharray="0.7,2,0,0" x1="867.369" y1="183.147" x2="809.393" y2="150.025"/>
				
					<line fill="none" stroke="#231815" stroke-width="0.75" stroke-miterlimit="10" stroke-dasharray="0.7,2,0,0" x1="884.965" y1="182.416" x2="829.781" y2="123.495"/>
				
					<line fill="none" stroke="#231815" stroke-width="0.75" stroke-miterlimit="10" stroke-dasharray="0.7,2,0,0" x1="902.585" y1="182.416" x2="854.541" y2="104.383"/>
				
					<line fill="none" stroke="#231815" stroke-width="0.75" stroke-miterlimit="10" stroke-dasharray="0.7,2,0,0" x1="918.85" y1="183.147" x2="890.713" y2="95.149"/>
				
					<line fill="none" stroke="#231815" stroke-width="0.75" stroke-miterlimit="10" stroke-dasharray="0.7,2,0,0" x1="934.807" y1="182.416" x2="926.995" y2="93.304"/>
				<rect x="1092.167" y="383.05" fill="none" stroke="#231815" stroke-miterlimit="10" width="7.136" height="2.856"/>
				<line fill="none" stroke="#231815" stroke-miterlimit="10" x1="1096.521" y1="347.045" x2="1092.167" y2="383.05"/>
				<rect x="790.088" y="383.05" fill="none" stroke="#231815" stroke-miterlimit="10" width="7.135" height="2.856"/>
				<path fill="none" stroke="#231815" stroke-miterlimit="10" d="M839.688,113.741c0,0,17.573-20.437,82.352-20.437"/>
				<path fill="none" stroke="#231815" stroke-width="0.5" stroke-miterlimit="10" d="M792.546,411.031l-7.136-63.986v-1.947
					c0,0-3.566-39.835-3.566-66.688v-2.856c0,0,4.767-64.965,9.148-94.366c0,0,1.659-33.763,43.101-71.931"/>
				<path fill="none" stroke="#231815" stroke-width="0.5" stroke-miterlimit="10" d="M797.223,383.05l-4.354-36.005l-0.322-1.947
					c0,0-3.568-33.46-3.568-66.688v-2.856c0,0,5.581-62.931,9.149-94.366c0,0,0.117-29.279,41.561-67.447"/>
				<g>
					<rect x="594.258" y="61.551" fill="none" stroke="#231815" stroke-miterlimit="10" width="2.856" height="7.135"/>
					<rect x="662.891" y="57.964" fill="none" stroke="#231815" stroke-miterlimit="10" width="2.854" height="7.134"/>
					
						<rect x="753.537" y="68.871" transform="matrix(-0.1024 0.9947 -0.9947 -0.1024 904.5682 -675.6249)" fill="none" stroke="#231815" stroke-miterlimit="10" width="7.133" height="2.855"/>
					
						<rect x="825.522" y="110.8" transform="matrix(-0.7072 0.707 -0.707 -0.7072 1494.7754 -394.5764)" fill="none" stroke="#231815" stroke-miterlimit="10" width="7.136" height="2.852"/>
					<line fill="none" stroke="#231815" stroke-miterlimit="10" x1="555.396" y1="65.917" x2="594.257" y2="61.551"/>
					<path fill="none" stroke="#231815" stroke-miterlimit="10" d="M596.204,61.551c0,0,39.833-3.579,66.687-3.587"/>
					<path fill="none" stroke="#231815" stroke-miterlimit="10" d="M596.206,68.686c0,0,33.46-3.579,66.685-3.587"/>
					<path fill="none" stroke="#231815" stroke-miterlimit="10" d="M665.744,57.964c0,0,64.971,4.747,94.369,9.121
						c0,0,33.764,1.649,71.946,43.082"/>
					<path fill="none" stroke="#231815" stroke-miterlimit="10" d="M665.749,65.098c0,0,62.931,5.562,94.368,9.122
						c0,0,29.283,0.11,67.459,41.54"/>
					<rect x="555.397" y="65.917" fill="none" stroke="#231815" stroke-miterlimit="10" width="2.858" height="7.134"/>
					<line fill="none" stroke="#231815" stroke-miterlimit="10" x1="594.259" y1="68.686" x2="558.254" y2="73.051"/>
				</g>
				<polygon fill="none" stroke="#231815" stroke-width="0.5" stroke-miterlimit="10" points="767.659,182.888 764.227,183.84 
					733.61,71.852 737.043,72.506 				"/>
				<path fill="none" stroke="#231815" stroke-width="0.5" stroke-miterlimit="10" d="M803.035,297.184
					c1.486,2.639,0.553,5.982-2.086,7.473c-2.637,1.487-5.979,0.555-7.468-2.08c-1.488-2.639-0.562-5.987,2.075-7.473
					C798.195,293.612,801.545,294.548,803.035,297.184z"/>
				<polyline fill="none" stroke="#231815" stroke-width="0.5" stroke-miterlimit="10" points="790.02,312.597 806.621,305.742 
					806.621,293.584 789.052,287.001 				"/>
				
					<rect x="777.128" y="181.264" transform="matrix(0.9636 -0.2673 0.2673 0.9636 -35.4466 217.5237)" fill="#FFFFFF" stroke="#231815" stroke-width="0.5" stroke-miterlimit="10" width="8.475" height="115.427"/>
			</g>
			<g>
				
					<text transform="matrix(0 -1 1 0 747.627 272.2817)" fill="#666666" font-family="'mplus-1m-light'" font-size="19.9178" letter-spacing="1">1800</text>
			</g>
			<polygon fill="none" stroke="#666666" stroke-width="1.4173" stroke-miterlimit="10" points="770.152,384.633 754.292,384.633 
				754.292,118.104 770.152,118.104 770.152,118.609 754.795,118.609 754.795,384.129 770.152,384.129 			"/>
		</g>
		<g>
			<text transform="matrix(1 0 0 1 859.6582 501.8149)"><tspan x="0" y="0" fill="#231815" font-family="'HiraKakuPro-W3-83pv-RKSJ-H'" font-size="19.9178" letter-spacing="1">フルガルウィング</tspan><tspan x="1.822" y="34.856" fill="#231815" font-family="'HiraKakuPro-W3-83pv-RKSJ-H'" font-size="19.9178" letter-spacing="1">開口</tspan><tspan x="44.726" y="34.856" fill="#231815" font-family="'HiraKakuPro-W3-83pv-RKSJ-H'" font-size="19.9178" letter-spacing="6">部</tspan><tspan x="71.156" y="34.856" fill="#231815" font-family="'HiraKakuPro-W3-83pv-RKSJ-H'" font-size="19.9178" letter-spacing="1">1800mm</tspan></text>
		</g>
	</g>
</g>
</svg>
