<?xml version="1.0" encoding="utf-8"?>
<!-- Generator: Adobe Illustrator 16.0.4, SVG Export Plug-In . SVG Version: 6.00 Build 0)  -->
<!DOCTYPE svg PUBLIC "-//W3C//DTD SVG 1.1//EN" "http://www.w3.org/Graphics/SVG/1.1/DTD/svg11.dtd">
<svg version="1.1" id="レイヤー_1" xmlns="http://www.w3.org/2000/svg" xmlns:xlink="http://www.w3.org/1999/xlink" x="0px"
	 y="0px" width="1201px" height="601px" viewBox="0 0 1201 601" enable-background="new 0 0 1201 601" xml:space="preserve">
<g>
	<g>
		
			<rect x="894.462" y="222.155" fill="none" stroke="#231815" stroke-width="0.5" stroke-miterlimit="10" width="7.369" height="118.13"/>
		<path fill="none" stroke="#231815" stroke-miterlimit="10" d="M894.462,222.155h7.369v-3.899
			c-0.65-15.759,9.314-93.362-95.961-93.362l-475.78-0.033l-50.475,0.033c-105.272,0-95.165,77.827-95.959,93.362v3.899h7.366
			l-0.104-7.369c0.106-21.118-0.602-84.554,91.854-82.523h519.938c92.459-2.031,92.443,61.469,91.857,82.523L894.462,222.155z"/>
		<rect x="763.805" y="124.86" fill="none" stroke="#231815" stroke-miterlimit="10" width="3.272" height="7.367"/>
		<rect x="653.589" y="124.86" fill="none" stroke="#231815" stroke-miterlimit="10" width="3.273" height="7.367"/>
		<rect x="422.335" y="124.86" fill="none" stroke="#231815" stroke-miterlimit="10" width="3.272" height="7.367"/>
		<rect x="318.451" y="124.86" fill="none" stroke="#231815" stroke-miterlimit="10" width="3.27" height="7.367"/>
		<rect x="763.805" y="430.21" fill="none" stroke="#231815" stroke-miterlimit="10" width="3.272" height="7.369"/>
		<rect x="653.589" y="430.21" fill="none" stroke="#231815" stroke-miterlimit="10" width="3.273" height="7.369"/>
		<rect x="539.477" y="124.86" fill="none" stroke="#231815" stroke-miterlimit="10" width="3.271" height="7.367"/>
		<rect x="539.477" y="430.21" fill="none" stroke="#231815" stroke-miterlimit="10" width="3.271" height="7.369"/>
		<rect x="422.335" y="430.21" fill="none" stroke="#231815" stroke-miterlimit="10" width="3.272" height="7.369"/>
		<rect x="318.451" y="430.21" fill="none" stroke="#231815" stroke-miterlimit="10" width="3.27" height="7.369"/>
		<polyline fill="none" stroke="#231815" stroke-width="0.5" stroke-miterlimit="10" points="1025.952,277.717 1011.005,277.717 
			901.831,225.079 		"/>
		<polygon fill="none" stroke="#231815" stroke-width="0.5" stroke-miterlimit="10" points="902.042,232.552 1003.208,281.22 
			902.042,329.887 		"/>
		<g>
			<circle fill="none" stroke="#231815" stroke-width="0.5" stroke-miterlimit="10" cx="1031.963" cy="281.22" r="4.603"/>
			<path fill="none" stroke="#231815" stroke-width="0.5" stroke-miterlimit="10" d="M1038.896,281.22
				c0,3.828-3.104,6.93-6.933,6.93c-3.827,0-6.933-3.102-6.933-6.93c0-3.831,3.105-6.933,6.933-6.933
				C1035.791,274.287,1038.896,277.389,1038.896,281.22z"/>
		</g>
		<g>
			
				<rect x="1016.204" y="280.524" fill="none" stroke="#231815" stroke-width="0.3" stroke-miterlimit="10" width="7.229" height="1.391"/>
			
				<rect x="1013.604" y="280.524" fill="none" stroke="#231815" stroke-width="0.3" stroke-miterlimit="10" width="2.6" height="1.391"/>
		</g>
		<g>
			<path fill="none" stroke="#231815" stroke-width="0.5" stroke-miterlimit="10" d="M986.037,275.097
				c-2.909,0-5.333,2.038-5.955,4.759h6.534v2.727h-6.534c0.622,2.721,3.046,4.757,5.955,4.757c3.382,0,6.123-2.741,6.123-6.12
				C992.16,277.838,989.419,275.097,986.037,275.097z"/>
			<circle fill="none" stroke="#231815" stroke-width="0.5" stroke-miterlimit="10" cx="965.662" cy="281.22" r="2.664"/>
			<path fill="none" stroke="#231815" stroke-width="0.5" stroke-miterlimit="10" d="M986.616,279.856H967.94
				c0.238,0.401,0.386,0.863,0.386,1.363s-0.147,0.962-0.386,1.363h18.676V279.856z"/>
		</g>
		<g>
			<polyline fill="none" stroke="#231815" stroke-width="0.5" stroke-miterlimit="10" points="845.013,129.476 896.566,129.476 
				896.566,173.523 			"/>
			<polyline fill="none" stroke="#231815" stroke-width="0.5" stroke-miterlimit="10" points="852.194,131.668 894.652,131.668 
				894.652,168.845 			"/>
			
				<rect x="896.566" y="134.344" fill="none" stroke="#231815" stroke-width="0.5" stroke-miterlimit="10" width="2.827" height="15.914"/>
			
				<rect x="899.394" y="135.9" fill="none" stroke="#231815" stroke-width="0.5" stroke-miterlimit="10" width="1.787" height="12.799"/>
			<g>
				
					<rect x="877.964" y="126.647" fill="none" stroke="#231815" stroke-width="0.5" stroke-miterlimit="10" width="11.617" height="2.828"/>
				
					<rect x="879.102" y="124.86" fill="none" stroke="#231815" stroke-width="0.5" stroke-miterlimit="10" width="9.342" height="1.787"/>
			</g>
		</g>
		<g>
			<polygon fill="none" stroke="#231815" stroke-width="0.5" stroke-miterlimit="10" points="189.213,138.73 189.213,136.944 
				185.964,136.944 185.964,136.944 184.177,136.944 184.177,136.944 184.177,138.73 184.177,162.938 184.177,164.725 
				185.964,164.725 189.213,164.725 189.213,162.938 185.964,162.938 185.964,138.73 			"/>
			
				<rect x="179.79" y="138.893" fill="none" stroke="#231815" stroke-width="0.5" stroke-miterlimit="10" width="4.387" height="24.207"/>
			
				<rect x="177.678" y="140.193" fill="none" stroke="#231815" stroke-width="0.5" stroke-miterlimit="10" width="2.112" height="21.374"/>
		</g>
		<g>
			
				<rect x="512.215" y="122.033" fill="none" stroke="#231815" stroke-width="0.5" stroke-miterlimit="10" width="11.616" height="2.828"/>
			
				<rect x="513.353" y="120.246" fill="none" stroke="#231815" stroke-width="0.5" stroke-miterlimit="10" width="9.341" height="1.787"/>
		</g>
		<g>
			
				<rect x="196.117" y="123.695" fill="none" stroke="#231815" stroke-width="0.5" stroke-miterlimit="10" width="11.616" height="2.828"/>
			
				<rect x="197.255" y="121.908" fill="none" stroke="#231815" stroke-width="0.5" stroke-miterlimit="10" width="9.342" height="1.787"/>
		</g>
		<path fill="none" stroke="#231815" stroke-miterlimit="10" d="M894.462,340.285h7.369v3.899
			c-0.789,14.812,9.314,93.359-95.961,93.359l-475.78,0.036l-50.475-0.036c-105.272,0-95.565-79.472-95.959-93.359v-3.899h7.366
			l-0.104,7.367c0.426,20.958-0.602,84.554,91.854,82.523h374.085h106.946h38.907c92.459,2.031,92.443-61.466,91.857-82.523
			L894.462,340.285z"/>
		<polyline fill="none" stroke="#231815" stroke-width="0.5" stroke-miterlimit="10" points="1025.952,284.723 1011.005,284.723 
			901.831,337.36 		"/>
		<g>
			<polyline fill="none" stroke="#231815" stroke-width="0.5" stroke-miterlimit="10" points="845.013,432.964 896.566,432.964 
				896.566,388.914 			"/>
			<polyline fill="none" stroke="#231815" stroke-width="0.5" stroke-miterlimit="10" points="852.194,430.769 894.652,430.769 
				894.652,393.593 			"/>
			
				<rect x="896.566" y="412.182" fill="none" stroke="#231815" stroke-width="0.5" stroke-miterlimit="10" width="2.827" height="15.914"/>
			
				<rect x="899.394" y="413.738" fill="none" stroke="#231815" stroke-width="0.5" stroke-miterlimit="10" width="1.787" height="12.799"/>
			<g>
				
					<rect x="877.964" y="432.964" fill="none" stroke="#231815" stroke-width="0.5" stroke-miterlimit="10" width="11.617" height="2.828"/>
				
					<rect x="879.102" y="435.792" fill="none" stroke="#231815" stroke-width="0.5" stroke-miterlimit="10" width="9.342" height="1.787"/>
			</g>
		</g>
		<path fill="none" stroke="#231815" stroke-width="0.5" stroke-miterlimit="10" d="M211.006,419.079v13.561
			c0,3.29-3.366,3.242-3.366,3.242c-12.961,0-45.535,2.962-45.535-46.967v-83.721v-47.947v-83.724
			c0-49.929,32.574-46.967,45.535-46.967c0,0,3.366-0.048,3.366,3.242v13.561"/>
		<g>
			<polygon fill="none" stroke="#231815" stroke-width="0.5" stroke-miterlimit="10" points="189.213,423.707 189.213,425.494 
				185.964,425.494 185.964,425.496 184.177,425.496 184.177,425.494 184.177,423.707 184.177,399.502 184.177,397.715 
				185.964,397.715 189.213,397.715 189.213,399.502 185.964,399.502 185.964,423.707 			"/>
			
				<rect x="179.79" y="399.34" fill="none" stroke="#231815" stroke-width="0.5" stroke-miterlimit="10" width="4.387" height="24.207"/>
			
				<rect x="177.678" y="400.873" fill="none" stroke="#231815" stroke-width="0.5" stroke-miterlimit="10" width="2.112" height="21.374"/>
		</g>
		<g>
			
				<rect x="512.215" y="437.579" fill="none" stroke="#231815" stroke-width="0.5" stroke-miterlimit="10" width="11.616" height="2.828"/>
			
				<rect x="513.353" y="440.407" fill="none" stroke="#231815" stroke-width="0.5" stroke-miterlimit="10" width="9.341" height="1.787"/>
		</g>
		<g>
			
				<rect x="196.117" y="435.914" fill="none" stroke="#231815" stroke-width="0.5" stroke-miterlimit="10" width="11.616" height="2.828"/>
			
				<rect x="197.255" y="438.742" fill="none" stroke="#231815" stroke-width="0.5" stroke-miterlimit="10" width="9.342" height="1.787"/>
		</g>
		<line fill="none" stroke="#231815" stroke-miterlimit="10" x1="898.147" y1="222.155" x2="898.147" y2="340.285"/>
		
			<rect x="183.656" y="222.155" fill="none" stroke="#231815" stroke-width="0.5" stroke-miterlimit="10" width="7.366" height="118.13"/>
		<line fill="none" stroke="#231815" stroke-miterlimit="10" x1="187.34" y1="222.155" x2="187.34" y2="340.285"/>
		
			<line fill="none" stroke="#231815" stroke-width="0.5" stroke-miterlimit="10" x1="977.276" y1="279.856" x2="977.276" y2="268.746"/>
		
			<line fill="none" stroke="#231815" stroke-width="0.5" stroke-miterlimit="10" x1="977.276" y1="282.583" x2="977.276" y2="293.694"/>
		<rect x="653.589" y="437.579" fill="none" stroke="#231815" stroke-miterlimit="10" width="113.488" height="2.828"/>
		
			<rect x="744.487" y="440.407" fill="none" stroke="#231815" stroke-width="0.5" stroke-miterlimit="10" width="17.795" height="1.787"/>
		<path fill="none" stroke="#231815" stroke-width="0.5" stroke-miterlimit="10" d="M646.185,437.562v4.155
			c0,0,1.554-0.533,1.554,0.8h14.34l2.193-1.691v-1.068"/>
		<polyline fill="none" stroke="#231815" stroke-width="0.5" stroke-miterlimit="10" points="653.589,439.757 649.284,439.757 
			647.419,441.77 		"/>
		
			<ellipse fill="none" stroke="#231815" stroke-width="0.5" stroke-miterlimit="10" cx="646.684" cy="442.517" rx="1.055" ry="0.815"/>
		
			<rect x="756.915" y="428.156" fill="none" stroke="#231815" stroke-width="0.5" stroke-miterlimit="10" width="10.162" height="2.054"/>
		
			<rect x="741.888" y="426.856" fill="none" stroke="#231815" stroke-width="0.5" stroke-miterlimit="10" width="11.291" height="3.318"/>
		
			<rect x="746.681" y="424.745" fill="none" stroke="#231815" stroke-width="0.5" stroke-miterlimit="10" width="1.787" height="2.112"/>
		
			<rect x="746.294" y="422.958" fill="none" stroke="#231815" stroke-width="0.5" stroke-miterlimit="10" width="2.6" height="1.787"/>
		<path fill="none" stroke="#231815" stroke-width="0.5" stroke-miterlimit="10" d="M656.862,442.517v102.005
			c0,0,106.906,8.621,106.906-104.115"/>
		
			<rect x="380.79" y="391.895" fill="none" stroke="#231815" stroke-width="0.5" stroke-miterlimit="10" width="123.788" height="38.315"/>
		
			<rect x="380.79" y="132.341" fill="none" stroke="#231815" stroke-width="0.5" stroke-miterlimit="10" width="123.788" height="38.316"/>
	</g>
	<g>
		<polyline fill="none" stroke="#666666" stroke-width="1.4173" stroke-miterlimit="10" points="380.79,384.706 380.79,371.708 
			504.578,371.708 504.578,384.706 		"/>
		<polyline fill="none" stroke="#666666" stroke-width="1.4173" stroke-miterlimit="10" points="192.795,371.708 380.79,371.708 
			380.79,384.706 		"/>
		<g>
			
				<line fill="none" stroke="#666666" stroke-width="1.4173" stroke-miterlimit="10" x1="525.806" y1="132.341" x2="525.806" y2="430.21"/>
			
				<line fill="none" stroke="#666666" stroke-width="1.4173" stroke-miterlimit="10" x1="525.806" y1="170.657" x2="511.725" y2="170.657"/>
			
				<line fill="none" stroke="#666666" stroke-width="1.4173" stroke-miterlimit="10" x1="525.806" y1="391.895" x2="511.725" y2="391.895"/>
		</g>
		
			<line fill="none" stroke="#666666" stroke-width="1.4173" stroke-miterlimit="10" x1="191.022" y1="207.211" x2="894.462" y2="207.211"/>
		
			<line fill="none" stroke="#666666" stroke-width="1.4173" stroke-miterlimit="10" x1="623.878" y1="132.367" x2="623.878" y2="430.2"/>
		<polyline fill="none" stroke="#666666" stroke-width="1.4173" stroke-miterlimit="10" points="321.721,115.758 321.721,101.461 
			763.805,101.461 763.805,115.758 		"/>
	</g>
	<g>
		<g>
			
				<text transform="matrix(0 -1 1 0 563.709 296.8311)" fill="#666666" font-family="'mplus-1m-light'" font-size="23.3945" letter-spacing="1">1610</text>
		</g>
		<g>
			
				<text transform="matrix(1 0 0 1 747.5322 203.3105)" fill="#666666" font-family="'mplus-1m-light'" font-size="23.3945" letter-spacing="1">4820</text>
		</g>
		<g>
			<text transform="matrix(1 0 0 1 368.7549 78.083)"><tspan x="0" y="0" fill="#666666" font-family="'mplus-1m-light'" font-size="23.3945" letter-spacing="1">ガルウィング開口可能範</tspan><tspan x="277.155" y="0" fill="#666666" font-family="'mplus-1m-light'" font-size="23.3945" letter-spacing="7">囲</tspan><tspan x="308.199" y="0" fill="#666666" font-family="'mplus-1m-light'" font-size="23.3945" letter-spacing="1">3000</tspan></text>
		</g>
		<g>
			
				<text transform="matrix(1 0 0 1 425.9424 364.0161)" fill="#666666" font-family="'mplus-1m-light'" font-size="23.3945" letter-spacing="1">840</text>
		</g>
		<g>
			
				<text transform="matrix(1 0 0 1 264.7793 364.0161)" fill="#666666" font-family="'mplus-1m-light'" font-size="23.3945" letter-spacing="1">1300</text>
		</g>
		<g>
			
				<text transform="matrix(0 -1 1 0 563.709 175.5596)" fill="#666666" font-family="'mplus-1m-light'" font-size="23.3945" letter-spacing="1">260</text>
		</g>
		<g>
			
				<text transform="matrix(0 -1 1 0 563.709 420.1533)" fill="#666666" font-family="'mplus-1m-light'" font-size="23.3945" letter-spacing="1">260</text>
		</g>
		
			<text transform="matrix(0 -1 1 0 616.998 345.8203)" fill="#666666" font-family="'mplus-1m-light'" font-size="23.3945" letter-spacing="1">2042~2180</text>
	</g>
</g>
</svg>
