<?xml version="1.0" encoding="utf-8"?>
<!-- Generator: Adobe Illustrator 16.0.4, SVG Export Plug-In . SVG Version: 6.00 Build 0)  -->
<!DOCTYPE svg PUBLIC "-//W3C//DTD SVG 1.1//EN" "http://www.w3.org/Graphics/SVG/1.1/DTD/svg11.dtd">
<svg version="1.1" id="レイヤー_1" xmlns="http://www.w3.org/2000/svg" xmlns:xlink="http://www.w3.org/1999/xlink" x="0px"
	 y="0px" width="1201px" height="601px" viewBox="0 0 1201 601" enable-background="new 0 0 1201 601" xml:space="preserve">
<g>
	<g>
		
			<rect x="819.673" y="217.329" fill="none" stroke="#231815" stroke-width="0.5" stroke-miterlimit="10" width="7.42" height="118.947"/>
		<path fill="none" stroke="#231815" stroke-miterlimit="10" d="M819.673,217.329h7.42v-3.927
			c-0.654-15.867,9.377-94.007-96.625-94.007l-325.426-0.034l-50.824,0.034c-106.002,0-95.824,78.365-96.625,94.007v3.927h7.42
			l-0.107-7.421c0.107-21.261-0.605-85.139,92.492-83.094h369.891c93.098-2.045,93.082,61.895,92.492,83.094L819.673,217.329z"/>
		<rect x="688.112" y="119.361" fill="none" stroke="#231815" stroke-miterlimit="10" width="3.293" height="7.42"/>
		<rect x="577.136" y="119.361" fill="none" stroke="#231815" stroke-miterlimit="10" width="3.293" height="7.42"/>
		<rect x="497.925" y="119.361" fill="none" stroke="#231815" stroke-miterlimit="10" width="3.293" height="7.42"/>
		<rect x="390.026" y="119.361" fill="none" stroke="#231815" stroke-miterlimit="10" width="3.295" height="7.42"/>
		<rect x="688.112" y="426.823" fill="none" stroke="#231815" stroke-miterlimit="10" width="3.293" height="7.42"/>
		<rect x="577.136" y="426.823" fill="none" stroke="#231815" stroke-miterlimit="10" width="3.293" height="7.42"/>
		<rect x="497.925" y="426.823" fill="none" stroke="#231815" stroke-miterlimit="10" width="3.293" height="7.42"/>
		<rect x="390.026" y="426.823" fill="none" stroke="#231815" stroke-miterlimit="10" width="3.295" height="7.42"/>
		<polyline fill="none" stroke="#231815" stroke-width="0.5" stroke-miterlimit="10" points="952.071,273.275 937.022,273.275 
			827.093,220.273 		"/>
		<polygon fill="none" stroke="#231815" stroke-width="0.5" stroke-miterlimit="10" points="827.306,227.798 929.171,276.803 
			827.306,325.807 		"/>
		<g>
			<circle fill="none" stroke="#231815" stroke-width="0.5" stroke-miterlimit="10" cx="958.126" cy="276.803" r="4.635"/>
			<circle fill="none" stroke="#231815" stroke-width="0.5" stroke-miterlimit="10" cx="958.126" cy="276.803" r="6.98"/>
		</g>
		<g>
			
				<rect x="942.259" y="276.102" fill="none" stroke="#231815" stroke-width="0.3" stroke-miterlimit="10" width="7.279" height="1.401"/>
			
				<rect x="939.642" y="276.102" fill="none" stroke="#231815" stroke-width="0.3" stroke-miterlimit="10" width="2.617" height="1.401"/>
		</g>
		<g>
			<path fill="none" stroke="#231815" stroke-width="0.5" stroke-miterlimit="10" d="M911.882,270.64
				c-2.93,0-5.371,2.05-5.998,4.791h6.58v2.744h-6.578c0.627,2.741,3.066,4.79,5.996,4.79c3.404,0,6.164-2.758,6.164-6.162
				C918.046,273.397,915.286,270.64,911.882,270.64z"/>
			<circle fill="none" stroke="#231815" stroke-width="0.5" stroke-miterlimit="10" cx="891.365" cy="276.803" r="2.683"/>
			<path fill="none" stroke="#231815" stroke-width="0.5" stroke-miterlimit="10" d="M912.464,275.431h-18.805
				c0.24,0.403,0.389,0.868,0.389,1.372c0,0.503-0.148,0.969-0.389,1.372h18.805V275.431z"/>
		</g>
		<g>
			<polyline fill="none" stroke="#231815" stroke-width="0.5" stroke-miterlimit="10" points="769.882,124.008 821.792,124.008 
				821.792,168.363 			"/>
			<polyline fill="none" stroke="#231815" stroke-width="0.5" stroke-miterlimit="10" points="777.112,126.218 819.864,126.218 
				819.864,163.649 			"/>
			
				<rect x="821.792" y="128.91" fill="none" stroke="#231815" stroke-width="0.5" stroke-miterlimit="10" width="2.848" height="16.024"/>
			
				<rect x="824.64" y="130.48" fill="none" stroke="#231815" stroke-width="0.5" stroke-miterlimit="10" width="1.799" height="12.885"/>
			<g>
				
					<rect x="803.062" y="121.161" fill="none" stroke="#231815" stroke-width="0.5" stroke-miterlimit="10" width="11.695" height="2.847"/>
				
					<rect x="804.206" y="119.361" fill="none" stroke="#231815" stroke-width="0.5" stroke-miterlimit="10" width="9.406" height="1.8"/>
			</g>
		</g>
		<g>
			<polygon fill="none" stroke="#231815" stroke-width="0.5" stroke-miterlimit="10" points="263.188,133.327 263.188,131.528 
				259.917,131.528 259.917,131.528 258.116,131.528 258.116,131.528 258.116,133.327 258.116,157.701 258.116,159.501 
				259.917,159.501 263.188,159.501 263.188,157.701 259.917,157.701 259.917,133.327 			"/>
			
				<rect x="253.7" y="133.491" fill="none" stroke="#231815" stroke-width="0.5" stroke-miterlimit="10" width="4.416" height="24.374"/>
			
				<rect x="251.573" y="134.8" fill="none" stroke="#231815" stroke-width="0.5" stroke-miterlimit="10" width="2.127" height="21.521"/>
		</g>
		<g>
			
				<rect x="554.667" y="116.514" fill="none" stroke="#231815" stroke-width="0.5" stroke-miterlimit="10" width="11.695" height="2.848"/>
			
				<rect x="555.812" y="114.715" fill="none" stroke="#231815" stroke-width="0.5" stroke-miterlimit="10" width="9.406" height="1.799"/>
		</g>
		<g>
			
				<rect x="270.142" y="118.189" fill="none" stroke="#231815" stroke-width="0.5" stroke-miterlimit="10" width="11.697" height="2.848"/>
			
				<rect x="271.286" y="116.39" fill="none" stroke="#231815" stroke-width="0.5" stroke-miterlimit="10" width="9.406" height="1.8"/>
		</g>
		<polyline fill="none" stroke="#231815" stroke-width="0.5" stroke-miterlimit="10" points="952.071,280.33 937.022,280.33 
			827.093,333.331 		"/>
		<g>
			<polyline fill="none" stroke="#231815" stroke-width="0.5" stroke-miterlimit="10" points="769.882,429.597 821.792,429.597 
				821.792,385.242 			"/>
			<polyline fill="none" stroke="#231815" stroke-width="0.5" stroke-miterlimit="10" points="777.112,427.387 819.864,427.387 
				819.864,389.955 			"/>
			
				<rect x="821.792" y="408.67" fill="none" stroke="#231815" stroke-width="0.5" stroke-miterlimit="10" width="2.848" height="16.024"/>
			
				<rect x="824.64" y="410.24" fill="none" stroke="#231815" stroke-width="0.5" stroke-miterlimit="10" width="1.799" height="12.885"/>
			<g>
				
					<rect x="803.062" y="429.597" fill="none" stroke="#231815" stroke-width="0.5" stroke-miterlimit="10" width="11.695" height="2.848"/>
				
					<rect x="804.206" y="432.444" fill="none" stroke="#231815" stroke-width="0.5" stroke-miterlimit="10" width="9.406" height="1.799"/>
			</g>
		</g>
		<path fill="none" stroke="#231815" stroke-width="0.5" stroke-miterlimit="10" d="M285.134,415.616v13.654
			c0,3.314-3.391,3.263-3.391,3.263c-13.051,0-45.85,2.984-45.85-47.291v-84.301v-48.278v-84.3c0-50.276,32.799-47.292,45.85-47.292
			c0,0,3.391-0.051,3.391,3.263v13.654"/>
		<g>
			<polygon fill="none" stroke="#231815" stroke-width="0.5" stroke-miterlimit="10" points="263.188,420.277 263.188,422.077 
				259.917,422.077 259.917,422.077 258.116,422.077 258.116,422.077 258.116,420.277 258.116,395.903 258.116,394.104 
				259.917,394.104 263.188,394.104 263.188,395.903 259.917,395.903 259.917,420.277 			"/>
			
				<rect x="253.7" y="395.739" fill="none" stroke="#231815" stroke-width="0.5" stroke-miterlimit="10" width="4.416" height="24.374"/>
			
				<rect x="251.573" y="397.283" fill="none" stroke="#231815" stroke-width="0.5" stroke-miterlimit="10" width="2.127" height="21.521"/>
		</g>
		<g>
			
				<rect x="554.667" y="434.243" fill="none" stroke="#231815" stroke-width="0.5" stroke-miterlimit="10" width="11.695" height="2.848"/>
			
				<rect x="555.812" y="437.091" fill="none" stroke="#231815" stroke-width="0.5" stroke-miterlimit="10" width="9.406" height="1.8"/>
		</g>
		<g>
			
				<rect x="270.142" y="432.568" fill="none" stroke="#231815" stroke-width="0.5" stroke-miterlimit="10" width="11.697" height="2.847"/>
			
				<rect x="271.286" y="435.415" fill="none" stroke="#231815" stroke-width="0.5" stroke-miterlimit="10" width="9.406" height="1.8"/>
		</g>
		<line fill="none" stroke="#231815" stroke-miterlimit="10" x1="823.384" y1="217.329" x2="823.384" y2="336.276"/>
		
			<rect x="257.593" y="217.329" fill="none" stroke="#231815" stroke-width="0.5" stroke-miterlimit="10" width="7.42" height="118.947"/>
		<line fill="none" stroke="#231815" stroke-miterlimit="10" x1="261.304" y1="217.329" x2="261.304" y2="336.276"/>
		
			<line fill="none" stroke="#231815" stroke-width="0.5" stroke-miterlimit="10" x1="903.062" y1="275.431" x2="903.062" y2="264.242"/>
		
			<line fill="none" stroke="#231815" stroke-width="0.5" stroke-miterlimit="10" x1="903.062" y1="278.175" x2="903.062" y2="289.362"/>
		<rect x="577.136" y="434.243" fill="none" stroke="#231815" stroke-miterlimit="10" width="114.27" height="2.848"/>
		
			<rect x="668.661" y="437.091" fill="none" stroke="#231815" stroke-width="0.5" stroke-miterlimit="10" width="17.918" height="1.8"/>
		<path fill="none" stroke="#231815" stroke-width="0.5" stroke-miterlimit="10" d="M569.677,434.226v4.185
			c0,0,1.566-0.536,1.566,0.806h14.439l2.207-1.702v-1.077"/>
		<polyline fill="none" stroke="#231815" stroke-width="0.5" stroke-miterlimit="10" points="577.136,436.437 572.798,436.437 
			570.919,438.465 		"/>
		
			<ellipse fill="none" stroke="#231815" stroke-width="0.5" stroke-miterlimit="10" cx="570.181" cy="439.216" rx="1.062" ry="0.818"/>
		
			<rect x="681.175" y="424.756" fill="none" stroke="#231815" stroke-width="0.5" stroke-miterlimit="10" width="10.23" height="2.067"/>
		
			<rect x="666.044" y="423.447" fill="none" stroke="#231815" stroke-width="0.5" stroke-miterlimit="10" width="11.367" height="3.343"/>
		
			<rect x="670.868" y="421.32" fill="none" stroke="#231815" stroke-width="0.5" stroke-miterlimit="10" width="1.799" height="2.127"/>
		
			<rect x="670.479" y="419.521" fill="none" stroke="#231815" stroke-width="0.5" stroke-miterlimit="10" width="2.617" height="1.8"/>
		<path fill="none" stroke="#231815" stroke-width="0.5" stroke-miterlimit="10" d="M580.429,439.216v102.712
			c0,0,107.646,8.679,107.646-104.837"/>
		<g>
			<path fill="none" stroke="#231815" stroke-miterlimit="10" d="M819.673,336.276h7.42v3.926
				c-0.793,14.914,9.377,94.007-96.625,94.007l-325.426,0.034l-50.824-0.034c-106.002,0-96.229-80.021-96.625-94.007v-3.926h7.42
				l-0.107,7.42c0.43,21.102-0.605,85.139,92.492,83.094h223.027h107.688h39.176c93.098,2.045,93.082-61.895,92.492-83.094
				L819.673,336.276z"/>
			
				<rect x="423.704" y="388.637" fill="none" stroke="#231815" stroke-width="0.5" stroke-miterlimit="10" width="124.645" height="38.58"/>
		</g>
		
			<rect x="423.704" y="126.896" fill="none" stroke="#231815" stroke-width="0.5" stroke-miterlimit="10" width="124.645" height="38.58"/>
	</g>
	<g>
		<g>
			<polyline fill="none" stroke="#666666" stroke-width="1.4173" stroke-miterlimit="10" points="423.704,381.388 423.704,368.301 
				548.349,368.301 548.349,381.388 			"/>
			<polyline fill="none" stroke="#666666" stroke-width="1.4173" stroke-miterlimit="10" points="266.864,368.301 423.704,368.301 
				423.704,381.388 			"/>
			<g>
				
					<line fill="none" stroke="#666666" stroke-width="1.4173" stroke-miterlimit="10" x1="569.722" y1="127.277" x2="569.722" y2="427.208"/>
				
					<line fill="none" stroke="#666666" stroke-width="1.4173" stroke-miterlimit="10" x1="569.722" y1="165.858" x2="555.546" y2="165.858"/>
				
					<line fill="none" stroke="#666666" stroke-width="1.4173" stroke-miterlimit="10" x1="569.722" y1="388.627" x2="555.546" y2="388.627"/>
			</g>
			
				<line fill="none" stroke="#666666" stroke-width="1.4173" stroke-miterlimit="10" x1="265.013" y1="202.666" x2="819.864" y2="202.666"/>
			
				<line fill="none" stroke="#666666" stroke-width="1.4173" stroke-miterlimit="10" x1="668.474" y1="127.303" x2="668.474" y2="427.198"/>
			<polyline fill="none" stroke="#666666" stroke-width="1.4173" stroke-miterlimit="10" points="393.321,110.579 393.321,96.185 
				688.112,96.185 688.112,110.579 			"/>
		</g>
		<g>
			<g>
				<g>
					
						<text transform="matrix(0 -1 1 0 598.5107 300.7559)" fill="#666666" font-family="'mplus-1m-light'" font-size="23.5564" letter-spacing="1">1610</text>
				</g>
				<g>
					
						<text transform="matrix(1 0 0 1 686.5752 197.4307)" fill="#666666" font-family="'mplus-1m-light'" font-size="23.5564" letter-spacing="1">3680</text>
				</g>
				<g>
					<text transform="matrix(1 0 0 1 361.5176 78.2227)"><tspan x="0" y="0" fill="#666666" font-family="'mplus-1m-light'" font-size="23.5564" letter-spacing="1">ガルウィング開口可能範</tspan><tspan x="279.075" y="0" fill="#666666" font-family="'mplus-1m-light'" font-size="23.5564" letter-spacing="7">囲</tspan><tspan x="310.334" y="0" fill="#666666" font-family="'mplus-1m-light'" font-size="23.5564" letter-spacing="1">2000</tspan></text>
				</g>
				<g>
					
						<text transform="matrix(1 0 0 1 467.9766 363.0654)" fill="#666666" font-family="'mplus-1m-light'" font-size="23.5564" letter-spacing="1">840</text>
				</g>
				<g>
					
						<text transform="matrix(1 0 0 1 319.1123 363.0654)" fill="#666666" font-family="'mplus-1m-light'" font-size="23.5564" letter-spacing="1">1150</text>
				</g>
				<g>
					
						<text transform="matrix(0 -1 1 0 598.5107 177.5762)" fill="#666666" font-family="'mplus-1m-light'" font-size="23.5564" letter-spacing="1">260</text>
				</g>
				<g>
					
						<text transform="matrix(0 -1 1 0 598.5107 417.0801)" fill="#666666" font-family="'mplus-1m-light'" font-size="23.5564" letter-spacing="1">260</text>
				</g>
				
					<text transform="matrix(0 -1 1 0 660.6201 340.543)" fill="#666666" font-family="'mplus-1m-light'" font-size="23.5564" letter-spacing="1">2042~2180</text>
			</g>
		</g>
	</g>
</g>
</svg>
