<?xml version="1.0" encoding="utf-8"?>
<!-- Generator: Adobe Illustrator 16.0.4, SVG Export Plug-In . SVG Version: 6.00 Build 0)  -->
<!DOCTYPE svg PUBLIC "-//W3C//DTD SVG 1.1//EN" "http://www.w3.org/Graphics/SVG/1.1/DTD/svg11.dtd">
<svg version="1.1" id="レイヤー_1" xmlns="http://www.w3.org/2000/svg" xmlns:xlink="http://www.w3.org/1999/xlink" x="0px"
	 y="0px" width="1201px" height="601px" viewBox="0 0 1201 601" enable-background="new 0 0 1201 601" xml:space="preserve">
<g>
	<g>
		<g>
			
				<rect x="505.445" y="397.195" fill="none" stroke="#231815" stroke-width="0.5" stroke-miterlimit="10" width="208.822" height="15.24"/>
			<rect x="497.824" y="397.195" fill="none" stroke="#231815" stroke-miterlimit="10" width="7.621" height="15.24"/>
			
				<rect x="497.824" y="412.596" fill="none" stroke="#231815" stroke-width="0.5" stroke-miterlimit="10" width="7.621" height="13.099"/>
			
				<rect x="487.916" y="397.195" fill="none" stroke="#231815" stroke-width="0.5" stroke-miterlimit="10" width="9.908" height="15.24"/>
			<g>
				<path fill="none" stroke="#231815" stroke-width="0.5" stroke-miterlimit="10" d="M487.916,472.177
					c0,1.559-1.275,2.834-2.835,2.834h-28.623c-1.56,0-2.835-1.275-2.835-2.834V368.257c0-1.559,1.275-2.834,2.835-2.834h28.623
					c1.56,0,2.835,1.275,2.835,2.834V472.177z"/>
			</g>
			
				<rect x="487.916" y="416.405" fill="none" stroke="#231815" stroke-width="0.5" stroke-miterlimit="10" width="9.908" height="7.624"/>
			
				<rect x="505.445" y="416.405" fill="none" stroke="#231815" stroke-width="0.5" stroke-miterlimit="10" width="208.822" height="7.624"/>
			
				<rect x="447.523" y="397.195" fill="none" stroke="#231815" stroke-width="0.5" stroke-miterlimit="10" width="6.1" height="26.834"/>
			<rect x="714.268" y="397.195" fill="none" stroke="#231815" stroke-miterlimit="10" width="7.621" height="15.24"/>
			
				<rect x="714.268" y="412.596" fill="none" stroke="#231815" stroke-width="0.5" stroke-miterlimit="10" width="7.621" height="13.099"/>
			
				<rect x="721.889" y="397.195" fill="none" stroke="#231815" stroke-width="0.5" stroke-miterlimit="10" width="9.91" height="15.24"/>
			<g>
				<path fill="none" stroke="#231815" stroke-width="0.5" stroke-miterlimit="10" d="M731.799,472.177
					c0,1.559,1.275,2.834,2.835,2.834h28.623c1.56,0,2.835-1.275,2.835-2.834V368.257c0-1.559-1.275-2.834-2.835-2.834h-28.623
					c-1.56,0-2.835,1.275-2.835,2.834V472.177z"/>
			</g>
			
				<rect x="721.889" y="416.405" fill="none" stroke="#231815" stroke-width="0.5" stroke-miterlimit="10" width="9.91" height="7.624"/>
			
				<rect x="766.092" y="397.195" fill="none" stroke="#231815" stroke-width="0.5" stroke-miterlimit="10" width="6.098" height="26.834"/>
			<rect x="497.824" y="392.792" fill="none" stroke="#231815" stroke-miterlimit="10" width="224.064" height="4.402"/>
			<polyline fill="none" stroke="#231815" stroke-miterlimit="10" points="497.824,392.792 497.824,355.688 447.523,355.688 			"/>
			<rect x="439.904" y="352.642" fill="none" stroke="#231815" stroke-miterlimit="10" width="7.619" height="3.047"/>
			<rect x="436.094" y="279.334" fill="none" stroke="#231815" stroke-miterlimit="10" width="7.621" height="3.05"/>
			
				<rect x="490.291" y="103.365" transform="matrix(0.7071 0.7071 -0.7071 0.7071 218.887 -318.6612)" fill="none" stroke="#231815" stroke-miterlimit="10" width="7.621" height="3.048"/>
			<rect x="582.783" y="77.059" fill="none" stroke="#231815" stroke-miterlimit="10" width="3.051" height="7.622"/>
			<line fill="none" stroke="#231815" stroke-miterlimit="10" x1="447.523" y1="424.029" x2="439.904" y2="355.688"/>
			<path fill="none" stroke="#231815" stroke-miterlimit="10" d="M439.904,353.612c0,0-3.811-42.55-3.811-71.228"/>
			<path fill="none" stroke="#231815" stroke-miterlimit="10" d="M447.523,353.612c0,0-3.809-35.74-3.809-71.228"/>
			<path fill="none" stroke="#231815" stroke-miterlimit="10" d="M491.9,101.72c0,0,21.693-24.661,90.883-24.661"/>
			<path fill="none" stroke="#231815" stroke-miterlimit="10" d="M436.094,279.334"/>
			<path fill="none" stroke="#231815" stroke-miterlimit="10" d="M497.875,106.508c0,0,18.77-21.827,87.959-21.827"/>
			<path fill="none" stroke="#231815" stroke-miterlimit="10" d="M443.715,279.334"/>
			<path fill="none" stroke="#231815" stroke-width="0.5" stroke-miterlimit="10" d="M491.9,101.72"/>
			<g>
				<rect x="436.192" y="279.361" fill="none" stroke="#231815" stroke-miterlimit="10" width="7.619" height="3.049"/>
				
					<rect x="445.532" y="180.259" transform="matrix(0.9948 0.1022 -0.1022 0.9948 20.9241 -44.9573)" fill="none" stroke="#231815" stroke-miterlimit="10" width="7.618" height="3.052"/>
				
					<rect x="490.293" y="103.364" transform="matrix(0.7076 0.7067 -0.7067 0.7076 218.618 -318.4883)" fill="none" stroke="#231815" stroke-miterlimit="10" width="7.621" height="3.048"/>
				<path fill="none" stroke="#231815" stroke-miterlimit="10" d="M436.191,279.363c0,0,5.055-69.392,9.717-100.794
					c0,0,1.752-36.06,45.992-76.849"/>
				<path fill="none" stroke="#231815" stroke-miterlimit="10" d="M443.812,279.36c0,0,5.92-67.218,9.717-100.794
					c0,0,0.107-31.273,44.348-72.061"/>
			</g>
			<polyline fill="none" stroke="#231815" stroke-miterlimit="10" points="721.889,392.792 721.889,355.688 772.188,355.688 			"/>
			<rect x="772.188" y="352.642" fill="none" stroke="#231815" stroke-miterlimit="10" width="7.623" height="3.047"/>
			<rect x="767.535" y="394.145" fill="none" stroke="#231815" stroke-miterlimit="10" width="7.621" height="3.05"/>
			<rect x="776" y="279.334" fill="none" stroke="#231815" stroke-miterlimit="10" width="7.619" height="3.05"/>
			
				<rect x="766.608" y="180.24" transform="matrix(-0.9947 0.1029 -0.1029 -0.9947 1555.4452 283.2931)" fill="none" stroke="#231815" stroke-miterlimit="10" width="7.617" height="3.048"/>
			
				<rect x="721.799" y="103.365" transform="matrix(-0.7072 0.707 -0.707 -0.7072 1312.9419 -333.9202)" fill="none" stroke="#231815" stroke-miterlimit="10" width="7.622" height="3.048"/>
			<rect x="633.881" y="77.059" fill="none" stroke="#231815" stroke-miterlimit="10" width="3.049" height="7.622"/>
			<line fill="none" stroke="#231815" stroke-miterlimit="10" x1="772.188" y1="424.029" x2="779.811" y2="355.688"/>
			<path fill="none" stroke="#231815" stroke-miterlimit="10" d="M779.811,353.612c0,0,3.809-42.55,3.809-71.228"/>
			<path fill="none" stroke="#231815" stroke-miterlimit="10" d="M772.188,353.612c0,0,3.812-35.74,3.812-71.228"/>
			<path fill="none" stroke="#231815" stroke-miterlimit="10" d="M783.619,279.334c0,0-5.092-69.385-9.771-100.789
				c0,0-1.771-36.06-46.035-76.825c0,0-21.693-24.661-90.883-24.661"/>
			<path fill="none" stroke="#231815" stroke-miterlimit="10" d="M776,279.334c0,0-5.963-67.215-9.773-100.789
				c0,0-0.123-31.272-44.389-72.037c0,0-18.768-21.827-87.957-21.827"/>
			<rect x="585.834" y="77.059" fill="none" stroke="#231815" stroke-miterlimit="10" width="48.047" height="7.622"/>
			
				<rect x="579.916" y="69.438" fill="none" stroke="#231815" stroke-width="0.5" stroke-miterlimit="10" width="59.955" height="7.622"/>
			
				<rect x="578.305" y="65.629" fill="none" stroke="#231815" stroke-width="0.5" stroke-miterlimit="10" width="63.449" height="3.809"/>
			<path fill="none" stroke="#231815" stroke-width="0.5" stroke-miterlimit="10" d="M636.93,65.629c0,0-23.674-17.246-54.146,0"/>
			
				<rect x="525.34" y="183.872" fill="none" stroke="#231815" stroke-width="0.3" stroke-miterlimit="10" width="169.379" height="95.663"/>
			
				<rect x="521.307" y="180.44" fill="none" stroke="#231815" stroke-width="0.5" stroke-miterlimit="10" width="177.445" height="102.527"/>
			
				<rect x="530.447" y="187.904" fill="none" stroke="#231815" stroke-width="0.3" stroke-miterlimit="10" width="159.164" height="87.598"/>
			
				<line fill="none" stroke="#231815" stroke-width="0.75" stroke-miterlimit="10" stroke-dasharray="0.7,5,0,0" x1="450.021" y1="282.967" x2="521.307" y2="282.967"/>
			
				<line fill="none" stroke="#231815" stroke-width="0.75" stroke-miterlimit="10" stroke-dasharray="0.7,5,0,0" x1="705.975" y1="282.967" x2="777.258" y2="282.967"/>
			
				<line fill="none" stroke="#231815" stroke-width="0.75" stroke-miterlimit="10" stroke-dasharray="0.7,5,0,0" x1="694.719" y1="286.529" x2="694.719" y2="392.792"/>
			
				<line fill="none" stroke="#231815" stroke-width="0.75" stroke-miterlimit="10" stroke-dasharray="0.7,5,0,0" x1="525.34" y1="286.529" x2="525.34" y2="392.792"/>
			
				<line fill="none" stroke="#231815" stroke-width="0.75" stroke-miterlimit="10" stroke-dasharray="0.7,2,0,0" x1="698.752" y1="190.973" x2="766.469" y2="180.64"/>
			
				<line fill="none" stroke="#231815" stroke-width="0.75" stroke-miterlimit="10" stroke-dasharray="0.7,2,0,0" x1="692.268" y1="180.64" x2="754.193" y2="145.261"/>
			
				<line fill="none" stroke="#231815" stroke-width="0.75" stroke-miterlimit="10" stroke-dasharray="0.7,2,0,0" x1="673.479" y1="179.856" x2="732.42" y2="116.926"/>
			
				<line fill="none" stroke="#231815" stroke-width="0.75" stroke-miterlimit="10" stroke-dasharray="0.7,2,0,0" x1="654.658" y1="179.856" x2="705.975" y2="96.517"/>
			
				<line fill="none" stroke="#231815" stroke-width="0.75" stroke-miterlimit="10" stroke-dasharray="0.7,2,0,0" x1="637.291" y1="180.64" x2="667.34" y2="86.65"/>
			
				<line fill="none" stroke="#231815" stroke-width="0.75" stroke-miterlimit="10" stroke-dasharray="0.7,2,0,0" x1="620.244" y1="179.856" x2="628.586" y2="84.681"/>
			
				<line fill="none" stroke="#231815" stroke-width="0.75" stroke-miterlimit="10" stroke-dasharray="0.7,2,0,0" x1="520.961" y1="190.973" x2="453.242" y2="180.64"/>
			
				<line fill="none" stroke="#231815" stroke-width="0.75" stroke-miterlimit="10" stroke-dasharray="0.7,2,0,0" x1="527.445" y1="180.64" x2="465.521" y2="145.261"/>
			
				<line fill="none" stroke="#231815" stroke-width="0.75" stroke-miterlimit="10" stroke-dasharray="0.7,2,0,0" x1="546.234" y1="179.856" x2="487.291" y2="116.926"/>
			
				<line fill="none" stroke="#231815" stroke-width="0.75" stroke-miterlimit="10" stroke-dasharray="0.7,2,0,0" x1="565.053" y1="179.856" x2="513.738" y2="96.517"/>
			
				<line fill="none" stroke="#231815" stroke-width="0.75" stroke-miterlimit="10" stroke-dasharray="0.7,2,0,0" x1="582.424" y1="180.64" x2="552.373" y2="86.65"/>
			
				<line fill="none" stroke="#231815" stroke-width="0.75" stroke-miterlimit="10" stroke-dasharray="0.7,2,0,0" x1="599.467" y1="179.856" x2="591.125" y2="84.681"/>
			<line fill="none" stroke="#231815" stroke-miterlimit="10" x1="772.188" y1="355.688" x2="767.535" y2="394.145"/>
			<rect x="444.9" y="394.145" fill="none" stroke="#231815" stroke-miterlimit="10" width="7.621" height="3.05"/>
			<line fill="none" stroke="#231815" stroke-miterlimit="10" x1="447.869" y1="355.688" x2="452.521" y2="394.145"/>
		</g>
	</g>
	<g>
		<g>
			<g>
				
					<text transform="matrix(0 -1 1 0 497.873 249.646)" fill="#666666" font-family="'mplus-1m-light'" font-size="23.9795" letter-spacing="1">625</text>
				
					<text transform="matrix(1 0 0 1 581.8125 301.7988)" fill="#666666" font-family="'mplus-1m-light'" font-size="23.9795" letter-spacing="1">1100</text>
				
					<text transform="matrix(1 0 0 1 583.7207 533.125)" fill="#666666" font-family="'mplus-1m-light'" font-size="23.9795" letter-spacing="1">2270</text>
				
					<text transform="matrix(0 -1 1 0 395.8789 261.356)" fill="#666666" font-family="'mplus-1m-light'" font-size="23.9795" letter-spacing="1">2090</text>
				
					<text transform="matrix(1 0 0 1 582.3887 332.6318)" fill="#666666" font-family="'mplus-1m-light'" font-size="23.9795" letter-spacing="1">1610</text>
				
					<text transform="matrix(1 0 0 1 455.4844 332.6318)" fill="#666666" font-family="'mplus-1m-light'" font-size="23.9795" letter-spacing="1">260</text>
				
					<text transform="matrix(1 0 0 1 727.5977 332.6318)" fill="#666666" font-family="'mplus-1m-light'" font-size="23.9795" letter-spacing="1">260</text>
				<text transform="matrix(1 0 0 1 519.7754 494.4912)"><tspan x="0" y="0" fill="#666666" font-family="'mplus-1m-light'" font-size="23.9795" letter-spacing="1">内</tspan><tspan x="25.826" y="0" fill="#666666" font-family="'mplus-1m-light'" font-size="23.9795" letter-spacing="7">寸</tspan><tspan x="57.646" y="0" fill="#666666" font-family="'mplus-1m-light'" font-size="23.9795" letter-spacing="1">2042~2180</tspan></text>
			</g>
		</g>
		<g>
			<g>
				<polygon fill="#666666" points="783.887,542.068 435.828,542.068 435.828,525.133 436.361,525.133 436.361,541.533 
					783.35,541.533 783.35,525.133 783.887,525.133 				"/>
				<polygon fill="#666666" points="515.193,283.235 503.994,283.235 503.994,180.172 515.193,180.172 515.193,180.707 
					504.531,180.707 504.531,282.699 515.193,282.699 				"/>
				<polygon fill="#666666" points="699.021,307.901 521.035,307.901 521.035,296.695 521.574,296.695 521.574,307.363 
					698.482,307.363 698.482,296.695 699.021,296.695 				"/>
				<polygon fill="#666666" points="425.189,393.061 408.252,393.061 408.252,83.221 425.189,83.221 425.189,83.806 408.789,83.806 
					408.789,392.475 425.189,392.475 				"/>
				<polygon fill="#666666" points="776.777,503.739 443.982,503.739 443.982,486.804 444.52,486.804 444.52,503.204 
					776.24,503.204 776.24,486.804 776.777,486.804 				"/>
				<polygon fill="#666666" points="498.361,348.091 497.824,348.091 497.824,337.155 446.525,337.155 446.525,336.617 
					498.361,336.617 				"/>
				<rect x="498.094" y="336.617" fill="#666666" width="275.633" height="0.538"/>
				<rect x="721.889" y="336.887" fill="#666666" width="0.537" height="11.205"/>
			</g>
		</g>
	</g>
</g>
</svg>
