<?xml version="1.0" encoding="utf-8"?>
<!-- Generator: Adobe Illustrator 16.0.4, SVG Export Plug-In . SVG Version: 6.00 Build 0)  -->
<!DOCTYPE svg PUBLIC "-//W3C//DTD SVG 1.1//EN" "http://www.w3.org/Graphics/SVG/1.1/DTD/svg11.dtd">
<svg version="1.1" id="レイヤー_1" xmlns="http://www.w3.org/2000/svg" xmlns:xlink="http://www.w3.org/1999/xlink" x="0px"
	 y="0px" width="300px" height="120px" viewBox="0 0 300 120" enable-background="new 0 0 300 120" xml:space="preserve">
<g>
	<g>
		<path fill="#231815" d="M110.566,107.634c0.135-0.807,0.215-2.113,0.24-3.92h0.856c0.042,1.227,0.11,1.952,0.208,2.174
			c0.097,0.223,0.33,0.458,0.699,0.71c0.369,0.252,0.865,0.478,1.487,0.675c0.622,0.199,1.223,0.297,1.802,0.297
			c0.849,0,1.629-0.197,2.345-0.585c0.713-0.391,1.233-0.905,1.562-1.539c0.326-0.634,0.49-1.313,0.49-2.035
			c0-0.555-0.081-1.033-0.246-1.436c-0.163-0.403-0.412-0.729-0.748-0.978c-0.337-0.247-0.753-0.421-1.248-0.523
			c-0.312-0.05-0.933-0.134-1.865-0.252s-1.726-0.247-2.381-0.391c-0.874-0.269-1.518-0.583-1.929-0.946
			c-0.412-0.36-0.746-0.835-1.002-1.423c-0.257-0.588-0.385-1.222-0.385-1.903c0-0.989,0.258-1.925,0.775-2.803
			c0.517-0.876,1.281-1.56,2.294-2.048c1.012-0.487,2.11-0.729,3.294-0.729c0.715,0,1.494,0.096,2.338,0.286
			c0.846,0.192,1.632,0.471,2.363,0.835c-0.117,0.528-0.201,1.023-0.252,1.481c-0.051,0.458-0.088,1.133-0.114,2.021h-0.856
			c-0.024-1.291-0.062-1.997-0.113-2.117c-0.21-0.302-0.495-0.574-0.857-0.818c-0.864-0.487-1.769-0.73-2.709-0.73
			c-1.217,0-2.19,0.373-2.917,1.114c-0.727,0.744-1.089,1.706-1.089,2.89c0,0.712,0.129,1.265,0.39,1.656s0.726,0.704,1.397,0.939
			c0.464,0.158,1.22,0.307,2.269,0.446c1.052,0.139,1.996,0.288,2.836,0.447c0.79,0.235,1.375,0.516,1.752,0.837
			c0.378,0.324,0.688,0.746,0.933,1.272c0.242,0.525,0.365,1.14,0.365,1.845c0,1.67-0.693,3.125-2.078,4.369
			c-1.388,1.243-3.181,1.863-5.382,1.863C113.428,108.616,111.92,108.289,110.566,107.634z"/>
		<path fill="#231815" d="M124.62,91.151v-0.807c1.688,0.051,3.024,0.074,4.007,0.074c0.655,0,1.353-0.007,2.092-0.023l1.979-0.063
			c0.218-0.009,0.42-0.014,0.604-0.014c1.338,0,2.387,0.149,3.152,0.442c0.763,0.295,1.36,0.763,1.787,1.406
			c0.431,0.641,0.644,1.375,0.644,2.199c0,0.739-0.179,1.474-0.535,2.203c-0.356,0.732-0.875,1.352-1.557,1.861
			c-0.68,0.509-1.391,0.871-2.129,1.089c-0.505,0.151-1.076,0.226-1.715,0.226c-0.536,0-1.116-0.058-1.737-0.176l-0.266-0.946
			c0.748,0.168,1.336,0.252,1.765,0.252c0.63,0,1.229-0.151,1.795-0.458c0.567-0.308,1.008-0.768,1.324-1.385
			c0.314-0.614,0.473-1.296,0.473-2.042c0-0.723-0.153-1.373-0.461-1.956s-0.772-1.025-1.397-1.328
			c-0.627-0.302-1.385-0.453-2.274-0.453c-0.8,0-1.656,0.144-2.571,0.427c-0.076,0.893-0.114,2.288-0.114,4.184v6.351
			c0,1.145,0.013,2.256,0.038,3.342c0.025,0.796,0.086,1.271,0.184,1.423c0.096,0.151,0.252,0.262,0.465,0.333
			c0.215,0.072,0.822,0.116,1.821,0.132v0.806c-1.553-0.067-2.696-0.101-3.428-0.101c-0.286,0-1.6,0.033-3.943,0.101v-0.806
			c0.991-0.017,1.596-0.06,1.814-0.132c0.218-0.072,0.369-0.17,0.453-0.295c0.101-0.168,0.163-0.576,0.189-1.224
			c0.007-0.176,0.024-1.368,0.051-3.579v-5.833c0-1.143-0.013-2.261-0.038-3.354c-0.025-0.796-0.087-1.269-0.183-1.416
			c-0.098-0.149-0.252-0.256-0.467-0.329C126.227,91.211,125.619,91.168,124.62,91.151z"/>
		<path fill="#231815" d="M137.387,108.25v-0.856c0.664-0.007,1.078-0.037,1.242-0.082c0.163-0.045,0.314-0.134,0.453-0.264
			c0.139-0.13,0.338-0.468,0.599-1.016c0.152-0.31,0.696-1.491,1.638-3.541l3.151-7.107c0.344-0.782,1.079-2.521,2.205-5.218h0.819
			l5.38,12.639c0.874,2.05,1.454,3.337,1.739,3.857c0.16,0.293,0.334,0.487,0.523,0.579c0.188,0.093,0.614,0.144,1.279,0.151v0.856
			c-1.311-0.084-2.228-0.125-2.749-0.125l-4.056,0.125v-0.856c0.94-0.017,1.512-0.046,1.713-0.089
			c0.202-0.04,0.338-0.101,0.41-0.182c0.07-0.079,0.106-0.178,0.106-0.295c0-0.185-0.06-0.425-0.177-0.718l-1.549-3.857h-7.297
			l-1.373,3.238c-0.244,0.581-0.366,1.006-0.366,1.274c0,0.118,0.034,0.214,0.102,0.288c0.092,0.11,0.235,0.188,0.428,0.229
			c0.312,0.067,0.857,0.105,1.639,0.113v0.856c-1.42-0.074-2.483-0.113-3.188-0.113C139.244,108.138,138.354,108.176,137.387,108.25
			z M143.247,101.182h6.364l-3.152-7.599L143.247,101.182z"/>
		<path fill="#231815" d="M173.129,106.021l-0.492,1.171c-0.983,0.497-1.944,0.855-2.885,1.078
			c-0.941,0.223-1.967,0.333-3.075,0.333c-1.304,0-2.514-0.163-3.63-0.492c-1.118-0.327-2.095-0.794-2.93-1.404
			c-0.836-0.61-1.519-1.291-2.048-2.047c-0.528-0.756-0.933-1.577-1.21-2.462c-0.277-0.889-0.414-1.861-0.414-2.919
			c0-2.679,0.933-4.899,2.803-6.659c1.869-1.762,4.421-2.64,7.654-2.64c0.766,0,1.473,0.043,2.124,0.132s1.444,0.257,2.382,0.504
			c0.936,0.248,1.509,0.394,1.721,0.435c-0.186,0.463-0.324,0.917-0.416,1.361c-0.135,0.715-0.228,1.541-0.277,2.482h-0.795
			l-0.012-1.486c-0.084-0.824-0.54-1.438-1.368-1.841c-0.827-0.403-2.038-0.604-3.634-0.604c-1.193,0.017-2.206,0.17-3.038,0.46
			c-0.832,0.291-1.564,0.747-2.198,1.373c-0.635,0.626-1.154,1.421-1.557,2.381c-0.404,0.962-0.609,2.169-0.617,3.624
			c0,2.544,0.775,4.592,2.33,6.142c1.555,1.551,3.607,2.326,6.162,2.326c1.152,0,2.218-0.161,3.201-0.479
			c0.673-0.219,1.34-0.562,2.004-1.032L173.129,106.021z"/>
		<path fill="#231815" d="M175.386,108.25v-0.794c0.882-0.007,1.462-0.075,1.739-0.202c0.118-0.05,0.202-0.13,0.252-0.237
			c0.084-0.168,0.143-0.61,0.176-1.325c0.051-1.109,0.076-2.066,0.076-2.873v-6.438c0-1.143-0.012-2.261-0.038-3.354
			c-0.024-0.796-0.087-1.269-0.183-1.416c-0.096-0.149-0.252-0.256-0.466-0.329c-0.214-0.072-0.821-0.115-1.821-0.132v-0.807
			l3.592,0.074l3.806-0.062c1.823-0.024,3.146-0.039,3.97-0.039c0.83,0,1.617,0.048,2.356,0.139
			c-0.135,0.48-0.228,0.895-0.278,1.248c-0.016,0.075-0.092,0.951-0.227,2.622h-0.793c0.008-0.857-0.047-1.64-0.164-2.345
			c-0.462-0.192-0.972-0.322-1.525-0.39c-0.941-0.118-1.883-0.177-2.822-0.177c-0.203,0-0.651,0.017-1.349,0.05
			c-0.697,0.033-1.196,0.062-1.499,0.088c-0.033,0.932-0.061,1.808-0.076,2.621l-0.051,4.259c0.984,0.05,1.887,0.076,2.71,0.076
			c0.999,0,1.853-0.045,2.56-0.139c0.268-0.034,0.439-0.101,0.516-0.201c0.075-0.101,0.142-0.444,0.201-1.032l0.075-0.883h0.756
			v0.239l-0.063,2.622l0.063,2.935h-0.882l-0.038-0.857c-0.017-0.622-0.073-1.008-0.171-1.16c-0.096-0.151-0.278-0.254-0.547-0.313
			c-0.479-0.102-1.406-0.152-2.784-0.152c-0.564,0-1.361,0.021-2.396,0.063c-0.041,0.84-0.062,2.088-0.062,3.742
			c0,1.555,0.021,2.736,0.062,3.542c1.21,0.092,2.566,0.137,4.07,0.137c1.067,0,1.827-0.031,2.28-0.101
			c0.454-0.065,0.874-0.18,1.261-0.338c0.101-0.262,0.201-0.614,0.302-1.058c0.186-0.75,0.308-1.311,0.366-1.69h0.832
			c-0.219,1.697-0.327,3.106-0.327,4.222c-0.724,0.11-1.601,0.163-2.635,0.163l-7.522-0.101
			C178.578,108.15,177.478,108.183,175.386,108.25z"/>
	</g>
	<g>
		<g>
			<path fill="#231815" d="M175.193,24.26c-13.725,0-20.943,11.956-25.178,20.954c-0.402,0.823-0.785,1.668-1.148,2.535l0,0
				c-0.005,0.012-0.01,0.023-0.016,0.036c-3.256,7.744-9.537,16.956-20.984,16.956c-9.967,0-18.075-8.108-18.075-18.074
				s8.108-18.074,18.075-18.074c6.737,0,12.911,3.785,16.111,9.876c2.404,4.069,3.221,8.85,2.395,13.418
				c1.431-4.75,1.613-10.014-0.211-14.548c-4.121-8.067-12.304-13.079-21.355-13.079c-13.213,0-23.963,10.751-23.963,23.964
				c0,13.213,10.75,23.964,23.963,23.964c11.054,0,19.648-7.643,26.266-23.343c0.02-0.045,0.039-0.091,0.058-0.137
				c0.358-0.818,0.726-1.629,1.103-2.431c4.729-9.668,11.425-14.569,19.902-14.569c9.966,0,18.074,8.108,18.074,18.076
				c0,9.966-8.108,18.071-18.074,18.071c-8.568,0-13.804-6.24-16.163-9.96c-2.402-4.071-3.219-8.85-2.394-13.417
				c-1.43,4.747-1.617,10.011,0.262,14.634c4.119,8.064,12.302,13.077,21.354,13.077c13.213,0,23.963-10.751,23.963-23.964
				C199.156,35.011,188.406,24.26,175.193,24.26z"/>
			<g>
				<g>
					<path fill="#231815" d="M108.015,17.424l-1.08,2.095l-0.285,0.034l-0.675-0.475l-0.053-0.295l1.652-1.67l-2.327-0.379
						l-0.139-0.286l0.252-0.777l0.275-0.149l2.104,1.066l-0.382-2.312l0.217-0.207h0.831l0.207,0.207l-0.363,2.318l2.102-1.054
						l0.26,0.146l0.26,0.778l-0.13,0.269l-2.311,0.389l1.671,1.678l-0.062,0.295l-0.666,0.476l-0.294-0.043L108.015,17.424z"/>
				</g>
				<g>
					<path fill="#231815" d="M128.559,17.424l-1.081,2.095l-0.286,0.034l-0.674-0.475l-0.052-0.295l1.651-1.67l-2.326-0.379
						l-0.14-0.286l0.251-0.777l0.277-0.149l2.104,1.066l-0.383-2.312l0.217-0.207h0.831l0.208,0.207l-0.364,2.318l2.103-1.054
						l0.26,0.146l0.26,0.778l-0.13,0.269l-2.31,0.389l1.67,1.678l-0.062,0.295l-0.666,0.476l-0.294-0.043L128.559,17.424z"/>
				</g>
				<g>
					<path fill="#231815" d="M149.102,17.424l-1.08,2.095l-0.285,0.034l-0.676-0.475l-0.052-0.295l1.651-1.67l-2.325-0.379
						l-0.14-0.286l0.252-0.777l0.276-0.149l2.103,1.066l-0.382-2.312l0.216-0.207h0.83l0.209,0.207l-0.363,2.318l2.102-1.054
						l0.26,0.146l0.26,0.778l-0.129,0.269l-2.311,0.389l1.671,1.678l-0.062,0.295l-0.666,0.476l-0.295-0.043L149.102,17.424z"/>
				</g>
				<g>
					<path fill="#231815" d="M169.646,17.424l-1.081,2.095l-0.285,0.034l-0.675-0.475l-0.052-0.295l1.651-1.67l-2.327-0.379
						l-0.137-0.286l0.25-0.777l0.277-0.149l2.102,1.066l-0.381-2.312l0.216-0.207h0.83l0.208,0.207l-0.362,2.318l2.102-1.054
						l0.261,0.146l0.259,0.778l-0.129,0.269l-2.311,0.389l1.669,1.678l-0.061,0.295l-0.665,0.476l-0.296-0.043L169.646,17.424z"/>
				</g>
				<g>
					<path fill="#231815" d="M190.189,17.424l-1.081,2.095l-0.286,0.034l-0.676-0.475l-0.05-0.295l1.651-1.67l-2.326-0.379
						l-0.139-0.286l0.25-0.777l0.277-0.149l2.102,1.066l-0.38-2.312l0.216-0.207h0.83l0.209,0.207l-0.365,2.318l2.103-1.054
						l0.26,0.146l0.259,0.778l-0.129,0.269l-2.31,0.389l1.669,1.678l-0.061,0.295l-0.665,0.476l-0.295-0.043L190.189,17.424z"/>
				</g>
			</g>
			<g>
				<g>
					<path fill="#231815" d="M108.015,80.236l-1.08,2.096l-0.285,0.033l-0.675-0.475l-0.053-0.295l1.652-1.671l-2.327-0.379
						l-0.139-0.285l0.252-0.778l0.275-0.149l2.104,1.065l-0.382-2.312l0.217-0.206h0.831l0.207,0.206l-0.363,2.319l2.102-1.054
						l0.26,0.146l0.26,0.778l-0.13,0.269l-2.311,0.39l1.671,1.677l-0.062,0.295l-0.666,0.476l-0.294-0.043L108.015,80.236z"/>
				</g>
				<g>
					<path fill="#231815" d="M128.559,80.236l-1.081,2.096l-0.286,0.033l-0.674-0.475l-0.052-0.295l1.651-1.671l-2.326-0.379
						l-0.14-0.285l0.251-0.778l0.277-0.149l2.104,1.065l-0.383-2.312l0.217-0.206h0.831l0.208,0.206l-0.364,2.319l2.103-1.054
						l0.26,0.146l0.26,0.778l-0.13,0.269l-2.31,0.39l1.67,1.677l-0.062,0.295l-0.666,0.476l-0.294-0.043L128.559,80.236z"/>
				</g>
				<g>
					<path fill="#231815" d="M149.102,80.236l-1.08,2.096l-0.285,0.033l-0.676-0.475l-0.052-0.295l1.651-1.671l-2.325-0.379
						l-0.14-0.285l0.252-0.778l0.276-0.149l2.103,1.065l-0.382-2.312l0.216-0.206h0.83l0.209,0.206l-0.363,2.319l2.102-1.054
						l0.26,0.146l0.26,0.778l-0.129,0.269l-2.311,0.39l1.671,1.677l-0.062,0.295l-0.666,0.476l-0.295-0.043L149.102,80.236z"/>
				</g>
				<g>
					<path fill="#231815" d="M169.646,80.236l-1.081,2.096l-0.285,0.033l-0.675-0.475l-0.052-0.295l1.651-1.671l-2.327-0.379
						l-0.137-0.285l0.25-0.778l0.277-0.149l2.102,1.065l-0.381-2.312l0.216-0.206h0.83l0.208,0.206l-0.362,2.319l2.102-1.054
						l0.261,0.146l0.259,0.778l-0.129,0.269l-2.311,0.39l1.669,1.677l-0.061,0.295l-0.665,0.476l-0.296-0.043L169.646,80.236z"/>
				</g>
				<g>
					<path fill="#231815" d="M190.189,80.236l-1.081,2.096l-0.286,0.033l-0.676-0.475l-0.05-0.295l1.651-1.671l-2.326-0.379
						l-0.139-0.285l0.25-0.778l0.277-0.149l2.102,1.065l-0.38-2.312l0.216-0.206h0.83l0.209,0.206l-0.365,2.319l2.103-1.054
						l0.26,0.146l0.259,0.778l-0.129,0.269l-2.31,0.39l1.669,1.677l-0.061,0.295l-0.665,0.476l-0.295-0.043L190.189,80.236z"/>
				</g>
			</g>
		</g>
		<g>
			<rect x="206.695" y="38.271" fill="#231815" width="27.037" height="1.229"/>
			<rect x="206.695" y="55.936" fill="#231815" width="27.037" height="1.229"/>
			<rect x="210.383" y="47.104" fill="#231815" width="77.831" height="1.229"/>
			<rect x="200.386" y="64.769" fill="#231815" width="15.22" height="1.229"/>
			<rect x="200.386" y="29.438" fill="#231815" width="15.22" height="1.229"/>
		</g>
		<g>
			<rect x="66.27" y="55.936" fill="#231815" width="27.035" height="1.229"/>
			<rect x="66.27" y="38.271" fill="#231815" width="27.035" height="1.229"/>
			<rect x="11.787" y="47.104" fill="#231815" width="77.831" height="1.229"/>
			<rect x="84.396" y="29.438" fill="#231815" width="15.218" height="1.229"/>
			<rect x="84.396" y="64.769" fill="#231815" width="15.218" height="1.229"/>
		</g>
	</g>
</g>
</svg>
